SplineFontDB: 3.2
FontName: TF2C
FullName: TF2C
FamilyName: TF2C
Weight: Regular
Copyright: 
Version: 1.0
ItalicAngle: 0
UnderlinePosition: -102.4
UnderlineWidth: 51.2
Ascent: 768
Descent: 256
InvalidEm: 0
sfntRevision: 0x00010000
LayerCount: 2
Layer: 0 1 "Arri+AOgA-re" 1
Layer: 1 1 "Avant" 0
XUID: [1021 514 -2062894156 31677]
StyleMap: 0x0040
FSType: 4
OS2Version: 3
OS2_WeightWidthSlopeOnly: 0
OS2_UseTypoMetrics: 0
CreationTime: 1262973209
ModificationTime: 1649112462
PfmFamily: 81
TTFWeight: 400
TTFWidth: 5
LineGap: 0
VLineGap: 0
Panose: 0 0 0 0 0 0 0 0 0 0
OS2TypoAscent: 768
OS2TypoAOffset: 0
OS2TypoDescent: -256
OS2TypoDOffset: 0
OS2TypoLinegap: 0
OS2WinAscent: 757
OS2WinAOffset: 0
OS2WinDescent: 106
OS2WinDOffset: 0
HheadAscent: 768
HheadAOffset: 0
HheadDescent: -256
HheadDOffset: 0
OS2SubXSize: 717
OS2SubYSize: 666
OS2SubXOff: 0
OS2SubYOff: 143
OS2SupXSize: 717
OS2SupYSize: 666
OS2SupXOff: 0
OS2SupYOff: 488
OS2StrikeYSize: 51
OS2StrikeYPos: 256
OS2CapHeight: 712
OS2XHeight: 705
OS2Vendor: 'pyrs'
OS2CodePages: 00000001.00000000
OS2UnicodeRanges: 80000027.0000004a.00000000.00000000
Lookup: 6 0 0 "mark-chain" { "mark-chain-1"  } ['ccmp' ('DFLT' <'dflt' > 'cyrl' <'dflt' > 'grek' <'dflt' > 'latn' <'AZE ' 'KAZ ' 'TRK ' 'dflt' > ) ]
Lookup: 1 0 0 "turkish" { "turkish-1"  } ['locl' ('latn' <'TRK ' > 'latn' <'AZE ' > 'latn' <'KAZ ' > ) ]
Lookup: 1 0 0 "mark-downsizer" { "mark-downsizer-1" ("mark") } []
Lookup: 260 0 0 "mark" { "mark-1"  } ['mark' ('DFLT' <'dflt' > 'cyrl' <'dflt' > 'grek' <'dflt' > 'latn' <'AZE ' 'KAZ ' 'TRK ' 'dflt' > ) ]
Lookup: 258 0 0 "kern" { "kern" [150,15,0] } ['kern' ('latn' <'dflt' > ) ]
MarkAttachClasses: 2
"mark-downsizers" 93 gravecomb acutecomb uni0302 tildecomb uni0304 uni0306 uni0307 uni0308 uni030A uni030B uni030C
DEI: 91125
ChainSub2: coverage "mark-chain-1" 0 0 0 1
 1 0 1

StartChar: exclam
Encoding: 33 33 1
Width: 184
GlyphClass: 2
Flags: W
LayerCount: 2
Fore
SplineSet
67 108 m 0,0,1
 81 110 81 110 93.5 100.5 c 128,-1,2
 106 91 106 91 110 74 c 0,3,4
 113 58 113 58 104.5 44.5 c 128,-1,5
 96 31 96 31 82 28 c 0,6,7
 68 26 68 26 55 35 c 128,-1,8
 42 44 42 44 39 61 c 0,9,10
 36 77 36 77 44.5 91 c 128,-1,11
 53 105 53 105 67 108 c 0,0,1
90 160 m 1,12,-1
 51 166 l 1,13,-1
 62 717 l 1,14,-1
 155 709 l 1,15,-1
 90 160 l 1,12,-1
EndSplineSet
EndChar

StartChar: quotedbl
Encoding: 34 34 2
Width: 133
GlyphClass: 2
Flags: W
LayerCount: 2
Fore
SplineSet
55 749 m 1,0,-1
 95 741 l 1,1,-1
 83 665 l 1,2,-1
 61 665 l 1,3,-1
 55 749 l 1,0,-1
18 645 m 1,4,-1
 1 739 l 1,5,-1
 42 740 l 1,6,-1
 40 645 l 1,7,-1
 18 645 l 1,4,-1
EndSplineSet
EndChar

StartChar: numbersign
Encoding: 35 35 3
Width: 327
GlyphClass: 2
Flags: W
LayerCount: 2
Fore
SplineSet
182 375 m 1,0,-1
 185 415 l 1,1,-1
 106 409 l 1,2,-1
 106 374 l 1,3,-1
 182 375 l 1,0,-1
270 421 m 1,4,-1
 219 417 l 1,5,-1
 212 375 l 1,6,-1
 256 373 l 1,7,-1
 252 345 l 1,8,-1
 206 343 l 1,9,-1
 199 261 l 1,10,-1
 171 262 l 1,11,-1
 179 342 l 1,12,-1
 106 338 l 1,13,-1
 106 256 l 1,14,-1
 82 254 l 1,15,-1
 78 337 l 1,16,-1
 14 334 l 1,17,-1
 16 371 l 1,18,-1
 76 371 l 1,19,-1
 74 410 l 1,20,-1
 0 402 l 1,21,-1
 0 439 l 1,22,-1
 73 441 l 1,23,-1
 69 518 l 1,24,-1
 101 515 l 1,25,-1
 101 440 l 1,26,-1
 187 441 l 1,27,-1
 191 499 l 1,28,-1
 230 494 l 1,29,-1
 222 441 l 1,30,-1
 274 442 l 1,31,-1
 270 421 l 1,4,-1
EndSplineSet
EndChar

StartChar: dollar
Encoding: 36 36 4
Width: 783
GlyphClass: 2
Flags: W
LayerCount: 2
Fore
SplineSet
393 773 m 0,0,1
 472 773 472 773 542 742 c 128,-1,2
 612 711 612 711 665.5 657.5 c 128,-1,3
 719 604 719 604 749.5 532.5 c 128,-1,4
 780 461 780 461 780 380 c 0,5,6
 780 301 780 301 749.5 231 c 128,-1,7
 719 161 719 161 665.5 107.5 c 128,-1,8
 612 54 612 54 542 23.5 c 128,-1,9
 472 -7 472 -7 393 -7 c 0,10,11
 377 -7 377 -7 366 -6.5 c 128,-1,12
 355 -6 355 -6 344 -4 c 1,13,-1
 466 292 l 1,14,15
 513 306 513 306 550.5 339 c 128,-1,16
 588 372 588 372 603 424 c 1,17,18
 622 472 622 472 613 520.5 c 128,-1,19
 604 569 604 569 574 606 c 1,20,-1
 519 454 l 1,21,-1
 396 429 l 1,22,-1
 313 521 l 1,23,-1
 362 675 l 1,24,25
 317 664 317 664 280.5 632 c 128,-1,26
 244 600 244 600 229 548 c 1,27,28
 211 500 211 500 221 448 c 128,-1,29
 231 396 231 396 264 360 c 1,30,-1
 171 60 l 1,31,32
 93 112 93 112 46.5 196.5 c 128,-1,33
 0 281 0 281 0 380 c 0,34,35
 0 461 0 461 31 532.5 c 128,-1,36
 62 604 62 604 115.5 657.5 c 128,-1,37
 169 711 169 711 240.5 742 c 128,-1,38
 312 773 312 773 393 773 c 0,0,1
EndSplineSet
EndChar

StartChar: percent
Encoding: 37 37 5
Width: 389
GlyphClass: 2
Flags: W
LayerCount: 2
Fore
SplineSet
302 620 m 1,0,-1
 59 76 l 1,1,-1
 1 104 l 1,2,-1
 256 638 l 1,3,-1
 302 620 l 1,0,-1
96 560 m 0,4,5
 78 562 78 562 62 553 c 128,-1,6
 46 544 46 544 39 532 c 128,-1,7
 32 520 32 520 37 510 c 128,-1,8
 42 500 42 500 66 500 c 0,9,10
 82 498 82 498 96.5 506.5 c 128,-1,11
 111 515 111 515 117 526.5 c 128,-1,12
 123 538 123 538 118.5 547.5 c 128,-1,13
 114 557 114 557 96 560 c 0,4,5
73 467 m 0,14,15
 45 466 45 466 28 475.5 c 128,-1,16
 11 485 11 485 5.5 500 c 128,-1,17
 0 515 0 515 4 533 c 128,-1,18
 8 551 8 551 21 567 c 128,-1,19
 34 583 34 583 55 592.5 c 128,-1,20
 76 602 76 602 102 602 c 0,21,22
 128 602 128 602 140 581 c 128,-1,23
 152 560 152 560 148 535 c 128,-1,24
 144 510 144 510 126.5 489 c 128,-1,25
 109 468 109 468 73 467 c 0,14,15
270 224 m 0,26,27
 288 224 288 224 298.5 239 c 128,-1,28
 309 254 309 254 311.5 272 c 128,-1,29
 314 290 314 290 308 303.5 c 128,-1,30
 302 317 302 317 288 316 c 0,31,32
 271 314 271 314 259 301 c 128,-1,33
 247 288 247 288 243 271 c 128,-1,34
 239 254 239 254 245 239.5 c 128,-1,35
 251 225 251 225 270 224 c 0,26,27
288 349 m 0,36,37
 318 349 318 349 330.5 324 c 128,-1,38
 343 299 343 299 340.5 269.5 c 128,-1,39
 338 240 338 240 319 214 c 128,-1,40
 300 188 300 188 266 188 c 128,-1,41
 232 188 232 188 220 214 c 128,-1,42
 208 240 208 240 212.5 270 c 128,-1,43
 217 300 217 300 236.5 324.5 c 128,-1,44
 256 349 256 349 288 349 c 0,36,37
EndSplineSet
EndChar

StartChar: ampersand
Encoding: 38 38 6
Width: 476
GlyphClass: 2
Flags: W
LayerCount: 2
Fore
SplineSet
404 169 m 1,0,-1
 353 105 l 1,1,2
 316 129 316 129 283 155 c 1,3,4
 277 147 277 147 271 140 c 0,5,6
 253 122 253 122 228.5 111.5 c 128,-1,7
 204 101 204 101 169 101 c 0,8,9
 128 101 128 101 100.5 110 c 128,-1,10
 73 119 73 119 56 133.5 c 128,-1,11
 39 148 39 148 32 168.5 c 128,-1,12
 25 189 25 189 25 217 c 0,13,14
 25 232 25 232 34.5 256.5 c 128,-1,15
 44 281 44 281 59 308 c 0,16,17
 73 334 73 334 90 362 c 0,18,19
 89 364 89 364 87 366 c 0,20,21
 65 403 65 403 52 444 c 128,-1,22
 39 485 39 485 40 528 c 0,23,24
 40 559 40 559 47 575 c 128,-1,25
 54 591 54 591 64 597.5 c 128,-1,26
 74 604 74 604 82 605 c 128,-1,27
 90 606 90 606 92 606 c 0,28,29
 93 606 93 606 106.5 603.5 c 128,-1,30
 120 601 120 601 138.5 591.5 c 128,-1,31
 157 582 157 582 174 567.5 c 128,-1,32
 191 553 191 553 203 529 c 0,33,34
 210 513 210 513 204.5 491.5 c 128,-1,35
 199 470 199 470 186 446 c 128,-1,36
 173 422 173 422 156 395 c 0,37,38
 148 382 148 382 139 369 c 1,39,40
 151 351 151 351 166 333 c 0,41,42
 201 289 201 289 242 254 c 0,43,44
 259 239 259 239 276 226 c 1,45,46
 283 262 283 262 276 321 c 1,47,-1
 196 318 l 1,48,-1
 191 365 l 1,49,-1
 325 364 l 1,50,51
 330 290 330 290 315 231 c 0,52,53
 312 218 312 218 307 205 c 1,54,55
 316 199 316 199 326 194 c 0,56,57
 368 170 368 170 404 169 c 1,0,-1
116 406 m 1,58,59
 120 413 120 413 123 419 c 0,60,61
 137 445 137 445 147 465.5 c 128,-1,62
 157 486 157 486 157 498 c 0,63,64
 157 514 157 514 149.5 527 c 128,-1,65
 142 540 142 540 133.5 546.5 c 128,-1,66
 125 553 125 553 113.5 553 c 128,-1,67
 102 553 102 553 93 544 c 0,68,69
 77 528 77 528 82 493.5 c 128,-1,70
 87 459 87 459 109 418 c 0,71,72
 113 412 113 412 116 406 c 1,58,59
114 324 m 1,73,74
 103 302 103 302 93 280 c 0,75,76
 81 250 81 250 79 217 c 1,77,78
 84 170 84 170 110.5 153 c 128,-1,79
 137 136 137 136 169 136 c 0,80,81
 186 136 186 136 207.5 141.5 c 128,-1,82
 229 147 229 147 248 166 c 0,83,84
 252 170 252 170 256 176 c 1,85,86
 224 202 224 202 195 230 c 0,87,88
 165 259 165 259 137 294 c 0,89,90
 125 309 125 309 114 324 c 1,73,74
EndSplineSet
EndChar

StartChar: quotesingle
Encoding: 39 39 7
Width: 132
GlyphClass: 2
Flags: W
LayerCount: 2
Fore
SplineSet
63 741 m 0,0,1
 79 727 79 727 85 710 c 0,2,3
 90 694 90 694 84.5 672 c 128,-1,4
 79 650 79 650 51 622 c 1,5,-1
 32 634 l 1,6,7
 52 649 52 649 57.5 660 c 128,-1,8
 63 671 63 671 62 678 c 1,9,10
 52 673 52 673 40.5 675 c 128,-1,11
 29 677 29 677 18 685 c 0,12,13
 5 696 5 696 2.5 712.5 c 128,-1,14
 0 729 0 729 10 740.5 c 128,-1,15
 20 752 20 752 35 751.5 c 128,-1,16
 50 751 50 751 63 741 c 0,0,1
EndSplineSet
EndChar

StartChar: parenleft
Encoding: 40 40 8
Width: 302
GlyphClass: 2
Flags: W
LayerCount: 2
Fore
SplineSet
214 54 m 1,0,-1
 168 1 l 1,1,2
 140 23 140 23 112 55 c 0,3,4
 89 83 89 83 64 124 c 128,-1,5
 39 165 39 165 18 223 c 0,6,7
 5 262 5 262 12.5 315.5 c 128,-1,8
 20 369 20 369 44.5 423.5 c 128,-1,9
 69 478 69 478 101 531 c 128,-1,10
 133 584 133 584 161.5 622 c 128,-1,11
 190 660 190 660 215.5 688 c 128,-1,12
 241 716 241 716 243 716 c 2,13,-1
 259 682 l 1,14,15
 209 619 209 619 169 555 c 0,16,17
 138 503 138 503 110 439.5 c 128,-1,18
 82 376 82 376 80 303 c 0,19,20
 81 242 81 242 103 197.5 c 128,-1,21
 125 153 125 153 150 120 c 0,22,23
 178 82 178 82 214 54 c 1,0,-1
EndSplineSet
EndChar

StartChar: parenright
Encoding: 41 41 9
Width: 296
GlyphClass: 2
Flags: W
LayerCount: 2
Fore
SplineSet
45 663 m 1,0,-1
 91 716 l 1,1,2
 119 694 119 694 147 662 c 0,3,4
 170 634 170 634 195 593 c 128,-1,5
 220 552 220 552 241 494 c 0,6,7
 254 455 254 455 246.5 401.5 c 128,-1,8
 239 348 239 348 214.5 293.5 c 128,-1,9
 190 239 190 239 158 186 c 128,-1,10
 126 133 126 133 97.5 94.5 c 128,-1,11
 69 56 69 56 43.5 28.5 c 128,-1,12
 18 1 18 1 16 1 c 2,13,-1
 0 35 l 1,14,15
 50 98 50 98 90 162 c 0,16,17
 121 214 121 214 149 277.5 c 128,-1,18
 177 341 177 341 179 414 c 0,19,20
 178 475 178 475 156 519.5 c 128,-1,21
 134 564 134 564 110 597 c 0,22,23
 81 635 81 635 45 663 c 1,0,-1
EndSplineSet
EndChar

StartChar: asterisk
Encoding: 42 42 10
Width: 271
GlyphClass: 2
Flags: W
LayerCount: 2
Fore
SplineSet
220 554 m 1,0,-1
 185 524 l 1,1,-1
 120 613 l 1,2,-1
 86 522 l 1,3,-1
 68 530 l 1,4,-1
 97 620 l 1,5,-1
 8 582 l 1,6,-1
 0 610 l 1,7,-1
 97 645 l 1,8,-1
 41 726 l 1,9,-1
 56 737 l 1,10,-1
 113 675 l 1,11,-1
 140 763 l 1,12,-1
 172 751 l 1,13,-1
 140 663 l 1,14,-1
 206 685 l 1,15,-1
 211 667 l 1,16,-1
 144 638 l 1,17,-1
 220 554 l 1,0,-1
EndSplineSet
EndChar

StartChar: plus
Encoding: 43 43 11
Width: 307
GlyphClass: 2
Flags: W
LayerCount: 2
Fore
SplineSet
256 371 m 1,0,-1
 158 369 l 1,1,-1
 157 222 l 1,2,-1
 122 221 l 1,3,-1
 120 369 l 1,4,-1
 0 367 l 1,5,-1
 -1 404 l 1,6,-1
 120 407 l 1,7,-1
 118 523 l 1,8,-1
 160 523 l 1,9,-1
 158 407 l 1,10,-1
 254 409 l 1,11,-1
 256 371 l 1,0,-1
EndSplineSet
EndChar

StartChar: comma
Encoding: 44 44 12
Width: 138
GlyphClass: 2
Flags: W
LayerCount: 2
Fore
SplineSet
84 53 m 0,0,1
 96 27 96 27 85 2.5 c 128,-1,2
 74 -22 74 -22 48 -51 c 1,3,-1
 27 -36 l 1,4,5
 41 -23 41 -23 55 -8.5 c 128,-1,6
 69 6 69 6 69 13 c 1,7,8
 50 4 50 4 29 18 c 0,9,10
 16 27 16 27 11.5 41.5 c 128,-1,11
 7 56 7 56 15 70 c 0,12,13
 25 81 25 81 39.5 82.5 c 128,-1,14
 54 84 54 84 69 75 c 0,15,16
 80 66 80 66 84 53 c 0,0,1
EndSplineSet
EndChar

StartChar: hyphen
Encoding: 45 45 13
Width: 286
GlyphClass: 2
Flags: W
LayerCount: 2
Fore
SplineSet
0 356 m 1,0,-1
 231 377 l 1,1,-1
 227 309 l 1,2,-1
 3 317 l 1,3,-1
 0 356 l 1,0,-1
EndSplineSet
EndChar

StartChar: period
Encoding: 46 46 14
Width: 144
GlyphClass: 2
Flags: W
LayerCount: 2
Fore
SplineSet
37 51 m 0,0,1
 24 60 24 60 19.5 75 c 128,-1,2
 15 90 15 90 24 103 c 0,3,4
 34 115 34 115 49.5 116.5 c 128,-1,5
 65 118 65 118 79 108 c 0,6,7
 92 99 92 99 96 83.5 c 128,-1,8
 100 68 100 68 91 55.5 c 128,-1,9
 82 43 82 43 67 42 c 128,-1,10
 52 41 52 41 37 51 c 0,0,1
EndSplineSet
EndChar

StartChar: slash
Encoding: 47 47 15
Width: 352
GlyphClass: 2
Flags: W
LayerCount: 2
Fore
SplineSet
230 681 m 5,0,-1
 305 669 l 5,1,-1
 41 63 l 5,2,-1
 0 77 l 5,3,-1
 230 681 l 5,0,-1
EndSplineSet
EndChar

StartChar: zero
Encoding: 48 48 16
Width: 541
GlyphClass: 2
Flags: W
LayerCount: 2
Fore
SplineSet
413 310 m 0,0,1
 418 372 418 372 407.5 428 c 128,-1,2
 397 484 397 484 375 525.5 c 128,-1,3
 353 567 353 567 319 591.5 c 128,-1,4
 285 616 285 616 243 618 c 0,5,6
 203 621 203 621 171 604 c 0,7,8
 143 587 143 587 118 544 c 128,-1,9
 93 501 93 501 88 418 c 0,10,11
 81 335 81 335 101.5 274.5 c 128,-1,12
 122 214 122 214 153 174 c 128,-1,13
 184 134 184 134 215.5 115.5 c 128,-1,14
 247 97 247 97 272 97 c 0,15,16
 290 96 290 96 313 106.5 c 128,-1,17
 336 117 336 117 355.5 140.5 c 128,-1,18
 375 164 375 164 390.5 205.5 c 128,-1,19
 406 247 406 247 413 310 c 0,0,1
488 348 m 0,20,21
 488 274 488 274 474 226 c 128,-1,22
 460 178 460 178 439 147 c 128,-1,23
 418 116 418 116 390 98 c 128,-1,24
 362 80 362 80 336 71.5 c 128,-1,25
 310 63 310 63 294 62 c 128,-1,26
 278 61 278 61 259 62 c 0,27,28
 253 62 253 62 231.5 66 c 128,-1,29
 210 70 210 70 183 81 c 128,-1,30
 156 92 156 92 124.5 112.5 c 128,-1,31
 93 133 93 133 67 169.5 c 128,-1,32
 41 206 41 206 21 258 c 128,-1,33
 1 310 1 310 -1 385 c 0,34,35
 1 443 1 443 13 484.5 c 128,-1,36
 25 526 25 526 42.5 557.5 c 128,-1,37
 60 589 60 589 81 608 c 128,-1,38
 102 627 102 627 126 637 c 0,39,40
 177 666 177 666 243 662 c 0,41,42
 249 662 249 662 267.5 659.5 c 128,-1,43
 286 657 286 657 312 648 c 128,-1,44
 338 639 338 639 368.5 619.5 c 128,-1,45
 399 600 399 600 425.5 565 c 128,-1,46
 452 530 452 530 469.5 477 c 128,-1,47
 487 424 487 424 488 348 c 0,20,21
EndSplineSet
EndChar

StartChar: one
Encoding: 49 49 17
Width: 256
GlyphClass: 2
Flags: W
LayerCount: 2
Fore
SplineSet
73 100 m 1,0,-1
 85 565 l 1,1,2
 67 550 67 550 54 546 c 0,3,4
 39 539 39 539 18 532 c 1,5,-1
 0 577 l 1,6,7
 25 583 25 583 42 592.5 c 128,-1,8
 59 602 59 602 72 617 c 0,9,10
 85 635 85 635 95 655 c 1,11,-1
 157 654 l 1,12,13
 150 119 150 119 153 117 c 0,14,15
 155 111 155 111 204 61 c 1,16,-1
 27 61 l 1,17,-1
 73 100 l 1,0,-1
EndSplineSet
EndChar

StartChar: two
Encoding: 50 50 18
Width: 522
GlyphClass: 2
Flags: W
LayerCount: 2
Fore
SplineSet
0 609 m 1,0,1
 20 622 20 622 58.5 636 c 128,-1,2
 97 650 97 650 142.5 658 c 128,-1,3
 188 666 188 666 237.5 666 c 128,-1,4
 287 666 287 666 329 653 c 128,-1,5
 371 640 371 640 402 612.5 c 128,-1,6
 433 585 433 585 444 536 c 0,7,8
 451 501 451 501 445.5 464.5 c 128,-1,9
 440 428 440 428 426 392 c 128,-1,10
 412 356 412 356 390 321.5 c 128,-1,11
 368 287 368 287 345 256 c 0,12,13
 289 184 289 184 214 116 c 1,14,15
 256 117 256 117 294 119 c 0,16,17
 326 122 326 122 355.5 123 c 128,-1,18
 385 124 385 124 397 126 c 0,19,20
 407 129 407 129 420 138.5 c 128,-1,21
 433 148 433 148 444 158 c 0,22,23
 457 170 457 170 469 184 c 5,24,-1
 469 65 l 1,25,-1
 273 65 l 2,26,27
 236 65 236 65 200.5 65 c 128,-1,28
 165 65 165 65 138 65 c 128,-1,29
 111 65 111 65 93 65 c 2,30,-1
 76 65 l 1,31,32
 110 93 110 93 148.5 135 c 128,-1,33
 187 177 187 177 223 220 c 128,-1,34
 259 263 259 263 286.5 301 c 128,-1,35
 314 339 314 339 326 357 c 0,36,37
 333 369 333 369 342.5 390.5 c 128,-1,38
 352 412 352 412 358 437.5 c 128,-1,39
 364 463 364 463 362 490 c 128,-1,40
 360 517 360 517 348 539.5 c 128,-1,41
 336 562 336 562 311 577.5 c 128,-1,42
 286 593 286 593 241 596 c 0,43,44
 196 598 196 598 162.5 590 c 128,-1,45
 129 582 129 582 105 570.5 c 128,-1,46
 81 559 81 559 65.5 547.5 c 128,-1,47
 50 536 50 536 41 529 c 0,48,49
 40 529 40 529 34 541.5 c 128,-1,50
 28 554 28 554 20 569 c 0,51,52
 12 586 12 586 0 609 c 1,0,1
EndSplineSet
EndChar

StartChar: three
Encoding: 51 51 19
Width: 479
GlyphClass: 2
Flags: W
LayerCount: 2
Fore
SplineSet
0 636 m 1,0,1
 45 651 45 651 94 658 c 128,-1,2
 143 665 143 665 191 664 c 128,-1,3
 239 663 239 663 283.5 653.5 c 128,-1,4
 328 644 328 644 361.5 628 c 128,-1,5
 395 612 395 612 414.5 590.5 c 128,-1,6
 434 569 434 569 435 541 c 0,7,8
 437 488 437 488 412.5 454 c 128,-1,9
 388 420 388 420 358 400 c 128,-1,10
 328 380 328 380 301.5 371 c 128,-1,11
 275 362 275 362 275 361 c 2,12,-1
 294 354 l 2,13,14
 312 347 312 347 335.5 330 c 128,-1,15
 359 313 359 313 380.5 285.5 c 128,-1,16
 402 258 402 258 406 218 c 0,17,18
 407 181 407 181 391.5 156.5 c 128,-1,19
 376 132 376 132 350.5 114.5 c 128,-1,20
 325 97 325 97 291.5 87 c 128,-1,21
 258 77 258 77 223 72 c 0,22,23
 141 59 141 59 38 67 c 1,24,-1
 38 119 l 1,25,26
 116 112 116 112 177 120 c 0,27,28
 204 124 204 124 229 131 c 128,-1,29
 254 138 254 138 274 151 c 128,-1,30
 294 164 294 164 305.5 182 c 128,-1,31
 317 200 317 200 317 226 c 0,32,33
 317 249 317 249 307.5 265 c 128,-1,34
 298 281 298 281 283.5 291.5 c 128,-1,35
 269 302 269 302 249.5 308 c 128,-1,36
 230 314 230 314 211 318 c 0,37,38
 164 325 164 325 105 319 c 1,39,-1
 105 379 l 2,40,41
 106 380 106 380 124.5 379.5 c 128,-1,42
 143 379 143 379 170.5 381 c 128,-1,43
 198 383 198 383 229.5 389.5 c 128,-1,44
 261 396 261 396 288 411.5 c 128,-1,45
 315 427 315 427 332.5 451.5 c 128,-1,46
 350 476 350 476 349 515 c 0,47,48
 349 549 349 549 326 568.5 c 128,-1,49
 303 588 303 588 269.5 595.5 c 128,-1,50
 236 603 236 603 195.5 601 c 128,-1,51
 155 599 155 599 118.5 592 c 128,-1,52
 82 585 82 585 56.5 573.5 c 128,-1,53
 31 562 31 562 22 555 c 1,54,-1
 0 636 l 1,0,1
EndSplineSet
EndChar

StartChar: four
Encoding: 52 52 20
Width: 494
GlyphClass: 2
Flags: W
LayerCount: 2
Fore
SplineSet
124 353 m 1,0,-1
 286 360 l 1,1,-1
 291 564 l 1,2,-1
 124 353 l 1,0,-1
352 308 m 1,3,4
 353 113 353 113 357.5 104.5 c 128,-1,5
 362 96 362 96 368 88 c 0,6,7
 375 77 375 77 385 63 c 1,8,-1
 232 62 l 1,9,-1
 258 82 l 2,10,11
 282 101 282 101 285 106 c 0,12,13
 287 107 287 107 287 308 c 1,14,-1
 0 308 l 1,15,-1
 301 665 l 1,16,-1
 348 664 l 1,17,-1
 352 366 l 1,18,-1
 455 374 l 1,19,-1
 456 310 l 1,20,-1
 352 308 l 1,3,4
EndSplineSet
EndChar

StartChar: five
Encoding: 53 53 21
Width: 420
GlyphClass: 2
Flags: W
LayerCount: 2
Fore
SplineSet
355 672 m 1,0,-1
 355 582 l 1,1,-1
 58 581 l 1,2,-1
 59 412 l 1,3,4
 75 412 75 412 104 412.5 c 128,-1,5
 133 413 133 413 166 411 c 128,-1,6
 199 409 199 409 233 401.5 c 128,-1,7
 267 394 267 394 296.5 380 c 128,-1,8
 326 366 326 366 345.5 342.5 c 128,-1,9
 365 319 365 319 369 284 c 0,10,11
 371 257 371 257 360.5 234 c 128,-1,12
 350 211 350 211 331 190 c 128,-1,13
 312 169 312 169 286.5 151.5 c 128,-1,14
 261 134 261 134 233 120 c 0,15,16
 171 87 171 87 88 62 c 1,17,-1
 63 123 l 1,18,19
 123 141 123 141 171 164 c 0,20,21
 198 176 198 176 217 187 c 128,-1,22
 236 198 236 198 250 212.5 c 128,-1,23
 264 227 264 227 273.5 243 c 128,-1,24
 283 259 283 259 282 281 c 0,25,26
 281 301 281 301 268.5 313.5 c 128,-1,27
 256 326 256 326 236 334 c 128,-1,28
 216 342 216 342 188.5 346.5 c 128,-1,29
 161 351 161 351 135 352 c 0,30,31
 77 354 77 354 0 346 c 1,32,-1
 2 642 l 1,33,-1
 355 672 l 1,0,-1
EndSplineSet
EndChar

StartChar: six
Encoding: 54 54 22
Width: 430
GlyphClass: 2
Flags: W
LayerCount: 2
Fore
SplineSet
169 116 m 4,0,1
 207 112 207 112 233 126.5 c 132,-1,2
 259 141 259 141 274 165.5 c 132,-1,3
 289 190 289 190 292.5 219.5 c 132,-1,4
 296 249 296 249 289.5 275.5 c 132,-1,5
 283 302 283 302 265 320.5 c 132,-1,6
 247 339 247 339 220 342 c 4,7,8
 179 345 179 345 154.5 333 c 132,-1,9
 130 321 130 321 116 303.5 c 132,-1,10
 102 286 102 286 96 266 c 132,-1,11
 90 246 90 246 88 232 c 4,12,13
 84 215 84 215 88 194 c 132,-1,14
 92 173 92 173 103.5 156 c 132,-1,15
 115 139 115 139 132.5 128 c 132,-1,16
 150 117 150 117 169 116 c 4,0,1
223 388 m 4,17,18
 239 388 239 388 265 382 c 132,-1,19
 291 376 291 376 316 359 c 132,-1,20
 341 342 341 342 360 311 c 132,-1,21
 379 280 379 280 379 228 c 4,22,23
 379 175 379 175 353 142.5 c 132,-1,24
 327 110 327 110 293.5 94 c 132,-1,25
 260 78 260 78 227 74 c 132,-1,26
 194 70 194 70 178 70 c 4,27,28
 163 71 163 71 134 79 c 132,-1,29
 105 87 105 87 76 108.5 c 132,-1,30
 47 130 47 130 26 171 c 4,31,32
 5 211 5 211 4 276 c 4,33,34
 4 276 4 276 4 276 c 4,35,36
 2 305 2 305 11 356.5 c 132,-1,37
 20 408 20 408 49 467 c 132,-1,38
 78 526 78 526 136 586.5 c 132,-1,39
 194 647 194 647 290 696 c 5,40,41
 304 676 304 676 312 660 c 4,42,43
 319 646 319 646 326.5 635.5 c 132,-1,44
 334 625 334 625 333 625 c 4,45,46
 272 599 272 599 226.5 567.5 c 132,-1,47
 181 536 181 536 149.5 500 c 132,-1,48
 118 464 118 464 100.5 427 c 132,-1,49
 83 390 83 390 76 358 c 5,50,51
 163 391 163 391 223 388 c 4,17,18
EndSplineSet
EndChar

StartChar: seven
Encoding: 55 55 23
Width: 441
GlyphClass: 2
Flags: W
LayerCount: 2
Fore
SplineSet
1 652 m 1,0,-1
 391 660 l 1,1,-1
 336 60 l 1,2,-1
 262 62 l 1,3,-1
 335 593 l 1,4,-1
 7 577 l 1,5,-1
 1 652 l 1,0,-1
EndSplineSet
EndChar

StartChar: eight
Encoding: 56 56 24
Width: 500
GlyphClass: 2
Flags: W
LayerCount: 2
Fore
SplineSet
234 113 m 0,0,1
 279 113 279 113 312.5 132.5 c 128,-1,2
 346 152 346 152 363 181.5 c 128,-1,3
 380 211 380 211 382 245.5 c 128,-1,4
 384 280 384 280 371.5 307 c 128,-1,5
 359 334 359 334 330 351.5 c 128,-1,6
 301 369 301 369 256 364 c 0,7,8
 209 360 209 360 175 338.5 c 128,-1,9
 141 317 141 317 121 288 c 128,-1,10
 101 259 101 259 96 228 c 128,-1,11
 91 197 91 197 105 169.5 c 128,-1,12
 119 142 119 142 150 126 c 128,-1,13
 181 110 181 110 234 113 c 0,0,1
226 629 m 0,14,15
 194 629 194 629 173 611.5 c 128,-1,16
 152 594 152 594 141.5 568 c 128,-1,17
 131 542 131 542 131 512.5 c 128,-1,18
 131 483 131 483 141.5 457.5 c 128,-1,19
 152 432 152 432 172.5 417 c 128,-1,20
 193 402 193 402 225 406 c 0,21,22
 253 407 253 407 273 424 c 128,-1,23
 293 441 293 441 301.5 466.5 c 128,-1,24
 310 492 310 492 309.5 520 c 128,-1,25
 309 548 309 548 299.5 572 c 128,-1,26
 290 596 290 596 271 612.5 c 128,-1,27
 252 629 252 629 226 629 c 0,14,15
335 409 m 1,28,29
 392 405 392 405 422 377 c 128,-1,30
 452 349 452 349 458.5 311.5 c 128,-1,31
 465 274 465 274 450 231 c 128,-1,32
 435 188 435 188 403 151 c 128,-1,33
 371 114 371 114 320.5 88.5 c 128,-1,34
 270 63 270 63 208 62 c 0,35,36
 163 61 163 61 123 77 c 128,-1,37
 83 93 83 93 56.5 119 c 128,-1,38
 30 145 30 145 18.5 179 c 128,-1,39
 7 213 7 213 16.5 249 c 128,-1,40
 26 285 26 285 57.5 317 c 128,-1,41
 89 349 89 349 148 374 c 1,42,43
 111 385 111 385 88 411 c 128,-1,44
 65 437 65 437 56 469 c 128,-1,45
 47 501 47 501 53 536 c 128,-1,46
 59 571 59 571 79.5 600 c 128,-1,47
 100 629 100 629 134.5 649.5 c 128,-1,48
 169 670 169 670 217 673 c 0,49,50
 276 676 276 676 316.5 648 c 128,-1,51
 357 620 357 620 374 577.5 c 128,-1,52
 391 535 391 535 382 488.5 c 128,-1,53
 373 442 373 442 335 409 c 1,28,29
EndSplineSet
EndChar

StartChar: nine
Encoding: 57 57 25
Width: 386
GlyphClass: 2
Flags: W
LayerCount: 2
Fore
SplineSet
196 384 m 0,0,1
 220 387 220 387 236 407 c 128,-1,2
 252 427 252 427 256.5 454 c 128,-1,3
 261 481 261 481 256.5 510 c 128,-1,4
 252 539 252 539 237 564.5 c 128,-1,5
 222 590 222 590 197.5 604 c 128,-1,6
 173 618 173 618 140 615 c 0,7,8
 109 611 109 611 92 591.5 c 128,-1,9
 75 572 75 572 68 545 c 128,-1,10
 61 518 61 518 67 487.5 c 128,-1,11
 73 457 73 457 89 433 c 128,-1,12
 105 409 105 409 132 394 c 128,-1,13
 159 379 159 379 196 384 c 0,0,1
342 441 m 0,14,15
 342 402 342 402 333 362.5 c 128,-1,16
 324 323 324 323 306.5 287.5 c 128,-1,17
 289 252 289 252 268 220.5 c 128,-1,18
 247 189 247 189 225 164 c 0,19,20
 172 103 172 103 104 51 c 1,21,-1
 49 117 l 1,22,23
 104 153 104 153 147 195 c 0,24,25
 185 230 185 230 216 271.5 c 128,-1,26
 247 313 247 313 250 354 c 1,27,28
 191 327 191 327 144 333 c 128,-1,29
 97 339 97 339 66 361 c 128,-1,30
 35 383 35 383 17.5 412 c 128,-1,31
 0 441 0 441 0 468 c 0,32,33
 0 504 0 504 8.5 538.5 c 128,-1,34
 17 573 17 573 36.5 602 c 128,-1,35
 56 631 56 631 89.5 650 c 128,-1,36
 123 669 123 669 167 670 c 0,37,38
 169 670 169 670 184 668 c 128,-1,39
 199 666 199 666 218.5 660 c 128,-1,40
 238 654 238 654 259 640 c 128,-1,41
 280 626 280 626 297.5 600 c 128,-1,42
 315 574 315 574 328 537 c 128,-1,43
 341 500 341 500 342 441 c 0,14,15
EndSplineSet
EndChar

StartChar: colon
Encoding: 58 58 26
Width: 158
GlyphClass: 2
Flags: W
LayerCount: 2
Fore
SplineSet
39 442 m 0,0,1
 24 453 24 453 20.5 471.5 c 128,-1,2
 17 490 17 490 28 506 c 0,3,4
 39 520 39 520 57 523.5 c 128,-1,5
 75 527 75 527 90 516 c 0,6,7
 105 506 105 506 109 487.5 c 128,-1,8
 113 469 113 469 101 455 c 0,9,10
 91 440 91 440 72 436 c 128,-1,11
 53 432 53 432 39 442 c 0,0,1
84 234 m 0,12,13
 103 220 103 220 106.5 200 c 128,-1,14
 110 180 110 180 98 162 c 0,15,16
 86 145 86 145 65 141 c 128,-1,17
 44 137 44 137 27 150 c 0,18,19
 9 163 9 163 5 183 c 128,-1,20
 1 203 1 203 13 222 c 0,21,22
 25 239 25 239 46 242 c 128,-1,23
 67 245 67 245 84 234 c 0,12,13
EndSplineSet
EndChar

StartChar: semicolon
Encoding: 59 59 27
AltUni2: 00037e.ffffffff.0
Width: 152
GlyphClass: 2
Flags: W
LayerCount: 2
Fore
SplineSet
80 507 m 0,0,1
 97 496 97 496 100 476 c 128,-1,2
 103 456 103 456 92 439 c 0,3,4
 81 422 81 422 61.5 419 c 128,-1,5
 42 416 42 416 26 428 c 0,6,7
 8 439 8 439 4.5 459 c 128,-1,8
 1 479 1 479 12.5 495.5 c 128,-1,9
 24 512 24 512 44 515 c 128,-1,10
 64 518 64 518 80 507 c 0,0,1
77 232 m 0,11,12
 83 229 83 229 90.5 216.5 c 128,-1,13
 98 204 98 204 98 184 c 128,-1,14
 98 164 98 164 87 140 c 128,-1,15
 76 116 76 116 44 89 c 1,16,-1
 16 103 l 1,17,18
 36 118 36 118 46 138.5 c 128,-1,19
 56 159 56 159 55 165 c 1,20,21
 45 160 45 160 34 165 c 128,-1,22
 23 170 23 170 18 172 c 0,23,24
 4 180 4 180 2 197.5 c 128,-1,25
 0 215 0 215 10 226.5 c 128,-1,26
 20 238 20 238 37.5 240.5 c 128,-1,27
 55 243 55 243 77 232 c 0,11,12
EndSplineSet
EndChar

StartChar: less
Encoding: 60 60 28
Width: 203
GlyphClass: 2
Flags: W
LayerCount: 2
Fore
SplineSet
130 479 m 1,0,-1
 153 447 l 1,1,-1
 42 354 l 1,2,-1
 148 271 l 1,3,-1
 120 230 l 1,4,-1
 1 344 l 1,5,-1
 130 479 l 1,0,-1
EndSplineSet
EndChar

StartChar: equal
Encoding: 61 61 29
Width: 314
GlyphClass: 2
Flags: W
LayerCount: 2
Fore
SplineSet
260 395 m 1,0,-1
 262 367 l 1,1,-1
 9 374 l 1,2,-1
 13 415 l 1,3,-1
 260 395 l 1,0,-1
5 302 m 1,4,-1
 3 332 l 1,5,-1
 254 344 l 1,6,-1
 254 303 l 1,7,-1
 5 302 l 1,4,-1
EndSplineSet
EndChar

StartChar: greater
Encoding: 62 62 30
Width: 204
GlyphClass: 2
Flags: W
LayerCount: 2
Fore
SplineSet
25 231 m 1,0,-1
 1 263 l 1,1,-1
 113 356 l 1,2,-1
 3 441 l 1,3,-1
 34 482 l 1,4,-1
 155 367 l 1,5,-1
 25 231 l 1,0,-1
EndSplineSet
EndChar

StartChar: question
Encoding: 63 63 31
Width: 543
GlyphClass: 2
Flags: W
LayerCount: 2
Fore
SplineSet
298 94 m 0,0,1
 311 90 311 90 318.5 73.5 c 128,-1,2
 326 57 326 57 321 38 c 0,3,4
 316 20 316 20 302 9 c 128,-1,5
 288 -2 288 -2 273 2 c 0,6,7
 260 5 260 5 253 21.5 c 128,-1,8
 246 38 246 38 251 57 c 0,9,10
 256 75 256 75 270 86 c 128,-1,11
 284 97 284 97 298 94 c 0,0,1
477 593 m 0,12,13
 494 561 494 561 494 531.5 c 128,-1,14
 494 502 494 502 481 477 c 128,-1,15
 468 452 468 452 446 429.5 c 128,-1,16
 424 407 424 407 397 388 c 0,17,18
 337 345 337 345 249 311 c 1,19,-1
 300 160 l 1,20,-1
 239 145 l 1,21,-1
 191 343 l 1,22,23
 266 363 266 363 317 397 c 0,24,25
 341 410 341 410 360 427 c 128,-1,26
 379 444 379 444 390.5 465 c 128,-1,27
 402 486 402 486 403 511.5 c 128,-1,28
 404 537 404 537 391 564 c 0,29,30
 375 600 375 600 345 614.5 c 128,-1,31
 315 629 315 629 276.5 631.5 c 128,-1,32
 238 634 238 634 182.5 615.5 c 128,-1,33
 127 597 127 597 59 528 c 1,34,-1
 -1 589 l 1,35,36
 17 604 17 604 53 623 c 128,-1,37
 89 642 89 642 134 659.5 c 128,-1,38
 179 677 179 677 229.5 682 c 128,-1,39
 280 687 280 687 327.5 682 c 128,-1,40
 375 677 375 677 413.5 656 c 128,-1,41
 452 635 452 635 477 593 c 0,12,13
EndSplineSet
EndChar

StartChar: at
Encoding: 64 64 32
Width: 486
GlyphClass: 2
Flags: W
LayerCount: 2
Fore
SplineSet
221 241 m 0,0,1
 236 239 236 239 247.5 249 c 128,-1,2
 259 259 259 259 265.5 275.5 c 128,-1,3
 272 292 272 292 275 312.5 c 128,-1,4
 278 333 278 333 274.5 350 c 128,-1,5
 271 367 271 367 263.5 378.5 c 128,-1,6
 256 390 256 390 241 390 c 0,7,8
 221 391 221 391 206 369.5 c 128,-1,9
 191 348 191 348 186.5 321.5 c 128,-1,10
 182 295 182 295 189 271 c 128,-1,11
 196 247 196 247 221 241 c 0,0,1
238 510 m 0,12,13
 241 510 241 510 256.5 509 c 128,-1,14
 272 508 272 508 293.5 502.5 c 128,-1,15
 315 497 315 497 340.5 485.5 c 128,-1,16
 366 474 366 474 386 453 c 128,-1,17
 406 432 406 432 419.5 400.5 c 128,-1,18
 433 369 433 369 433 324 c 0,19,20
 430 286 430 286 417 265 c 128,-1,21
 404 244 404 244 390.5 233 c 128,-1,22
 377 222 377 222 364 220 c 128,-1,23
 351 218 351 218 349 218 c 1,24,25
 353 218 353 218 348 217.5 c 128,-1,26
 343 217 343 217 334 219 c 128,-1,27
 325 221 325 221 313.5 226.5 c 128,-1,28
 302 232 302 232 292 245 c 1,29,30
 291 239 291 239 282.5 230.5 c 128,-1,31
 274 222 274 222 263 216 c 128,-1,32
 252 210 252 210 239.5 206 c 128,-1,33
 227 202 227 202 217 202 c 0,34,35
 203 202 203 202 186.5 211 c 128,-1,36
 170 220 170 220 157 236 c 128,-1,37
 144 252 144 252 138.5 274 c 128,-1,38
 133 296 133 296 140 324 c 0,39,40
 143 337 143 337 151.5 354 c 128,-1,41
 160 371 160 371 173 386 c 128,-1,42
 186 401 186 401 206 411 c 128,-1,43
 226 421 226 421 252 421 c 0,44,45
 276 418 276 418 288.5 404.5 c 128,-1,46
 301 391 301 391 306 372.5 c 128,-1,47
 311 354 311 354 312.5 331.5 c 128,-1,48
 314 309 314 309 317.5 291.5 c 128,-1,49
 321 274 321 274 327.5 263.5 c 128,-1,50
 334 253 334 253 349 255 c 0,51,52
 364 258 364 258 374 275 c 128,-1,53
 384 292 384 292 386.5 315 c 128,-1,54
 389 338 389 338 383 364.5 c 128,-1,55
 377 391 377 391 359 413.5 c 128,-1,56
 341 436 341 436 312 450.5 c 128,-1,57
 283 465 283 465 239 465 c 0,58,59
 177 464 177 464 141.5 440 c 128,-1,60
 106 416 106 416 89.5 386 c 128,-1,61
 73 356 73 356 68 329 c 128,-1,62
 63 302 63 302 63 294 c 0,63,64
 62 277 62 277 67.5 253.5 c 128,-1,65
 73 230 73 230 84 207 c 128,-1,66
 95 184 95 184 114 164 c 128,-1,67
 133 144 133 144 162 133.5 c 128,-1,68
 191 123 191 123 230 124 c 128,-1,69
 269 125 269 125 321 145 c 0,70,71
 322 145 322 145 324 139 c 128,-1,72
 326 133 326 133 329 124 c 0,73,74
 333 114 333 114 337 101 c 1,75,76
 327 94 327 94 298.5 87.5 c 128,-1,77
 270 81 270 81 233 80 c 128,-1,78
 196 79 196 79 155.5 86.5 c 128,-1,79
 115 94 115 94 81 117.5 c 128,-1,80
 47 141 47 141 25 183 c 128,-1,81
 3 225 3 225 2 291 c 0,82,83
 3 368 3 368 34.5 412.5 c 128,-1,84
 66 457 66 457 106 479.5 c 128,-1,85
 146 502 146 502 184.5 507 c 128,-1,86
 223 512 223 512 238 510 c 0,12,13
EndSplineSet
EndChar

StartChar: A
Encoding: 65 65 33
AltUni2: 000430.ffffffff.0 0003b1.ffffffff.0 000061.ffffffff.0 000410.ffffffff.0 000391.ffffffff.0 000386.ffffffff.0 0003ac.ffffffff.0
Width: 507
GlyphClass: 2
Flags: W
AnchorPoint: "bottomattside" 404 4 basechar 0
AnchorPoint: "bottom" 230 5 basechar 0
AnchorPoint: "top" 212 699 basechar 0
LayerCount: 2
Fore
SplineSet
0 0 m 1,0,-1
 211 722 l 1,1,-1
 492 10 l 1,2,-1
 374 2 l 1,3,-1
 397 34 l 1,4,-1
 312 259 l 1,5,-1
 132 248 l 1,6,-1
 67 28 l 1,7,-1
 92 0 l 1,8,-1
 1 1 l 1,9,-1
 0 0 l 1,0,-1
292 312 m 1,10,-1
 205 543 l 1,11,-1
 143 301 l 1,12,-1
 292 312 l 1,10,-1
EndSplineSet
Substitution2: "mark-downsizer-1" A.mark
EndChar

StartChar: B
Encoding: 66 66 34
AltUni2: 000432.ffffffff.0 0003b2.ffffffff.0 000062.ffffffff.0 000412.ffffffff.0 000392.ffffffff.0
Width: 506
GlyphClass: 2
Flags: W
AnchorPoint: "bottomattside" 317 24 basechar 0
AnchorPoint: "bottom" 243 -15 basechar 0
AnchorPoint: "top" 220 701 basechar 0
LayerCount: 2
Fore
SplineSet
1 716 m 1,0,1
 24 716 24 716 59 716.5 c 128,-1,2
 94 717 94 717 133 715.5 c 128,-1,3
 172 714 172 714 212.5 706 c 128,-1,4
 253 698 253 698 285 683.5 c 128,-1,5
 317 669 317 669 338 642.5 c 128,-1,6
 359 616 359 616 361 577 c 0,7,8
 363 527 363 527 337 490.5 c 128,-1,9
 311 454 311 454 279 431 c 0,10,11
 240 406 240 406 202 397 c 1,12,13
 271 405 271 405 333 386 c 0,14,15
 360 376 360 376 385 360 c 128,-1,16
 410 344 410 344 431.5 314.5 c 128,-1,17
 453 285 453 285 462 256.5 c 128,-1,18
 471 228 471 228 470 194 c 0,19,20
 469 148 469 148 448.5 114.5 c 128,-1,21
 428 81 428 81 394.5 58.5 c 128,-1,22
 361 36 361 36 317.5 23 c 128,-1,23
 274 10 274 10 225 5 c 128,-1,24
 176 0 176 0 126 1 c 128,-1,25
 76 2 76 2 28 7 c 1,26,27
 28 26 28 26 27.5 36.5 c 128,-1,28
 27 47 27 47 27 52.5 c 128,-1,29
 27 58 27 58 27 59.5 c 128,-1,30
 27 61 27 61 27 63 c 2,31,-1
 53 58 l 2,32,33
 56 57 56 57 59 57 c 2,34,-1
 61 657 l 2,35,36
 60 657 60 657 51 657 c 128,-1,37
 42 657 42 657 30 656 c 2,38,-1
 0 654 l 1,39,-1
 1 716 l 1,0,1
120 416 m 1,40,41
 169 425 169 425 209 442 c 0,42,43
 226 450 226 450 243.5 461 c 128,-1,44
 261 472 261 472 274 488.5 c 128,-1,45
 287 505 287 505 293.5 526 c 128,-1,46
 300 547 300 547 299 573 c 0,47,48
 298 602 298 602 284 619 c 128,-1,49
 270 636 270 636 249 645 c 128,-1,50
 228 654 228 654 204.5 657 c 128,-1,51
 181 660 181 660 160 660 c 128,-1,52
 139 660 139 660 112 659 c 1,53,-1
 120 416 l 1,40,41
123 347 m 1,54,-1
 133 49 l 1,55,56
 167 48 167 48 206 50 c 0,57,58
 254 53 254 53 294.5 68.5 c 128,-1,59
 335 84 335 84 363.5 117.5 c 128,-1,60
 392 151 392 151 395 209 c 0,61,62
 395 251 395 251 375.5 277.5 c 128,-1,63
 356 304 356 304 325 320.5 c 128,-1,64
 294 337 294 337 256 342 c 128,-1,65
 218 347 218 347 186.5 348 c 128,-1,66
 155 349 155 349 133 348 c 2,67,-1
 123 347 l 1,54,-1
EndSplineSet
Substitution2: "mark-downsizer-1" B.mark
EndChar

StartChar: C
Encoding: 67 67 35
AltUni2: 000441.ffffffff.0 000063.ffffffff.0 000421.ffffffff.0
Width: 532
GlyphClass: 2
Flags: W
AnchorPoint: "bottomattside" 449 11 basechar 0
AnchorPoint: "bottom" 312 -31 basechar 0
AnchorPoint: "top" 268 706 basechar 0
LayerCount: 2
Fore
SplineSet
484 705 m 1,0,-1
 451 623 l 1,1,2
 347 650 347 650 265 632 c 0,3,4
 230 624 230 624 198 606 c 128,-1,5
 166 588 166 588 142 554.5 c 128,-1,6
 118 521 118 521 104.5 470 c 128,-1,7
 91 419 91 419 95 345 c 0,8,9
 98 266 98 266 114 214 c 128,-1,10
 130 162 130 162 153 129.5 c 128,-1,11
 176 97 176 97 205 81.5 c 128,-1,12
 234 66 234 66 264 61 c 0,13,14
 334 51 334 51 420 90 c 1,15,-1
 455 11 l 1,16,17
 326 -9 326 -9 226 19 c 0,18,19
 183 30 183 30 143.5 55 c 128,-1,20
 104 80 104 80 73.5 120 c 128,-1,21
 43 160 43 160 25 220.5 c 128,-1,22
 7 281 7 281 10 365 c 0,23,24
 14 451 14 451 53 519 c 128,-1,25
 92 587 92 587 156.5 632.5 c 128,-1,26
 221 678 221 678 306 697 c 128,-1,27
 391 716 391 716 484 705 c 1,0,-1
EndSplineSet
Substitution2: "mark-downsizer-1" C.mark
EndChar

StartChar: D
Encoding: 68 68 36
AltUni2: 000064.ffffffff.0
Width: 585
GlyphClass: 2
Flags: W
AnchorPoint: "bottom" 271 -10 basechar 0
AnchorPoint: "bottomattside" 387 57 basechar 0
AnchorPoint: "top" 250 708 basechar 0
LayerCount: 2
Fore
SplineSet
2 695 m 1,0,1
 130 719 130 719 239 699 c 0,2,3
 285 691 285 691 331 673 c 128,-1,4
 377 655 377 655 417 622.5 c 128,-1,5
 457 590 457 590 487 540 c 128,-1,6
 517 490 517 490 532 420 c 0,7,8
 548 327 548 327 535.5 260.5 c 128,-1,9
 523 194 523 194 491 146.5 c 128,-1,10
 459 99 459 99 412.5 71 c 128,-1,11
 366 43 366 43 315 28 c 0,12,13
 194 -9 194 -9 33 8 c 1,14,-1
 31 66 l 1,15,16
 51 63 51 63 71 60 c 1,17,-1
 71 644 l 1,18,-1
 8 635 l 1,19,-1
 2 695 l 1,0,1
138 56 m 1,20,21
 198 56 198 56 249 68 c 0,22,23
 290 77 290 77 328.5 97 c 128,-1,24
 367 117 367 117 398.5 151.5 c 128,-1,25
 430 186 430 186 446 238.5 c 128,-1,26
 462 291 462 291 457 366 c 0,27,28
 454 427 454 427 436.5 470.5 c 128,-1,29
 419 514 419 514 394 546.5 c 128,-1,30
 369 579 369 579 339.5 597.5 c 128,-1,31
 310 616 310 616 279 628 c 0,32,33
 208 654 208 654 125 647 c 1,34,-1
 138 56 l 1,20,21
EndSplineSet
Substitution2: "mark-downsizer-1" D.mark
EndChar

StartChar: E
Encoding: 69 69 37
AltUni2: 000435.ffffffff.0 0003b5.ffffffff.0 000065.ffffffff.0 000415.ffffffff.0 000395.ffffffff.0 000388.ffffffff.0 0003ad.ffffffff.0
Width: 509
GlyphClass: 2
Flags: W
AnchorPoint: "bottom" 236 -20 basechar 0
AnchorPoint: "bottomattside" 404 4 basechar 0
AnchorPoint: "top" 238 697 basechar 0
LayerCount: 2
Fore
SplineSet
0 717 m 1,0,-1
 474 710 l 1,1,-1
 473 589 l 1,2,3
 451 606 451 606 433 621.5 c 128,-1,4
 415 637 415 637 394 653 c 1,5,-1
 117 656 l 1,6,-1
 119 411 l 1,7,-1
 312 420 l 1,8,-1
 312 354 l 1,9,-1
 120 354 l 1,10,-1
 127 58 l 1,11,12
 357 62 357 62 358 63 c 0,13,14
 361 64 361 64 443 119 c 1,15,-1
 443 2 l 1,16,-1
 25 2 l 1,17,-1
 25 58 l 1,18,-1
 54 56 l 1,19,-1
 54 658 l 1,20,-1
 0 658 l 1,21,-1
 0 717 l 1,0,-1
EndSplineSet
Substitution2: "mark-downsizer-1" E.mark
EndChar

StartChar: F
Encoding: 70 70 38
AltUni2: 000066.ffffffff.0
Width: 513
GlyphClass: 2
Flags: W
AnchorPoint: "bottom" 92 -31 basechar 0
AnchorPoint: "bottomattside" 48 3 basechar 0
AnchorPoint: "top" 246 717 basechar 0
LayerCount: 2
Fore
SplineSet
0 715 m 1,0,-1
 482 713 l 1,1,-1
 479 577 l 1,2,3
 467 595 467 595 456 611 c 0,4,5
 447 624 447 624 437 637 c 128,-1,6
 427 650 427 650 420 652 c 0,7,8
 417 653 417 653 400.5 653.5 c 128,-1,9
 384 654 384 654 104 651 c 1,10,-1
 110 408 l 1,11,-1
 292 414 l 1,12,-1
 290 349 l 1,13,-1
 111 350 l 1,14,15
 120 58 120 58 121 55 c 0,16,17
 123 50 123 50 189 1 c 1,18,-1
 10 1 l 1,19,20
 49 38 49 38 50 42 c 0,21,22
 50 44 50 44 46 352 c 0,23,24
 42 650 42 650 45 654 c 1,25,-1
 2 654 l 1,26,-1
 0 715 l 1,0,-1
EndSplineSet
Substitution2: "mark-downsizer-1" F.mark
EndChar

StartChar: G
Encoding: 71 71 39
AltUni2: 000067.ffffffff.0
Width: 557
GlyphClass: 2
Flags: W
AnchorPoint: "bottom" 343 -26 basechar 0
AnchorPoint: "bottomattside" 504 17 basechar 0
AnchorPoint: "top" 281 686 basechar 0
LayerCount: 2
Fore
SplineSet
488 710 m 1,0,-1
 492 590 l 1,1,-1
 468 620 l 2,2,3
 459 632 459 632 450 641.5 c 128,-1,4
 441 651 441 651 436 652 c 0,5,6
 376 658 376 658 318 642 c 128,-1,7
 260 626 260 626 211.5 589 c 128,-1,8
 163 552 163 552 132.5 495 c 128,-1,9
 102 438 102 438 98 364 c 0,10,11
 93 292 93 292 111 231.5 c 128,-1,12
 129 171 129 171 172.5 129 c 128,-1,13
 216 87 216 87 278.5 67 c 128,-1,14
 341 47 341 47 428 61 c 1,15,-1
 401 347 l 1,16,-1
 215 339 l 1,17,-1
 212 399 l 1,18,-1
 455 403 l 1,19,-1
 504 17 l 5,20,21
 364 -11 364 -11 250 14 c 0,22,23
 202 24 202 24 156.5 47.5 c 128,-1,24
 111 71 111 71 77.5 112 c 128,-1,25
 44 153 44 153 26 214.5 c 128,-1,26
 8 276 8 276 15 366 c 0,27,28
 18 426 18 426 44 476.5 c 128,-1,29
 70 527 70 527 108 570.5 c 128,-1,30
 146 614 146 614 195 643 c 128,-1,31
 244 672 244 672 295.5 689.5 c 128,-1,32
 347 707 347 707 397 711 c 128,-1,33
 447 715 447 715 488 710 c 1,0,-1
EndSplineSet
Substitution2: "mark-downsizer-1" G.mark
EndChar

StartChar: H
Encoding: 72 72 40
AltUni2: 00043d.ffffffff.0 0003b7.ffffffff.0 000068.ffffffff.0 00041d.ffffffff.0 000397.ffffffff.0 000389.ffffffff.0 0003ae.ffffffff.0
Width: 534
GlyphClass: 2
Flags: W
AnchorPoint: "bottom" 241 -15 basechar 0
AnchorPoint: "bottomattside" 402 5 basechar 0
AnchorPoint: "top" 251 727 basechar 0
LayerCount: 2
Fore
SplineSet
372 3 m 1,0,1
 386 20 386 20 399 44 c 1,2,3
 400 126 400 126 395 233 c 1,4,-1
 73 220 l 1,5,-1
 71 1 l 1,6,-1
 2 1 l 1,7,-1
 1 713 l 1,8,-1
 112 717 l 2,9,10
 108 715 108 715 81 663 c 0,11,12
 76 646 76 646 73 273 c 1,13,-1
 392 282 l 1,14,-1
 373 706 l 1,15,-1
 446 710 l 1,16,-1
 475 2 l 1,17,-1
 372 3 l 1,0,1
112 717 m 2,18,-1
 113 717 l 2,19,20
 112 717 112 717 112 717 c 2,18,-1
EndSplineSet
Substitution2: "mark-downsizer-1" H.mark
EndChar

StartChar: I
Encoding: 73 73 41
AltUni2: 000456.ffffffff.0 0003b9.ffffffff.0 000131.ffffffff.0 000399.ffffffff.0 000406.ffffffff.0 00038a.ffffffff.0 0003af.ffffffff.0
Width: 221
GlyphClass: 2
Flags: W
AnchorPoint: "top" 82 712 basechar 0
AnchorPoint: "bottom" 82 -20 basechar 0
AnchorPoint: "bottomattside" 40 2 basechar 0
LayerCount: 2
Fore
SplineSet
2 716 m 1,0,-1
 141 716 l 1,1,2
 132 708 132 708 125 700 c 0,3,4
 120 694 120 694 114 688 c 128,-1,5
 108 682 108 682 106 678 c 0,6,7
 106 677 106 677 108.5 367.5 c 128,-1,8
 111 58 111 58 112 57 c 0,9,10
 114 54 114 54 173 2 c 1,11,-1
 4 0 l 1,12,13
 33 28 33 28 38 38 c 0,14,15
 40 42 40 42 42.5 354 c 128,-1,16
 45 666 45 666 45 669 c 0,17,18
 42 674 42 674 36 681.5 c 128,-1,19
 30 689 30 689 2 716 c 1,0,-1
EndSplineSet
Substitution2: "mark-downsizer-1" I.mark
EndChar

StartChar: J
Encoding: 74 74 42
AltUni2: 00006a.ffffffff.0 000237.ffffffff.0
Width: 364
GlyphClass: 2
Flags: W
AnchorPoint: "bottom" 159 -15 basechar 0
AnchorPoint: "bottomattside" 234 27 basechar 0
AnchorPoint: "top" 215 707 basechar 0
LayerCount: 2
Fore
SplineSet
264 716 m 1,0,1
 277 614 277 614 284 565.5 c 128,-1,2
 291 517 291 517 297 456 c 128,-1,3
 303 395 303 395 307 332 c 128,-1,4
 311 269 311 269 307.5 207.5 c 128,-1,5
 304 146 304 146 285 100 c 128,-1,6
 266 54 266 54 235 26.5 c 128,-1,7
 204 -1 204 -1 157 1 c 0,8,9
 127 2 127 2 106 14.5 c 128,-1,10
 85 27 85 27 68 45 c 128,-1,11
 51 63 51 63 40 87 c 128,-1,12
 29 111 29 111 20 134 c 0,13,14
 3 190 3 190 0 261 c 1,15,-1
 68 258 l 1,16,17
 68 244 68 244 70 210 c 128,-1,18
 72 176 72 176 80.5 144 c 128,-1,19
 89 112 89 112 115 86 c 128,-1,20
 141 60 141 60 169 65 c 0,21,22
 209 70 209 70 227.5 101.5 c 128,-1,23
 246 133 246 133 249.5 175.5 c 128,-1,24
 253 218 253 218 250.5 271.5 c 128,-1,25
 248 325 248 325 242 378 c 0,26,27
 227 508 227 508 190 714 c 1,28,-1
 264 716 l 1,0,1
EndSplineSet
Substitution2: "mark-downsizer-1" J.mark
EndChar

StartChar: K
Encoding: 75 75 43
AltUni2: 00043a.ffffffff.0 0003ba.ffffffff.0 00006b.ffffffff.0 00041a.ffffffff.0 00039a.ffffffff.0
Width: 522
GlyphClass: 2
Flags: W
AnchorPoint: "bottom" 256 -5 basechar 0
AnchorPoint: "bottomattside" 456 71 basechar 0
AnchorPoint: "top" 261 686 basechar 0
LayerCount: 2
Fore
SplineSet
0 716 m 1,0,-1
 144 714 l 1,1,-1
 115 693 l 2,2,3
 84 671 84 671 84 670 c 2,4,-1
 89 481 l 1,5,-1
 394 682 l 1,6,-1
 440 640 l 1,7,-1
 183 488 l 1,8,-1
 500 105 l 1,9,-1
 435 52 l 1,10,-1
 136 459 l 1,11,-1
 87 429 l 1,12,-1
 97 44 l 2,13,14
 98 41 98 41 125 23 c 2,15,-1
 153 4 l 1,16,-1
 3 0 l 1,17,18
 28 42 28 42 28 43 c 2,19,-1
 26 364 l 2,20,21
 24 685 24 685 24 686 c 1,22,23
 23 686 23 686 0 716 c 1,0,-1
EndSplineSet
Substitution2: "mark-downsizer-1" K.mark
EndChar

StartChar: L
Encoding: 76 76 44
AltUni2: 00006c.ffffffff.0
Width: 498
GlyphClass: 2
Flags: W
AnchorPoint: "bottom" 246 -26 basechar 0
AnchorPoint: "bottomattside" 457 3 basechar 0
AnchorPoint: "top" 83 745 basechar 0
LayerCount: 2
Fore
SplineSet
0 717 m 1,0,-1
 156 717 l 1,1,2
 118 692 118 692 111 684.5 c 128,-1,3
 104 677 104 677 103 675 c 0,4,5
 102 674 102 674 101 645.5 c 128,-1,6
 100 617 100 617 99 56 c 1,7,8
 404 63 404 63 408 67 c 0,9,10
 413 68 413 68 459 126 c 1,11,-1
 458 1 l 1,12,-1
 33 -1 l 1,13,-1
 29 691 l 1,14,15
 15 703 15 703 0 717 c 1,0,-1
EndSplineSet
Substitution2: "mark-downsizer-1" L.mark
EndChar

StartChar: M
Encoding: 77 77 45
AltUni2: 00043c.ffffffff.0 0003bc.ffffffff.0 00006d.ffffffff.0 00041c.ffffffff.0 00039c.ffffffff.0
Width: 622
GlyphClass: 2
Flags: W
AnchorPoint: "bottom" 312 0 basechar 0
AnchorPoint: "bottomattside" 506 33 basechar 0
AnchorPoint: "top" 323 676 basechar 0
LayerCount: 2
Fore
SplineSet
10 716 m 1,0,-1
 141 713 l 1,1,-1
 326 305 l 1,2,-1
 504 672 l 1,3,-1
 568 676 l 1,4,-1
 567 32 l 1,5,-1
 446 31 l 1,6,7
 457 36 457 36 468 41 c 0,8,9
 476 45 476 45 497 58 c 0,10,11
 498 59 498 59 500 558 c 1,12,-1
 305 166 l 1,13,-1
 97 621 l 1,14,15
 107 36 107 36 110 35 c 0,16,17
 112 32 112 32 126 25.5 c 128,-1,18
 140 19 140 19 185 1 c 1,19,-1
 1 1 l 1,20,21
 13 10 13 10 26 19 c 0,22,23
 35 27 35 27 43 35 c 128,-1,24
 51 43 51 43 52 47 c 0,25,26
 52 50 52 50 49.5 358 c 128,-1,27
 47 666 47 666 46 667 c 0,28,29
 44 670 44 670 38.5 678 c 128,-1,30
 33 686 33 686 27 695 c 0,31,32
 19 706 19 706 10 716 c 1,0,-1
EndSplineSet
Substitution2: "mark-downsizer-1" M.mark
EndChar

StartChar: N
Encoding: 78 78 46
AltUni2: 0003bd.ffffffff.0 00006e.ffffffff.0 00039d.ffffffff.0
Width: 542
GlyphClass: 2
Flags: W
AnchorPoint: "bottom" 266 -10 basechar 0
AnchorPoint: "bottomattside" 487 26 basechar 0
AnchorPoint: "top" 222 703 basechar 0
LayerCount: 2
Fore
SplineSet
6 676 m 1,0,-1
 82 679 l 1,1,-1
 433 204 l 1,2,3
 427 673 427 673 426 676 c 0,4,5
 423 679 423 679 416 686 c 128,-1,6
 409 693 409 693 400 700 c 2,7,-1
 379 715 l 1,8,-1
 482 716 l 1,9,-1
 488 2 l 1,10,-1
 65 566 l 1,11,12
 84 49 84 49 85 44 c 0,13,14
 88 39 88 39 96 31 c 128,-1,15
 104 23 104 23 114 16 c 0,16,17
 125 8 125 8 138 1 c 1,18,-1
 0 1 l 1,19,-1
 29 34 l 1,20,-1
 6 676 l 1,0,-1
EndSplineSet
Substitution2: "mark-downsizer-1" N.mark
EndChar

StartChar: O
Encoding: 79 79 47
AltUni2: 00043e.ffffffff.0 00006f.ffffffff.0 00041e.ffffffff.0 00039f.ffffffff.0 0003bf.ffffffff.0 00038c.ffffffff.0 0003cc.ffffffff.0
Width: 654
GlyphClass: 2
Flags: W
AnchorPoint: "bottom" 323 -20 basechar 0
AnchorPoint: "bottomattside" 406 19 basechar 0
AnchorPoint: "top" 298 706 basechar 0
LayerCount: 2
Fore
SplineSet
531 352 m 4,0,1
 536 425 536 425 523.5 477 c 132,-1,2
 511 529 511 529 488 566 c 132,-1,3
 465 603 465 603 437.5 626 c 132,-1,4
 410 649 410 649 378 662 c 132,-1,5
 346 675 346 675 307 676 c 4,6,7
 302 676 302 676 286 675.5 c 132,-1,8
 270 675 270 675 249 670.5 c 132,-1,9
 228 666 228 666 206 654 c 132,-1,10
 184 642 184 642 160.5 620 c 132,-1,11
 137 598 137 598 119.5 555 c 132,-1,12
 102 512 102 512 95 450 c 4,13,14
 84 356 84 356 101.5 279.5 c 132,-1,15
 119 203 119 203 152.5 149 c 132,-1,16
 186 95 186 95 231 67 c 132,-1,17
 276 39 276 39 321 41 c 4,18,19
 344 41 344 41 376.5 49.5 c 132,-1,20
 409 58 409 58 440.5 89 c 132,-1,21
 472 120 472 120 497.5 181.5 c 132,-1,22
 523 243 523 243 531 352 c 4,0,1
304 718 m 4,23,24
 387 717 387 717 455 686 c 4,25,26
 485 674 485 674 512.5 652.5 c 132,-1,27
 540 631 540 631 563 597.5 c 132,-1,28
 586 564 586 564 600 517.5 c 132,-1,29
 614 471 614 471 617 411 c 4,30,31
 618 310 618 310 592.5 234 c 132,-1,32
 567 158 567 158 524 106.5 c 132,-1,33
 481 55 481 55 426.5 28.5 c 132,-1,34
 372 2 372 2 314.5 1 c 132,-1,35
 257 0 257 0 200 21.5 c 132,-1,36
 143 43 143 43 98.5 89.5 c 132,-1,37
 54 136 54 136 28.5 209 c 132,-1,38
 3 282 3 282 9 382 c 4,39,40
 13 476 13 476 40.5 537.5 c 132,-1,41
 68 599 68 599 103.5 636 c 132,-1,42
 139 673 139 673 187.5 695 c 132,-1,43
 236 717 236 717 304 718 c 4,23,24
EndSplineSet
Substitution2: "mark-downsizer-1" O.mark
EndChar

StartChar: P
Encoding: 80 80 48
AltUni2: 000440.ffffffff.0 000070.ffffffff.0 000420.ffffffff.0 0003a1.ffffffff.0 0003c1.ffffffff.0
Width: 495
GlyphClass: 2
Flags: W
AnchorPoint: "bottom" 108 -20 basechar 0
AnchorPoint: "bottomattside" 71 6 basechar 0
AnchorPoint: "top" 256 701 basechar 0
LayerCount: 2
Fore
SplineSet
1 706 m 1,0,1
 127 719 127 719 227 712 c 0,2,3
 270 708 270 708 310.5 698 c 128,-1,4
 351 688 351 688 383.5 672 c 128,-1,5
 416 656 416 656 436 631.5 c 128,-1,6
 456 607 456 607 456 572 c 0,7,8
 456 526 456 526 438 495.5 c 128,-1,9
 420 465 420 465 390 445.5 c 128,-1,10
 360 426 360 426 323.5 417 c 128,-1,11
 287 408 287 408 249 403 c 0,12,13
 212 399 212 399 123 395 c 1,14,15
 135 66 135 66 135 66 c 0,16,17
 137 64 137 64 146 54.5 c 128,-1,18
 155 45 155 45 165 36 c 0,19,20
 177 24 177 24 191 10 c 1,21,-1
 31 3 l 1,22,23
 39 10 39 10 45 15 c 0,24,25
 51 21 51 21 55.5 26 c 128,-1,26
 60 31 60 31 61 33 c 0,27,28
 61 35 61 35 56 653 c 1,29,-1
 4 647 l 1,30,-1
 1 706 l 1,0,1
122 436 m 1,31,32
 200 434 200 434 258 449 c 0,33,34
 284 455 284 455 308 464 c 128,-1,35
 332 473 332 473 350 486.5 c 128,-1,36
 368 500 368 500 376.5 518 c 128,-1,37
 385 536 385 536 382 560 c 0,38,39
 374 606 374 606 341 628.5 c 128,-1,40
 308 651 308 651 266.5 659.5 c 128,-1,41
 225 668 225 668 182.5 665.5 c 128,-1,42
 140 663 140 663 114 659 c 1,43,44
 118 535 118 535 122 436 c 1,31,32
EndSplineSet
Substitution2: "mark-downsizer-1" P.mark
EndChar

StartChar: Q
Encoding: 81 81 49
AltUni2: 000071.ffffffff.0
Width: 638
GlyphClass: 2
Flags: W
AnchorPoint: "bottom" 307 -20 basechar 0
AnchorPoint: "bottomattside" 398 22 basechar 0
AnchorPoint: "top" 317 712 basechar 0
LayerCount: 2
Fore
SplineSet
459 102 m 1,0,1
 481 129 481 129 496.5 170.5 c 128,-1,2
 512 212 512 212 519 274 c 0,3,4
 529 367 529 367 511 442 c 128,-1,5
 493 517 493 517 459 570.5 c 128,-1,6
 425 624 425 624 380 651.5 c 128,-1,7
 335 679 335 679 293 677 c 0,8,9
 270 676 270 676 243 666.5 c 128,-1,10
 216 657 216 657 179.5 626.5 c 128,-1,11
 143 596 143 596 118.5 535 c 128,-1,12
 94 474 94 474 87 367 c 0,13,14
 84 295 84 295 97.5 243 c 128,-1,15
 111 191 111 191 133.5 155.5 c 128,-1,16
 156 120 156 120 184 97.5 c 128,-1,17
 212 75 212 75 237.5 63 c 128,-1,18
 263 51 263 51 283.5 46.5 c 128,-1,19
 304 42 304 42 309 42 c 0,20,21
 318 40 318 40 346 42 c 128,-1,22
 374 44 374 44 408 61 c 1,23,-1
 299 190 l 1,24,-1
 340 222 l 1,25,-1
 459 102 l 1,0,1
603 344 m 0,26,27
 598 235 598 235 566 170.5 c 128,-1,28
 534 106 534 106 490 71 c 1,29,-1
 569 -8 l 1,30,-1
 508 -58 l 1,31,-1
 431 34 l 1,32,33
 409 25 409 25 390.5 19 c 128,-1,34
 372 13 372 13 356.5 11 c 128,-1,35
 341 9 341 9 331 8.5 c 128,-1,36
 321 8 321 8 316 8 c 0,37,38
 311 8 311 8 286 8.5 c 128,-1,39
 261 9 261 9 228 17 c 128,-1,40
 195 25 195 25 157 42 c 128,-1,41
 119 59 119 59 86 92 c 128,-1,42
 53 125 53 125 30 177 c 128,-1,43
 7 229 7 229 3 307 c 0,44,45
 1 406 1 406 25.5 482.5 c 128,-1,46
 50 559 50 559 91.5 609.5 c 128,-1,47
 133 660 133 660 187.5 687 c 128,-1,48
 242 714 242 714 298 716 c 0,49,50
 354 717 354 717 411 696.5 c 128,-1,51
 468 676 468 676 512 630 c 128,-1,52
 556 584 556 584 582 512.5 c 128,-1,53
 608 441 608 441 603 344 c 0,26,27
EndSplineSet
Substitution2: "mark-downsizer-1" Q.mark
EndChar

StartChar: R
Encoding: 82 82 50
AltUni2: 000072.ffffffff.0
Width: 614
GlyphClass: 2
Flags: W
AnchorPoint: "bottom" 307 0 basechar 0
AnchorPoint: "bottomattside" 546 52 basechar 0
AnchorPoint: "top" 238 697 basechar 0
LayerCount: 2
Fore
SplineSet
125 358 m 1,0,1
 212 360 212 360 282 376 c 0,2,3
 311 383 311 383 343.5 396 c 128,-1,4
 376 409 376 409 396.5 427.5 c 128,-1,5
 417 446 417 446 430 471.5 c 128,-1,6
 443 497 443 497 441 531 c 0,7,8
 437 565 437 565 420 589 c 128,-1,9
 403 613 403 613 380 628.5 c 128,-1,10
 357 644 357 644 327.5 652 c 128,-1,11
 298 660 298 660 261 666 c 0,12,13
 190 672 190 672 109 662 c 1,14,-1
 125 358 l 1,0,1
590 86 m 1,15,-1
 525 34 l 1,16,17
 468 121 468 121 424 189 c 0,18,19
 402 220 402 220 383.5 247.5 c 128,-1,20
 365 275 365 275 349 298 c 0,21,22
 334 324 334 324 318 342 c 1,23,24
 310 340 310 340 282.5 335 c 128,-1,25
 255 330 255 330 219 325 c 0,26,27
 176 319 176 319 129 315 c 1,28,29
 142 76 142 76 142 75 c 0,30,31
 142 72 142 72 151.5 61 c 128,-1,32
 161 50 161 50 173 37 c 0,33,34
 185 23 185 23 202 7 c 1,35,-1
 47 1 l 1,36,37
 55 12 55 12 61 24 c 0,38,39
 67 33 67 33 71.5 39.5 c 128,-1,40
 76 46 76 46 76 48 c 128,-1,41
 76 50 76 50 52 657 c 1,42,-1
 6 653 l 1,43,-1
 0 714 l 1,44,45
 50 716 50 716 107 717 c 128,-1,46
 164 718 164 718 221.5 716 c 128,-1,47
 279 714 279 714 331.5 705 c 128,-1,48
 384 696 384 696 425 674.5 c 128,-1,49
 466 653 466 653 491 618 c 128,-1,50
 516 583 516 583 518 527 c 0,51,52
 518 473 518 473 494 440.5 c 128,-1,53
 470 408 470 408 441 389 c 0,54,55
 407 369 407 369 365 355 c 1,56,-1
 590 86 l 1,15,-1
EndSplineSet
Substitution2: "mark-downsizer-1" R.mark
EndChar

StartChar: S
Encoding: 83 83 51
AltUni2: 00017f.ffffffff.0 000073.ffffffff.0
Width: 389
GlyphClass: 2
Flags: W
AnchorPoint: "bottom" 209 -3 basechar 0
AnchorPoint: "bottomattside" 295 44 basechar 0
AnchorPoint: "top" 170 680 basechar 0
LayerCount: 2
Fore
SplineSet
339 715 m 1,0,-1
 339 647 l 1,1,2
 327 651 327 651 308.5 655 c 128,-1,3
 290 659 290 659 274 659.5 c 128,-1,4
 258 660 258 660 228 654.5 c 128,-1,5
 198 649 198 649 168 629.5 c 128,-1,6
 138 610 138 610 110 579 c 128,-1,7
 82 548 82 548 80 488 c 0,8,9
 80 448 80 448 104.5 416.5 c 128,-1,10
 129 385 129 385 157 365 c 128,-1,11
 185 345 185 345 218 326 c 128,-1,12
 251 307 251 307 280 284 c 128,-1,13
 309 261 309 261 329 231 c 128,-1,14
 349 201 349 201 350 157 c 0,15,16
 351 122 351 122 339 96.5 c 128,-1,17
 327 71 327 71 306.5 53 c 128,-1,18
 286 35 286 35 259 24.5 c 128,-1,19
 232 14 232 14 205 9 c 0,20,21
 139 -3 139 -3 54 4 c 1,22,-1
 77 123 l 1,23,24
 83 108 83 108 87 94 c 0,25,26
 92 83 92 83 96.5 72.5 c 128,-1,27
 101 62 101 62 105 57 c 0,28,29
 108 54 108 54 125.5 52 c 128,-1,30
 143 50 143 50 165.5 52.5 c 128,-1,31
 188 55 188 55 213 64 c 128,-1,32
 238 73 238 73 254 90.5 c 128,-1,33
 270 108 270 108 273 136.5 c 128,-1,34
 276 165 276 165 257 208 c 1,35,36
 235 243 235 243 210 265 c 128,-1,37
 185 287 185 287 157.5 303 c 128,-1,38
 130 319 130 319 103.5 333 c 128,-1,39
 77 347 77 347 55.5 364.5 c 128,-1,40
 34 382 34 382 19 406 c 128,-1,41
 4 430 4 430 3 468 c 0,42,43
 1 525 1 525 27.5 571.5 c 128,-1,44
 54 618 54 618 100.5 650.5 c 128,-1,45
 147 683 147 683 208 700 c 128,-1,46
 269 717 269 717 339 715 c 1,0,-1
EndSplineSet
Substitution2: "mark-downsizer-1" S.mark
EndChar

StartChar: T
Encoding: 84 84 52
AltUni2: 000442.ffffffff.0 0003c4.ffffffff.0 000074.ffffffff.0 000422.ffffffff.0 0003a4.ffffffff.0
Width: 563
GlyphClass: 2
Flags: W
AnchorPoint: "bottom" 254 -10 basechar 0
AnchorPoint: "bottomattside" 205 3 basechar 0
AnchorPoint: "top" 246 694 basechar 0
LayerCount: 2
Fore
SplineSet
525 715 m 1,0,-1
 527 598 l 1,1,2
 520 609 520 609 513 622 c 0,3,4
 508 631 508 631 501.5 639.5 c 128,-1,5
 495 648 495 648 489 651 c 0,6,7
 483 655 483 655 275 650 c 1,8,9
 294 64 294 64 295 62 c 0,10,11
 296 56 296 56 317 32 c 2,12,-1
 343 0 l 1,13,-1
 150 1 l 1,14,15
 193 28 193 28 203 36 c 128,-1,16
 213 44 213 44 218 48 c 0,17,18
 222 53 222 53 209 649 c 1,19,20
 53 648 53 648 49 647 c 2,21,-1
 28 625 l 2,22,23
 16 611 16 611 1 594 c 1,24,-1
 2 694 l 1,25,-1
 525 715 l 1,0,-1
EndSplineSet
Substitution2: "mark-downsizer-1" T.mark
EndChar

StartChar: U
Encoding: 85 85 53
AltUni2: 000075.ffffffff.0
Width: 552
GlyphClass: 2
Flags: W
AnchorPoint: "bottom" 302 -26 basechar 0
AnchorPoint: "bottomattside" 414 40 basechar 0
AnchorPoint: "top" 238 719 basechar 0
LayerCount: 2
Fore
SplineSet
1 716 m 1,0,-1
 134 713 l 1,1,2
 124 699 124 699 115 686 c 0,3,4
 107 674 107 674 100 662.5 c 128,-1,5
 93 651 93 651 92 643 c 0,6,7
 92 580 92 580 93.5 515 c 128,-1,8
 95 450 95 450 101.5 388 c 128,-1,9
 108 326 108 326 120 269 c 128,-1,10
 132 212 132 212 152.5 168 c 128,-1,11
 173 124 173 124 207.5 96 c 128,-1,12
 242 68 242 68 288 60 c 0,13,14
 332 55 332 55 361.5 94 c 128,-1,15
 391 133 391 133 407.5 196 c 128,-1,16
 424 259 424 259 426.5 335 c 128,-1,17
 429 411 429 411 428 478.5 c 128,-1,18
 427 546 427 546 419.5 596 c 128,-1,19
 412 646 412 646 401 657 c 0,20,21
 400 659 400 659 393 666 c 128,-1,22
 386 673 386 673 378 680 c 2,23,-1
 357 698 l 1,24,-1
 429 698 l 1,25,-1
 500 699 l 1,26,27
 501 627 501 627 503.5 545 c 128,-1,28
 506 463 506 463 503.5 382 c 128,-1,29
 501 301 501 301 491 227.5 c 128,-1,30
 481 154 481 154 456 100.5 c 128,-1,31
 431 47 431 47 389 20.5 c 128,-1,32
 347 -6 347 -6 283 5 c 0,33,34
 207 19 207 19 159 65.5 c 128,-1,35
 111 112 111 112 81.5 175 c 128,-1,36
 52 238 52 238 39 312 c 128,-1,37
 26 386 26 386 21 455.5 c 128,-1,38
 16 525 16 525 16 584.5 c 128,-1,39
 16 644 16 644 13 677 c 1,40,-1
 6 700 l 2,41,42
 3 708 3 708 1 716 c 1,0,-1
EndSplineSet
Substitution2: "mark-downsizer-1" U.mark
EndChar

StartChar: V
Encoding: 86 86 54
AltUni2: 000076.ffffffff.0
Width: 549
GlyphClass: 2
Flags: W
AnchorPoint: "bottom" 292 -20 basechar 0
AnchorPoint: "bottomattside" 311 45 basechar 0
AnchorPoint: "top" 297 701 basechar 0
LayerCount: 2
Fore
SplineSet
3 705 m 1,0,-1
 155 716 l 1,1,2
 141 700 141 700 131 687 c 0,3,4
 120 675 120 675 108 653 c 0,5,6
 108 651 108 651 296 174 c 1,7,-1
 445 709 l 1,8,-1
 513 709 l 1,9,-1
 298 1 l 1,10,-1
 3 705 l 1,0,-1
EndSplineSet
Substitution2: "mark-downsizer-1" V.mark
EndChar

StartChar: W
Encoding: 87 87 55
AltUni2: 000077.ffffffff.0
Width: 691
GlyphClass: 2
Flags: W
AnchorPoint: "bottom" 338 -15 basechar 0
AnchorPoint: "bottomattside" 497 8 basechar 0
AnchorPoint: "top" 328 676 basechar 0
LayerCount: 2
Fore
SplineSet
0 705 m 1,0,-1
 119 705 l 1,1,-1
 85 677 l 2,2,3
 79 669 79 669 78 665 c 2,4,-1
 184 104 l 1,5,-1
 345 482 l 1,6,-1
 495 128 l 1,7,8
 565 578 565 578 566 599.5 c 128,-1,9
 567 621 567 621 565 623 c 0,10,11
 563 628 563 628 554 636 c 128,-1,12
 545 644 545 644 535 652 c 0,13,14
 522 661 522 661 506 671 c 1,15,-1
 664 675 l 1,16,17
 659 666 659 666 652 652 c 0,18,19
 646 640 646 640 642 621 c 2,20,-1
 536 7 l 1,21,-1
 466 6 l 1,22,-1
 340 342 l 1,23,-1
 204 4 l 1,24,-1
 133 2 l 1,25,-1
 0 705 l 1,0,-1
EndSplineSet
Substitution2: "mark-downsizer-1" W.mark
EndChar

StartChar: X
Encoding: 88 88 56
AltUni2: 000445.ffffffff.0 000078.ffffffff.0 000425.ffffffff.0 0003a7.ffffffff.0 0003c7.ffffffff.0
Width: 574
GlyphClass: 2
Flags: W
AnchorPoint: "bottom" 276 10 basechar 0
AnchorPoint: "bottomattside" 505 17 basechar 0
AnchorPoint: "top" 292 686 basechar 0
LayerCount: 2
Fore
SplineSet
482 2 m 1,0,-1
 264 325 l 1,1,-1
 56 27 l 1,2,-1
 1 59 l 1,3,-1
 230 378 l 1,4,-1
 30 677 l 1,5,-1
 104 717 l 1,6,-1
 280 437 l 1,7,-1
 442 686 l 1,8,-1
 501 666 l 1,9,-1
 314 387 l 1,10,-1
 551 48 l 1,11,-1
 482 2 l 1,0,-1
EndSplineSet
Substitution2: "mark-downsizer-1" X.mark
EndChar

StartChar: Y
Encoding: 89 89 57
AltUni2: 0003c5.ffffffff.0 000079.ffffffff.0 0003a5.ffffffff.0 00038e.ffffffff.0 0003cd.ffffffff.0
Width: 563
GlyphClass: 2
Flags: W
AnchorPoint: "bottom" 282 -31 basechar 0
AnchorPoint: "bottomattside" 240 3 basechar 0
AnchorPoint: "top" 265 712 basechar 0
LayerCount: 2
Fore
SplineSet
0 716 m 1,0,-1
 120 711 l 1,1,-1
 105 699 l 2,2,3
 100 695 100 695 96 690 c 128,-1,4
 92 685 92 685 91 683 c 0,5,6
 91 681 91 681 265 413 c 1,7,8
 429 665 429 665 428 667 c 0,9,10
 426 671 426 671 420 677 c 128,-1,11
 414 683 414 683 407 690 c 0,12,13
 399 698 399 698 388 708 c 1,14,-1
 549 701 l 1,15,-1
 502 658 l 1,16,-1
 304 355 l 1,17,-1
 323 36 l 1,18,-1
 367 1 l 1,19,-1
 182 1 l 1,20,21
 224 26 224 26 234.5 34 c 128,-1,22
 245 42 245 42 247 47 c 0,23,24
 248 50 248 50 248 65.5 c 128,-1,25
 248 81 248 81 248 104.5 c 128,-1,26
 248 128 248 128 247 156.5 c 128,-1,27
 246 185 246 185 245 215 c 0,28,29
 241 285 241 285 238 361 c 1,30,31
 147 505 147 505 118.5 547 c 128,-1,32
 90 589 90 589 65 624 c 128,-1,33
 40 659 40 659 21.5 685 c 128,-1,34
 3 711 3 711 0 716 c 1,0,-1
EndSplineSet
Substitution2: "mark-downsizer-1" Y.mark
EndChar

StartChar: Z
Encoding: 90 90 58
AltUni2: 0003b6.ffffffff.0 00007a.ffffffff.0 000396.ffffffff.0
Width: 523
GlyphClass: 2
Flags: W
AnchorPoint: "bottom" 241 -15 basechar 0
AnchorPoint: "bottomattside" 486 7 basechar 0
AnchorPoint: "top" 230 705 basechar 0
LayerCount: 2
Fore
SplineSet
460 711 m 1,0,-1
 104 84 l 1,1,2
 417 78 417 78 420 79 c 0,3,4
 447 99 447 99 459 110 c 0,5,6
 472 122 472 122 485 137 c 1,7,-1
 486 4 l 1,8,-1
 1 19 l 1,9,-1
 361 645 l 1,10,-1
 102 629 l 1,11,12
 86 620 86 620 70 599 c 0,13,14
 52 582 52 582 33 560 c 1,15,-1
 30 692 l 1,16,-1
 460 711 l 1,0,-1
EndSplineSet
Substitution2: "mark-downsizer-1" Z.mark
EndChar

StartChar: bracketleft
Encoding: 91 91 59
Width: 185
GlyphClass: 2
Flags: W
LayerCount: 2
Fore
SplineSet
131 714 m 1,0,-1
 131 641 l 1,1,-1
 63 641 l 1,2,-1
 74 47 l 1,3,-1
 153 55 l 1,4,-1
 153 6 l 1,5,-1
 36 1 l 1,6,-1
 1 686 l 1,7,-1
 131 714 l 1,0,-1
EndSplineSet
EndChar

StartChar: backslash
Encoding: 92 92 60
Width: 297
GlyphClass: 2
Flags: W
LayerCount: 2
Fore
SplineSet
261 75 m 1,0,-1
 227 63 l 1,1,-1
 9 563 l 1,2,-1
 71 573 l 1,3,-1
 261 75 l 1,0,-1
EndSplineSet
EndChar

StartChar: bracketright
Encoding: 93 93 61
Width: 194
GlyphClass: 2
Flags: W
LayerCount: 2
Fore
SplineSet
32 0 m 1,0,-1
 31 74 l 1,1,-1
 95 75 l 1,2,-1
 79 670 l 1,3,-1
 3 658 l 1,4,-1
 1 706 l 1,5,-1
 110 716 l 1,6,-1
 155 31 l 1,7,-1
 32 0 l 1,0,-1
EndSplineSet
EndChar

StartChar: asciicircum
Encoding: 94 94 62
Width: 220
GlyphClass: 2
Flags: W
LayerCount: 2
Fore
SplineSet
2 519 m 1,0,-1
 72 669 l 1,1,-1
 170 556 l 1,2,-1
 152 544 l 1,3,-1
 76 636 l 1,4,-1
 36 505 l 1,5,-1
 2 519 l 1,0,-1
EndSplineSet
EndChar

StartChar: underscore
Encoding: 95 95 63
Width: 368
GlyphClass: 2
Flags: W
LayerCount: 2
Fore
SplineSet
3 -15 m 1,0,-1
 318 1 l 1,1,-1
 315 -53 l 1,2,-1
 7 -47 l 1,3,-1
 3 -15 l 1,0,-1
EndSplineSet
EndChar

StartChar: grave
Encoding: 96 96 64
Width: 152
GlyphClass: 2
Flags: W
LayerCount: 2
Fore
SplineSet
62 805 m 1,0,-1
 114 738 l 1,1,-1
 103 730 l 1,2,-1
 45 788 l 1,3,-1
 62 805 l 1,0,-1
EndSplineSet
EndChar

StartChar: braceleft
Encoding: 123 123 65
Width: 254
GlyphClass: 2
Flags: W
LayerCount: 2
Fore
SplineSet
150 714 m 0,0,1
 151 712 151 712 152.5 702.5 c 128,-1,2
 154 693 154 693 156 681 c 2,3,-1
 160 648 l 1,4,5
 129 648 129 648 104 639 c 0,6,7
 84 631 84 631 66.5 614 c 128,-1,8
 49 597 49 597 49 563 c 128,-1,9
 49 529 49 529 58 498.5 c 128,-1,10
 67 468 67 468 78 442 c 128,-1,11
 89 416 89 416 97.5 395 c 128,-1,12
 106 374 106 374 104 360 c 0,13,14
 102 333 102 333 90 322 c 128,-1,15
 78 311 78 311 72 307 c 1,16,17
 74 303 74 303 77.5 302 c 128,-1,18
 81 301 81 301 84 297 c 128,-1,19
 87 293 87 293 90 283.5 c 128,-1,20
 93 274 93 274 96 256 c 0,21,22
 98 243 98 243 97 223 c 128,-1,23
 96 203 96 203 96 179.5 c 128,-1,24
 96 156 96 156 99.5 133 c 128,-1,25
 103 110 103 110 115 93 c 128,-1,26
 127 76 127 76 150 68 c 128,-1,27
 173 60 173 60 210 69 c 1,28,-1
 211 7 l 1,29,30
 175 -2 175 -2 144 4 c 0,31,32
 117 9 117 9 92.5 29.5 c 128,-1,33
 68 50 68 50 58 100 c 0,34,35
 55 136 55 136 58 166 c 128,-1,36
 61 196 61 196 59.5 220 c 128,-1,37
 58 244 58 244 46.5 265 c 128,-1,38
 35 286 35 286 1 304 c 1,39,40
 29 311 29 311 40 331 c 128,-1,41
 51 351 51 351 50.5 377.5 c 128,-1,42
 50 404 50 404 42 434.5 c 128,-1,43
 34 465 34 465 24 492.5 c 128,-1,44
 14 520 14 520 7 544 c 128,-1,45
 0 568 0 568 1 582 c 0,46,47
 1 595 1 595 5 618 c 128,-1,48
 9 641 9 641 24.5 663 c 128,-1,49
 40 685 40 685 70 701 c 128,-1,50
 100 717 100 717 150 714 c 0,0,1
EndSplineSet
EndChar

StartChar: bar
Encoding: 124 124 66
Width: 152
GlyphClass: 2
Flags: W
LayerCount: 2
Fore
SplineSet
40 674 m 1,0,-1
 100 669 l 1,1,-1
 74 70 l 1,2,-1
 40 70 l 1,3,-1
 40 674 l 1,0,-1
EndSplineSet
EndChar

StartChar: braceright
Encoding: 125 125 67
Width: 256
GlyphClass: 2
Flags: W
LayerCount: 2
Fore
SplineSet
60 1 m 0,0,1
 58 3 58 3 57 13 c 128,-1,2
 56 23 56 23 54 35 c 0,3,4
 52 49 52 49 50 67 c 1,5,6
 80 67 80 67 103 76 c 0,7,8
 123 84 123 84 139.5 101 c 128,-1,9
 156 118 156 118 157 151.5 c 128,-1,10
 158 185 158 185 149 216 c 128,-1,11
 140 247 140 247 129.5 273 c 128,-1,12
 119 299 119 299 110 319 c 128,-1,13
 101 339 101 339 102 353 c 0,14,15
 103 366 103 366 108 375.5 c 128,-1,16
 113 385 113 385 118 391 c 128,-1,17
 123 397 123 397 127.5 400 c 128,-1,18
 132 403 132 403 135 407 c 0,19,20
 133 410 133 410 130 411.5 c 128,-1,21
 127 413 127 413 124 417 c 128,-1,22
 121 421 121 421 117.5 429.5 c 128,-1,23
 114 438 114 438 111 457 c 0,24,25
 109 470 109 470 110.5 490.5 c 128,-1,26
 112 511 112 511 112 534.5 c 128,-1,27
 112 558 112 558 108 581 c 128,-1,28
 104 604 104 604 93 620.5 c 128,-1,29
 82 637 82 637 60 644 c 128,-1,30
 38 651 38 651 2 644 c 1,31,-1
 1 706 l 1,32,33
 36 714 36 714 66 708 c 0,34,35
 92 703 92 703 115 682.5 c 128,-1,36
 138 662 138 662 148 613 c 1,37,38
 151 577 151 577 148 547.5 c 128,-1,39
 145 518 145 518 146 493.5 c 128,-1,40
 147 469 147 469 158.5 448 c 128,-1,41
 170 427 170 427 203 410 c 1,42,43
 175 402 175 402 165 382 c 128,-1,44
 155 362 155 362 155.5 336 c 128,-1,45
 156 310 156 310 163.5 280 c 128,-1,46
 171 250 171 250 180 222 c 128,-1,47
 189 194 189 194 196.5 170 c 128,-1,48
 204 146 204 146 203 132 c 0,49,50
 203 120 203 120 199 96.5 c 128,-1,51
 195 73 195 73 180 51 c 128,-1,52
 165 29 165 29 136.5 13.5 c 128,-1,53
 108 -2 108 -2 60 1 c 0,0,1
EndSplineSet
EndChar

StartChar: asciitilde
Encoding: 126 126 68
Width: 276
GlyphClass: 2
Flags: W
LayerCount: 2
Fore
SplineSet
0 280 m 1,0,1
 15 300 15 300 33 316 c 0,2,3
 47 330 47 330 64 342 c 128,-1,4
 81 354 81 354 95 356 c 0,5,6
 109 357 109 357 119 348.5 c 128,-1,7
 129 340 129 340 136.5 328 c 128,-1,8
 144 316 144 316 152 307 c 128,-1,9
 160 298 160 298 169 298 c 0,10,11
 176 298 176 298 180 310.5 c 128,-1,12
 184 323 184 323 187 338 c 0,13,14
 190 356 190 356 193 379 c 1,15,-1
 227 370 l 2,16,17
 228 370 228 370 223 353.5 c 128,-1,18
 218 337 218 337 210 317.5 c 128,-1,19
 202 298 202 298 191 281.5 c 128,-1,20
 180 265 180 265 170 265 c 0,21,22
 154 265 154 265 145.5 272.5 c 128,-1,23
 137 280 137 280 131.5 288 c 128,-1,24
 126 296 126 296 120 303.5 c 128,-1,25
 114 311 114 311 100 311 c 0,26,27
 86 312 86 312 73 303.5 c 128,-1,28
 60 295 60 295 51 284 c 0,29,30
 40 272 40 272 31 254 c 1,31,-1
 0 280 l 1,0,1
EndSplineSet
EndChar

StartChar: exclamdown
Encoding: 161 161 69
Width: 190
GlyphClass: 2
Flags: W
LayerCount: 2
Fore
SplineSet
112 614 m 0,0,1
 96 612 96 612 81.5 623 c 128,-1,2
 67 634 67 634 63 654 c 0,3,4
 60 672 60 672 69.5 687.5 c 128,-1,5
 79 703 79 703 95 708 c 0,6,7
 111 710 111 710 124.5 699 c 128,-1,8
 138 688 138 688 142 668 c 0,9,10
 145 650 145 650 136 634 c 128,-1,11
 127 618 127 618 112 614 c 0,0,1
85 554 m 1,12,-1
 128 547 l 1,13,-1
 116 18 l 1,14,-1
 13 28 l 1,15,-1
 85 554 l 1,12,-1
EndSplineSet
EndChar

StartChar: cent
Encoding: 162 162 70
Width: 306
GlyphClass: 2
Flags: W
LayerCount: 2
Fore
SplineSet
217 630 m 2,0,1
 236 630 236 630 252 622.5 c 128,-1,2
 268 615 268 615 279.5 603 c 128,-1,3
 291 591 291 591 297 575.5 c 128,-1,4
 303 560 303 560 303 544 c 2,5,-1
 303 347 l 2,6,7
 303 333 303 333 294 325.5 c 128,-1,8
 285 318 285 318 274 318 c 128,-1,9
 263 318 263 318 254.5 325.5 c 128,-1,10
 246 333 246 333 246 347 c 2,11,-1
 246 529 l 1,12,-1
 231 529 l 1,13,-1
 231 36 l 2,14,15
 231 17 231 17 220 7 c 128,-1,16
 209 -3 209 -3 195.5 -3 c 128,-1,17
 182 -3 182 -3 171 6.5 c 128,-1,18
 160 16 160 16 160 36 c 2,19,-1
 160 324 l 1,20,-1
 145 324 l 1,21,-1
 145 36 l 2,22,23
 145 17 145 17 133.5 7 c 128,-1,24
 122 -3 122 -3 107 -3 c 128,-1,25
 92 -3 92 -3 80.5 6.5 c 128,-1,26
 69 16 69 16 69 36 c 2,27,-1
 69 529 l 1,28,-1
 54 529 l 1,29,-1
 54 347 l 2,30,31
 54 333 54 333 46 325.5 c 128,-1,32
 38 318 38 318 27.5 318 c 128,-1,33
 17 318 17 318 9 325.5 c 128,-1,34
 1 333 1 333 1 347 c 2,35,-1
 1 544 l 2,36,37
 1 580 1 580 24 605 c 128,-1,38
 47 630 47 630 83 630 c 2,39,-1
 217 630 l 2,0,1
150 644 m 0,40,41
 125 644 125 644 106.5 662.5 c 128,-1,42
 88 681 88 681 88 707 c 0,43,44
 88 736 88 736 106.5 754.5 c 128,-1,45
 125 773 125 773 150 773 c 0,46,47
 180 773 180 773 198.5 754 c 128,-1,48
 217 735 217 735 217 707 c 0,49,50
 217 681 217 681 198.5 662.5 c 128,-1,51
 180 644 180 644 150 644 c 0,40,41
EndSplineSet
EndChar

StartChar: sterling
Encoding: 163 163 71
Width: 419
GlyphClass: 2
Flags: W
LayerCount: 2
Fore
SplineSet
332 145 m 0,0,1
 336 145 336 145 343 151.5 c 128,-1,2
 350 158 350 158 355 166 c 0,3,4
 361 175 361 175 370 185 c 1,5,-1
 370 85 l 1,6,-1
 54 85 l 1,7,-1
 46 126 l 1,8,-1
 87 127 l 1,9,10
 85 145 85 145 81 175 c 0,11,12
 78 203 78 203 72.5 245.5 c 128,-1,13
 67 288 67 288 61 350 c 1,14,-1
 3 348 l 1,15,-1
 1 377 l 1,16,-1
 58 382 l 1,17,18
 50 473 50 473 66.5 524 c 128,-1,19
 83 575 83 575 109.5 599.5 c 128,-1,20
 136 624 136 624 170.5 626.5 c 128,-1,21
 205 629 205 629 234.5 622 c 128,-1,22
 264 615 264 615 284 605 c 128,-1,23
 304 595 304 595 304 594 c 2,24,-1
 270 513 l 1,25,26
 266 520 266 520 263 529 c 0,27,28
 255 541 255 541 245 556 c 1,29,30
 201 582 201 582 173 574 c 128,-1,31
 145 566 145 566 130.5 539.5 c 128,-1,32
 116 513 116 513 111 471 c 128,-1,33
 106 429 106 429 111 383 c 1,34,-1
 173 390 l 1,35,-1
 176 351 l 1,36,-1
 113 350 l 1,37,38
 115 308 115 308 118 268.5 c 128,-1,39
 121 229 121 229 124 200 c 0,40,41
 129 164 129 164 133 130 c 1,42,43
 184 132 184 132 227 136 c 0,44,45
 245 137 245 137 263 138 c 128,-1,46
 281 139 281 139 295 140.5 c 128,-1,47
 309 142 309 142 319 143 c 128,-1,48
 329 144 329 144 332 145 c 0,0,1
EndSplineSet
EndChar

StartChar: dieresis
Encoding: 168 168 72
Width: 203
GlyphClass: 2
Flags: W
LayerCount: 2
Fore
SplineSet
123 538 m 0,0,1
 130 548 130 548 140 548.5 c 128,-1,2
 150 549 150 549 158 543 c 0,3,4
 166 535 166 535 167.5 524 c 128,-1,5
 169 513 169 513 164 503 c 0,6,7
 157 494 157 494 147 492 c 128,-1,8
 137 490 137 490 127 499 c 0,9,10
 120 505 120 505 118.5 517 c 128,-1,11
 117 529 117 529 123 538 c 0,0,1
55 512 m 0,12,13
 47 500 47 500 35 499.5 c 128,-1,14
 23 499 23 499 12 506 c 0,15,16
 3 514 3 514 1.5 527 c 128,-1,17
 0 540 0 540 7 551 c 0,18,19
 14 560 14 560 26 562 c 128,-1,20
 38 564 38 564 47 557 c 0,21,22
 57 548 57 548 58.5 535 c 128,-1,23
 60 522 60 522 55 512 c 0,12,13
EndSplineSet
EndChar

StartChar: copyright
Encoding: 169 169 73
Width: 291
GlyphClass: 2
Flags: W
LayerCount: 2
Fore
SplineSet
119 12 m 0,0,1
 135 11 135 11 155 17 c 128,-1,2
 175 23 175 23 192 35.5 c 128,-1,3
 209 48 209 48 219.5 68 c 128,-1,4
 230 88 230 88 229 117 c 0,5,6
 228 144 228 144 215.5 161 c 128,-1,7
 203 178 203 178 186.5 188.5 c 128,-1,8
 170 199 170 199 154 203 c 128,-1,9
 138 207 138 207 131 207 c 0,10,11
 81 210 81 210 46.5 180 c 128,-1,12
 12 150 12 150 12 98 c 0,13,14
 12 74 12 74 22.5 58 c 128,-1,15
 33 42 33 42 49 32 c 128,-1,16
 65 22 65 22 83.5 17 c 128,-1,17
 102 12 102 12 119 12 c 0,0,1
124 214 m 128,-1,19
 139 214 139 214 159 210 c 128,-1,20
 179 206 179 206 198 194 c 128,-1,21
 217 182 217 182 230.5 161.5 c 128,-1,22
 244 141 244 141 246 108 c 0,23,24
 245 78 245 78 233 57.5 c 128,-1,25
 221 37 221 37 202.5 24 c 128,-1,26
 184 11 184 11 162 5.5 c 128,-1,27
 140 0 140 0 120 0 c 0,28,29
 104 0 104 0 81.5 3.5 c 128,-1,30
 59 7 59 7 39.5 19 c 128,-1,31
 20 31 20 31 8 52 c 128,-1,32
 -4 73 -4 73 -2 106.5 c 128,-1,33
 0 140 0 140 14.5 161 c 128,-1,34
 29 182 29 182 48.5 194 c 128,-1,35
 68 206 68 206 88.5 210 c 128,-1,18
 109 214 109 214 124 214 c 128,-1,19
167 175 m 1,36,-1
 167 158 l 1,37,38
 142 165 142 165 123 163 c 0,39,40
 106 161 106 161 90 151.5 c 128,-1,41
 74 142 74 142 69 118 c 0,42,43
 67 109 67 109 67.5 96 c 128,-1,44
 68 83 68 83 76.5 72 c 128,-1,45
 85 61 85 61 103.5 55 c 128,-1,46
 122 49 122 49 156 52 c 1,47,48
 156 49 156 49 157 46 c 0,49,50
 157 44 157 44 157.5 43.5 c 128,-1,51
 158 43 158 43 158 42 c 2,52,-1
 158 40 l 1,53,54
 143 38 143 38 121.5 40 c 128,-1,55
 100 42 100 42 83.5 51.5 c 128,-1,56
 67 61 67 61 58 80.5 c 128,-1,57
 49 100 49 100 57 134 c 0,58,59
 65 158 65 158 83 167 c 128,-1,60
 101 176 101 176 120 178 c 0,61,62
 141 180 141 180 167 175 c 1,36,-1
EndSplineSet
EndChar

StartChar: logicalnot
Encoding: 172 172 74
Width: 273
GlyphClass: 2
Flags: W
LayerCount: 2
Fore
SplineSet
0 361 m 1,0,-1
 209 359 l 1,1,-1
 221 303 l 1,2,-1
 195 302 l 1,3,-1
 194 341 l 1,4,-1
 1 336 l 1,5,-1
 0 361 l 1,0,-1
EndSplineSet
EndChar

StartChar: registered
Encoding: 174 174 75
Width: 271
GlyphClass: 2
Flags: W
LayerCount: 2
Fore
SplineSet
106 13 m 0,0,1
 121 12 121 12 139.5 17 c 128,-1,2
 158 22 158 22 173 33.5 c 128,-1,3
 188 45 188 45 197.5 63.5 c 128,-1,4
 207 82 207 82 206 108 c 0,5,6
 205 132 205 132 193 147.5 c 128,-1,7
 181 163 181 163 166.5 172 c 128,-1,8
 152 181 152 181 138 185 c 128,-1,9
 124 189 124 189 118 189 c 0,10,11
 72 191 72 191 41 164 c 128,-1,12
 10 137 10 137 10 91 c 0,13,14
 10 69 10 69 19.5 54.5 c 128,-1,15
 29 40 29 40 43 31 c 128,-1,16
 57 22 57 22 74 17.5 c 128,-1,17
 91 13 91 13 106 13 c 0,0,1
111.5 196 m 128,-1,19
 125 196 125 196 143.5 191.5 c 128,-1,20
 162 187 162 187 179 177 c 128,-1,21
 196 167 196 167 207.5 148.5 c 128,-1,22
 219 130 219 130 221 99 c 0,23,24
 220 72 220 72 209.5 53.5 c 128,-1,25
 199 35 199 35 182 23.5 c 128,-1,26
 165 12 165 12 145.5 7 c 128,-1,27
 126 2 126 2 108 2 c 0,28,29
 94 2 94 2 73.5 5.5 c 128,-1,30
 53 9 53 9 35.5 19.5 c 128,-1,31
 18 30 18 30 7 49 c 128,-1,32
 -4 68 -4 68 -2 98 c 0,33,34
 0 128 0 128 13 147.5 c 128,-1,35
 26 167 26 167 43 177.5 c 128,-1,36
 60 188 60 188 79 192 c 128,-1,18
 98 196 98 196 111.5 196 c 128,-1,19
82 104 m 1,37,38
 98 102 98 102 112 105 c 0,39,40
 123 107 123 107 132.5 113 c 128,-1,41
 142 119 142 119 142 132 c 0,42,43
 142 143 142 143 132.5 149 c 128,-1,44
 123 155 123 155 112 157 c 0,45,46
 99 159 99 159 82 157 c 1,47,-1
 82 104 l 1,37,38
70 165 m 2,48,49
 71 165 71 165 85 166 c 128,-1,50
 99 167 99 167 115.5 164.5 c 128,-1,51
 132 162 132 162 146 154.5 c 128,-1,52
 160 147 160 147 159 132 c 0,53,54
 158 118 158 118 148.5 110 c 128,-1,55
 139 102 139 102 128 98 c 0,56,57
 115 94 115 94 97 92 c 1,58,-1
 146 37 l 1,59,-1
 124 37 l 1,60,-1
 83 90 l 1,61,-1
 82 36 l 1,62,-1
 72 37 l 1,63,-1
 70 165 l 2,48,49
EndSplineSet
EndChar

StartChar: acute
Encoding: 180 180 76
Width: 178
GlyphClass: 2
Flags: W
LayerCount: 2
Fore
SplineSet
112 837 m 5,0,-1
 138 812 l 5,1,-1
 50 724 l 5,2,-1
 35 737 l 5,3,-1
 112 837 l 5,0,-1
EndSplineSet
EndChar

StartChar: cedilla
Encoding: 184 184 77
Width: 138
GlyphClass: 2
Flags: W
LayerCount: 2
Fore
SplineSet
47 69 m 21,0,1
 44 64 44 64 41 58 c 0,2,3
 39 53 39 53 38 48.5 c 128,-1,4
 37 44 37 44 41 41 c 0,5,6
 44 38 44 38 50 37 c 128,-1,7
 56 36 56 36 62.5 35 c 128,-1,8
 69 34 69 34 75 31 c 128,-1,9
 81 28 81 28 85 20 c 0,10,11
 93 5 93 5 72 -13 c 128,-1,12
 51 -31 51 -31 -2 -31 c 1,13,-1
 -2 -17 l 1,14,-1
 -2 -4 l 1,15,16
 16 -7 16 -7 32 -6 c 0,17,18
 44 -5 44 -5 55 -1 c 128,-1,19
 66 3 66 3 67 14 c 0,20,21
 68 23 68 23 61.5 25.5 c 128,-1,22
 55 28 55 28 47 27.5 c 128,-1,23
 39 27 39 27 31 26.5 c 128,-1,24
 23 26 23 26 18 31 c 0,25,26
 14 35 14 35 12.5 42 c 128,-1,27
 11 49 11 49 10.5 55 c 128,-1,28
 10 61 10 61 10 66 c 2,29,-1
 10 68 l 10,30,-1
 47 69 l 21,0,1
EndSplineSet
EndChar

StartChar: questiondown
Encoding: 191 191 78
Width: 526
GlyphClass: 2
Flags: W
LayerCount: 2
Fore
SplineSet
197 591 m 0,0,1
 184 595 184 595 176.5 611.5 c 128,-1,2
 169 628 169 628 174 647 c 0,3,4
 179 665 179 665 193 676 c 128,-1,5
 207 687 207 687 221 683 c 0,6,7
 234 680 234 680 241.5 663.5 c 128,-1,8
 249 647 249 647 244 628 c 0,9,10
 239 610 239 610 225 599 c 128,-1,11
 211 588 211 588 197 591 c 0,0,1
17 92 m 0,12,13
 0 124 0 124 0.5 153.5 c 128,-1,14
 1 183 1 183 14 208 c 128,-1,15
 27 233 27 233 49 256 c 128,-1,16
 71 279 71 279 97 297 c 0,17,18
 157 340 157 340 246 374 c 1,19,-1
 195 525 l 1,20,-1
 256 540 l 1,21,-1
 303 342 l 1,22,23
 228 322 228 322 177 288 c 0,24,25
 153 275 153 275 134.5 258 c 128,-1,26
 116 241 116 241 104 220 c 128,-1,27
 92 199 92 199 91 173.5 c 128,-1,28
 90 148 90 148 103 121 c 0,29,30
 119 85 119 85 149 70.5 c 128,-1,31
 179 56 179 56 218 53.5 c 128,-1,32
 257 51 257 51 312.5 69.5 c 128,-1,33
 368 88 368 88 435 157 c 1,34,-1
 496 96 l 1,35,36
 478 81 478 81 442 62 c 128,-1,37
 406 43 406 43 360.5 25.5 c 128,-1,38
 315 8 315 8 265 3 c 128,-1,39
 215 -2 215 -2 167.5 3 c 128,-1,40
 120 8 120 8 81 29 c 128,-1,41
 42 50 42 50 17 92 c 0,12,13
EndSplineSet
EndChar

StartChar: AE
Encoding: 198 198 85
AltUni2: 0000e6.ffffffff.0
Width: 757
GlyphClass: 2
Flags: W
AnchorPoint: "top" 374 712 basechar 0
LayerCount: 2
Fore
SplineSet
284 718 m 1,0,-1
 709 709 l 1,1,-1
 708 578 l 2,2,3
 708 579 708 579 695 591.5 c 128,-1,4
 682 604 682 604 665.5 619.5 c 128,-1,5
 649 635 649 635 635.5 647 c 128,-1,6
 622 659 622 659 617 660 c 0,7,8
 615 660 615 660 397 651 c 1,9,-1
 404 374 l 1,10,-1
 580 390 l 1,11,-1
 580 323 l 1,12,-1
 404 323 l 1,13,-1
 410 56 l 1,14,15
 603 61 603 61 604 62 c 0,16,17
 606 64 606 64 618.5 73 c 128,-1,18
 631 82 631 82 643 91 c 2,19,-1
 679 117 l 1,20,-1
 679 1 l 1,21,-1
 374 1 l 1,22,-1
 328 1 l 1,23,-1
 267 1 l 1,24,-1
 296 15 l 2,25,26
 306 20 306 20 315.5 25.5 c 128,-1,27
 325 31 325 31 326 33 c 2,28,-1
 326 58 l 2,29,30
 327 83 327 83 329 123 c 128,-1,31
 331 163 331 163 333 215 c 128,-1,32
 335 267 335 267 337 320 c 0,33,34
 337 322 337 322 338 324 c 2,35,-1
 225 324 l 1,36,-1
 156 178 l 2,37,38
 143 151 143 151 130 125 c 128,-1,39
 117 99 117 99 107.5 78 c 128,-1,40
 98 57 98 57 93 44 c 2,41,-1
 87 31 l 2,42,43
 87 28 87 28 94.5 23.5 c 128,-1,44
 102 19 102 19 114 14 c 0,45,46
 126 8 126 8 141 1 c 1,47,-1
 -1 1 l 1,48,-1
 317 649 l 1,49,-1
 285 649 l 1,50,-1
 284 718 l 1,0,-1
339 360 m 1,51,52
 340 392 340 392 342 421 c 0,53,54
 344 470 344 470 346 506.5 c 128,-1,55
 348 543 348 543 349 560 c 2,56,-1
 349 568 l 1,57,-1
 239 354 l 1,58,-1
 339 360 l 1,51,52
EndSplineSet
Substitution2: "mark-downsizer-1" AE.mark
EndChar

StartChar: Eth
Encoding: 208 208 95
AltUni2: 0000f0.ffffffff.0 000110.ffffffff.0 000111.ffffffff.0
Width: 585
GlyphClass: 2
Flags: W
AnchorPoint: "top" 250 708 basechar 0
LayerCount: 2
Fore
SplineSet
0 383 m 25,0,-1
 254 402 l 25,1,-1
 251 336 l 25,2,-1
 3 344 l 25,3,-1
 0 383 l 25,0,-1
EndSplineSet
Refer: 36 68 N 1 0 0 1 0 0 2
Substitution2: "mark-downsizer-1" Eth.mark
EndChar

StartChar: multiply
Encoding: 215 215 102
Width: 449
GlyphClass: 2
Flags: W
LayerCount: 2
Fore
SplineSet
409 166 m 1,0,-1
 348 164 l 1,1,-1
 199 316 l 1,2,-1
 89 170 l 1,3,-1
 11 171 l 1,4,-1
 162 356 l 1,5,-1
 4 518 l 1,6,-1
 69 519 l 1,7,-1
 191 391 l 1,8,-1
 285 507 l 1,9,-1
 342 505 l 1,10,-1
 228 354 l 1,11,-1
 409 166 l 1,0,-1
EndSplineSet
EndChar

StartChar: Oslash
Encoding: 216 216 103
AltUni2: 0000f8.ffffffff.0
Width: 654
GlyphClass: 2
Flags: W
AnchorPoint: "top" 298 706 basechar 0
LayerCount: 2
Fore
SplineSet
10 79 m 25,0,-1
 558 722 l 25,1,-1
 595 703 l 25,2,-1
 65 27 l 25,3,-1
 10 79 l 25,0,-1
EndSplineSet
Refer: 47 79 N 1 0 0 1 0 0 2
Substitution2: "mark-downsizer-1" Oslash.mark
EndChar

StartChar: Thorn
Encoding: 222 222 109
AltUni2: 0000fe.ffffffff.0
Width: 505
GlyphClass: 2
Flags: W
AnchorPoint: "top" 261 686 basechar 0
LayerCount: 2
Fore
SplineSet
144 222 m 1,0,1
 166 221 166 221 193 220.5 c 128,-1,2
 220 220 220 220 249.5 224 c 128,-1,3
 279 228 279 228 307 238.5 c 128,-1,4
 335 249 335 249 357.5 268.5 c 128,-1,5
 380 288 380 288 393 318.5 c 128,-1,6
 406 349 406 349 404 393 c 0,7,8
 397 461 397 461 363.5 493.5 c 128,-1,9
 330 526 330 526 286.5 538 c 128,-1,10
 243 550 243 550 198.5 546.5 c 128,-1,11
 154 543 154 543 124 537 c 1,12,13
 126 503 126 503 128.5 462.5 c 128,-1,14
 131 422 131 422 133.5 381 c 128,-1,15
 136 340 136 340 139 299.5 c 128,-1,16
 142 259 142 259 144 222 c 1,0,1
473 419 m 0,17,18
 484 365 484 365 471.5 325.5 c 128,-1,19
 459 286 459 286 431.5 258 c 128,-1,20
 404 230 404 230 366.5 214 c 128,-1,21
 329 198 329 198 289 187.5 c 128,-1,22
 249 177 249 177 211.5 174 c 128,-1,23
 174 171 174 171 148 171 c 1,24,25
 153 122 153 122 156 91.5 c 128,-1,26
 159 61 159 61 160 59 c 0,27,28
 162 57 162 57 173 50 c 128,-1,29
 184 43 184 43 199 36 c 0,30,31
 215 27 215 27 234 15 c 1,32,-1
 53 2 l 1,33,34
 60 9 60 9 68 15 c 0,35,36
 82 29 82 29 86 40 c 0,37,38
 91 52 91 52 91.5 101 c 128,-1,39
 92 150 92 150 90 215.5 c 128,-1,40
 88 281 88 281 85.5 355 c 128,-1,41
 83 429 83 429 78.5 494.5 c 128,-1,42
 74 560 74 560 69.5 607.5 c 128,-1,43
 65 655 65 655 60 669 c 0,44,45
 58 674 58 674 49 681 c 128,-1,46
 40 688 40 688 29 696 c 0,47,48
 17 705 17 705 0 715 c 1,49,-1
 152 715 l 1,50,51
 143 707 143 707 135 700 c 0,52,53
 130 694 130 694 124 688 c 128,-1,54
 118 682 118 682 117 678 c 0,55,56
 117 677 117 677 117.5 655.5 c 128,-1,57
 118 634 118 634 121 599 c 1,58,59
 194 610 194 610 253.5 607 c 128,-1,60
 313 604 313 604 357 583.5 c 128,-1,61
 401 563 401 563 430.5 523.5 c 128,-1,62
 460 484 460 484 473 419 c 0,17,18
EndSplineSet
Substitution2: "mark-downsizer-1" Thorn.mark
EndChar

StartChar: divide
Encoding: 247 247 110
Width: 403
GlyphClass: 2
Flags: W
LayerCount: 2
Fore
SplineSet
158.5 381 m 128,-1,1
 147 389 147 389 144.5 403.5 c 128,-1,2
 142 418 142 418 150.5 429 c 128,-1,3
 159 440 159 440 172.5 442.5 c 128,-1,4
 186 445 186 445 198 437 c 0,5,6
 210 429 210 429 212.5 415 c 128,-1,7
 215 401 215 401 207 390 c 128,-1,8
 199 379 199 379 184.5 376 c 128,-1,0
 170 373 170 373 158.5 381 c 128,-1,1
194 222 m 0,9,10
 208 212 208 212 210.5 196.5 c 128,-1,11
 213 181 213 181 204 167 c 0,12,13
 195 154 195 154 179 151 c 128,-1,14
 163 148 163 148 150 158 c 0,15,16
 136 168 136 168 133 183.5 c 128,-1,17
 130 199 130 199 139 213 c 0,18,19
 148 226 148 226 164.5 228.5 c 128,-1,20
 181 231 181 231 194 222 c 0,9,10
1 312 m 1,21,-1
 350 331 l 1,22,-1
 347 271 l 1,23,-1
 5 279 l 1,24,-1
 1 312 l 1,21,-1
EndSplineSet
EndChar

StartChar: Eogonek
Encoding: 280 280 113
AltUni2: 000119.ffffffff.0
Width: 509
GlyphClass: 2
Flags: W
LayerCount: 2
Fore
SplineSet
374 2 m 1024
EndSplineSet
Refer: 187 731 S 1 0 0 1 368 0 2
Refer: 37 69 N 1 0 0 1 0 0 2
EndChar

StartChar: Lslash
Encoding: 321 321 114
AltUni2: 000142.ffffffff.0
Width: 498
GlyphClass: 2
Flags: W
LayerCount: 2
Fore
SplineSet
-115 265 m 25,0,-1
 281 510 l 25,1,-1
 285 469 l 25,2,-1
 -72 220 l 25,3,-1
 -115 265 l 25,0,-1
EndSplineSet
Refer: 44 76 N 1 0 0 1 0 0 2
EndChar

StartChar: OE
Encoding: 338 338 116
AltUni2: 000153.ffffffff.0
Width: 701
GlyphClass: 2
Flags: W
AnchorPoint: "top" 343 712 basechar 0
LayerCount: 2
Fore
SplineSet
79 382 m 0,0,1
 79 323 79 323 90 263 c 128,-1,2
 101 203 101 203 129 156 c 128,-1,3
 157 109 157 109 200.5 80.5 c 128,-1,4
 244 52 244 52 314 56 c 1,5,-1
 313 653 l 1,6,7
 254 653 254 653 213 635 c 128,-1,8
 172 617 172 617 148 590 c 128,-1,9
 124 563 124 563 109 530.5 c 128,-1,10
 94 498 94 498 87.5 468 c 128,-1,11
 81 438 81 438 80 414.5 c 128,-1,12
 79 391 79 391 79 382 c 0,0,1
664 712 m 1,13,-1
 663 580 l 2,14,15
 663 582 663 582 652 594 c 128,-1,16
 641 606 641 606 626.5 620.5 c 128,-1,17
 612 635 612 635 600 647 c 128,-1,18
 588 659 588 659 584 660 c 0,19,20
 582 660 582 660 371 653 c 1,21,-1
 378 412 l 1,22,-1
 556 421 l 1,23,-1
 556 354 l 1,24,-1
 379 354 l 1,25,-1
 385 56 l 1,26,27
 557 61 557 61 558 62 c 0,28,29
 560 63 560 63 629 117 c 1,30,-1
 629 0 l 1,31,-1
 287 0 l 1,32,33
 196 7 196 7 141 47 c 128,-1,34
 86 87 86 87 55.5 140.5 c 128,-1,35
 25 194 25 194 14 251.5 c 128,-1,36
 3 309 3 309 2 352 c 0,37,38
 1 381 1 381 4.5 418.5 c 128,-1,39
 8 456 8 456 20.5 495.5 c 128,-1,40
 33 535 33 535 54.5 572.5 c 128,-1,41
 76 610 76 610 111.5 641.5 c 128,-1,42
 147 673 147 673 198.5 693 c 128,-1,43
 250 713 250 713 321 715 c 2,44,-1
 664 712 l 1,13,-1
EndSplineSet
Substitution2: "mark-downsizer-1" OE.mark
EndChar

StartChar: circumflex
Encoding: 710 710 123
Width: 220
GlyphClass: 2
Flags: W
LayerCount: 2
Fore
SplineSet
1 563 m 1,0,-1
 82 742 l 1,1,-1
 200 607 l 1,2,-1
 177 595 l 1,3,-1
 88 703 l 1,4,-1
 42 549 l 1,5,-1
 1 563 l 1,0,-1
EndSplineSet
EndChar

StartChar: caron
Encoding: 711 711 124
Width: 204
GlyphClass: 2
Flags: W
LayerCount: 2
Fore
SplineSet
0 552 m 1,0,-1
 31 561 l 1,1,-1
 66 470 l 1,2,-1
 135 535 l 1,3,-1
 153 526 l 1,4,-1
 61 447 l 1,5,-1
 0 552 l 1,0,-1
EndSplineSet
EndChar

StartChar: breve
Encoding: 728 728 125
Width: 168
GlyphClass: 2
Flags: W
LayerCount: 2
Fore
SplineSet
118 709 m 1,0,1
 110 696 110 696 100 684 c 0,2,3
 92 675 92 675 81.5 667 c 128,-1,4
 71 659 71 659 56 659 c 0,5,6
 39 659 39 659 28 667 c 128,-1,7
 17 675 17 675 11 684 c 0,8,9
 4 695 4 695 0 709 c 1,10,-1
 16 711 l 1,11,12
 19 702 19 702 25 693 c 0,13,14
 30 686 30 686 36.5 679.5 c 128,-1,15
 43 673 43 673 54 671 c 0,16,17
 64 669 64 669 73 675.5 c 128,-1,18
 82 682 82 682 87 690 c 0,19,20
 93 699 93 699 98 712 c 1,21,-1
 118 709 l 1,0,1
EndSplineSet
EndChar

StartChar: tilde
Encoding: 732 732 126
Width: 204
GlyphClass: 2
Flags: W
LayerCount: 2
Fore
SplineSet
0 525 m 1,0,1
 11 537 11 537 23 549 c 0,2,3
 31 557 31 557 41.5 564.5 c 128,-1,4
 52 572 52 572 61 575 c 0,5,6
 70 576 70 576 76 569.5 c 128,-1,7
 82 563 82 563 87 555 c 128,-1,8
 92 547 92 547 96.5 541 c 128,-1,9
 101 535 101 535 108 535 c 0,10,11
 112 535 112 535 115 543 c 128,-1,12
 118 551 118 551 120 562 c 0,13,14
 123 572 123 572 124 589 c 1,15,-1
 141 585 l 1,16,17
 136 566 136 566 131 551 c 0,18,19
 127 538 127 538 121.5 527.5 c 128,-1,20
 116 517 116 517 110 517 c 0,21,22
 100 516 100 516 94.5 521.5 c 128,-1,23
 89 527 89 527 85 535.5 c 128,-1,24
 81 544 81 544 76.5 551.5 c 128,-1,25
 72 559 72 559 63 559 c 0,26,27
 54 559 54 559 46.5 551.5 c 128,-1,28
 39 544 39 544 32 535 c 0,29,30
 24 526 24 526 16 511 c 1,31,-1
 0 525 l 1,0,1
EndSplineSet
EndChar

StartChar: afii10018
Encoding: 1041 1041 127
AltUni2: 000431.ffffffff.0
Width: 566
GlyphClass: 2
Flags: W
LayerCount: 2
Fore
SplineSet
53 724 m 25,0,-1
 474 719 l 1,1,-1
 474 608 l 1,2,-1
 414 670 l 1,3,-1
 114 671 l 1,4,-1
 119 396 l 1,5,6
 181 396 181 396 221 391 c 0,7,8
 267 386 267 386 313 376.5 c 128,-1,9
 359 367 359 367 399 348.5 c 128,-1,10
 439 330 439 330 470 302 c 0,11,12
 503 272 503 272 515 236 c 0,13,14
 532 187 532 187 519 146 c 0,15,16
 506 109 506 109 473.5 82.5 c 128,-1,17
 441 56 441 56 395 41 c 0,18,19
 341 24 341 24 298 16 c 0,20,21
 177 -3 177 -3 15 6 c 1,22,-1
 13 54 l 1,23,24
 55 50 55 50 59 50 c 1,25,-1
 53 724 l 25,0,-1
127 49 m 1,26,27
 176 48 176 48 231 55 c 0,28,29
 272 60 272 60 311 69 c 0,30,31
 349 79 349 79 381 97 c 0,32,33
 413 115 413 115 429 140 c 0,34,35
 444 163 444 163 439 204 c 0,36,37
 436 236 436 236 418.5 257.5 c 128,-1,38
 401 279 401 279 376 295 c 0,39,40
 351 312 351 312 322 321 c 128,-1,41
 293 330 293 330 261 336 c 0,42,43
 194 347 194 347 121 345 c 1,44,-1
 127 49 l 1,26,27
EndSplineSet
Substitution2: "mark-downsizer-1" afii10018.mark
EndChar

StartChar: afii10020
Encoding: 1043 1043 128
AltUni2: 000433.ffffffff.0 0003b3.ffffffff.0 000393.ffffffff.0
Width: 498
GlyphClass: 2
Flags: W
LayerCount: 2
Fore
SplineSet
34 25 m 1,0,-1
 38 664 l 1,1,-1
 1 665 l 1,2,-1
 0 717 l 5,3,-1
 463 715 l 1,4,-1
 464 600 l 1,5,6
 430 646 430 646 423 649 c 0,7,8
 417 652 417 652 100 665 c 1,9,10
 115 99 115 99 116.5 70.5 c 128,-1,11
 118 42 118 42 119 41 c 0,12,13
 120 39 120 39 126.5 31.5 c 128,-1,14
 133 24 133 24 171 -1 c 1,15,-1
 5 -1 l 1,16,17
 21 14 21 14 34 25 c 1,0,-1
EndSplineSet
Substitution2: "mark-downsizer-1" afii10020.mark
EndChar

StartChar: afii10021
Encoding: 1044 1044 129
AltUni2: 000434.ffffffff.0
Width: 571
GlyphClass: 2
Flags: W
LayerCount: 2
Fore
SplineSet
487 656 m 21,0,-1
 487 66 l 1,1,-1
 537 66 l 1,2,-1
 528 -67 l 1,3,-1
 488 1 l 1,4,-1
 44 8 l 1,5,-1
 8 -62 l 1,6,-1
 5 67 l 1,7,-1
 64 66 l 1,8,-1
 143 717 l 1,9,-1
 502 715 l 9,10,-1
 487 656 l 21,0,-1
418 66 m 1,11,-1
 418 650 l 2,12,13
 417 651 417 651 416 651 c 0,14,15
 413 654 413 654 210 662 c 1,16,-1
 138 66 l 1,17,-1
 418 66 l 1,11,-1
EndSplineSet
Substitution2: "mark-downsizer-1" afii10021.mark
EndChar

StartChar: afii10024
Encoding: 1046 1046 130
AltUni2: 000436.ffffffff.0
Width: 681
GlyphClass: 2
Flags: W
LayerCount: 2
Fore
SplineSet
579 2 m 1,0,-1
 353 341 l 1,1,-1
 351 55 l 1,2,3
 351 55 351 55 394 4 c 1,4,-1
 249 8 l 1,5,6
 249 8 249 8 288 54 c 1,7,-1
 286 346 l 1,8,-1
 60 6 l 1,9,-1
 5 39 l 1,10,-1
 224 378 l 1,11,-1
 13 667 l 1,12,-1
 88 707 l 1,13,-1
 290 424 l 1,14,-1
 291 680 l 1,15,16
 291 680 291 680 269 713 c 1,17,-1
 383 708 l 1,18,19
 383 708 383 708 357 679 c 5,20,-1
 355 427 l 1,21,-1
 569 707 l 1,22,-1
 628 686 l 1,23,-1
 411 387 l 1,24,-1
 647 48 l 1,25,-1
 579 2 l 1,0,-1
EndSplineSet
Substitution2: "mark-downsizer-1" afii10024.mark
EndChar

StartChar: afii10025
Encoding: 1047 1047 131
AltUni2: 000437.ffffffff.0
Width: 525
GlyphClass: 2
Flags: W
LayerCount: 2
Fore
SplineSet
5 685 m 1,0,1
 55 703 55 703 109.5 711 c 128,-1,2
 164 719 164 719 217 718 c 128,-1,3
 270 717 270 717 319.5 705.5 c 128,-1,4
 369 694 369 694 406.5 674.5 c 128,-1,5
 444 655 444 655 465.5 630 c 128,-1,6
 487 605 487 605 488 569 c 0,7,8
 490 506 490 506 463 465 c 128,-1,9
 436 424 436 424 402.5 400.5 c 128,-1,10
 369 377 369 377 340 366 c 128,-1,11
 311 355 311 355 311 354 c 2,12,-1
 332 346 l 2,13,14
 352 337 352 337 378 316.5 c 128,-1,15
 404 296 404 296 428 262.5 c 128,-1,16
 452 229 452 229 456 182 c 0,17,18
 457 137 457 137 440 108 c 128,-1,19
 423 79 423 79 394.5 58 c 128,-1,20
 366 37 366 37 329 24 c 128,-1,21
 292 11 292 11 253 6 c 0,22,23
 157 -10 157 -10 28 22 c 1,24,-1
 28 84 l 1,25,26
 121 60 121 60 202 63 c 0,27,28
 232 68 232 68 259.5 77 c 128,-1,29
 287 86 287 86 309.5 101.5 c 128,-1,30
 332 117 332 117 344.5 138.5 c 128,-1,31
 357 160 357 160 357 191 c 0,32,33
 357 218 357 218 346.5 237.5 c 128,-1,34
 336 257 336 257 320 270 c 128,-1,35
 304 283 304 283 282.5 290.5 c 128,-1,36
 261 298 261 298 240 302 c 0,37,38
 188 311 188 311 122 304 c 1,39,-1
 122 376 l 2,40,41
 124 377 124 377 144 376.5 c 128,-1,42
 164 376 164 376 194 378 c 128,-1,43
 224 380 224 380 259.5 388 c 128,-1,44
 295 396 295 396 325 414.5 c 128,-1,45
 355 433 355 433 374.5 462.5 c 128,-1,46
 394 492 394 492 393 540 c 0,47,48
 393 580 393 580 367.5 603.5 c 128,-1,49
 342 627 342 627 304 636 c 128,-1,50
 266 645 266 645 221.5 642.5 c 128,-1,51
 177 640 177 640 136.5 631.5 c 128,-1,52
 96 623 96 623 67.5 609.5 c 128,-1,53
 39 596 39 596 29 587 c 1,54,-1
 5 685 l 1,0,1
EndSplineSet
Substitution2: "mark-downsizer-1" afii10025.mark
EndChar

StartChar: Iicyrillic
Encoding: 1048 1048 132
AltUni2: 000438.ffffffff.0
Width: 563
GlyphClass: 2
Flags: W
LayerCount: 2
Fore
SplineSet
498 37 m 1,0,-1
 528 5 l 1,1,-1
 386 0 l 1,2,3
 399 8 399 8 411 16 c 0,4,5
 420 23 420 23 428 31.5 c 128,-1,6
 436 40 436 40 439 46 c 0,7,8
 440 51 440 51 441 578 c 1,9,-1
 25 -11 l 1,10,-1
 5 716 l 1,11,-1
 112 718 l 1,12,13
 82 702 82 702 75 691 c 128,-1,14
 68 680 68 680 65 677 c 0,15,16
 64 674 64 674 74 196 c 1,17,-1
 420 692 l 1,18,-1
 498 691 l 1,19,-1
 498 37 l 1,0,-1
EndSplineSet
Substitution2: "mark-downsizer-1" Iicyrillic.mark
EndChar

StartChar: afii10029
Encoding: 1051 1051 134
AltUni2: 00043b.ffffffff.0
Width: 620
GlyphClass: 2
Flags: W
LayerCount: 2
Fore
SplineSet
0 0 m 1,0,1
 0 0 0 0 0 120 c 1,2,-1
 33 77 l 1,3,4
 209 136 209 136 209 645 c 1,5,-1
 188 719 l 1,6,-1
 553 717 l 1,7,-1
 557 25 l 1,8,9
 570 14 570 14 586 -1 c 1,10,11
 586 -1 586 -1 430 -1 c 1,12,13
 468 24 468 24 474.5 31.5 c 128,-1,14
 481 39 481 39 482 41 c 0,15,16
 483 42 483 42 484 70 c 128,-1,17
 485 98 485 98 486 659 c 1,18,-1
 279 653 l 1,19,20
 284 13 284 13 0 0 c 1,0,1
EndSplineSet
Substitution2: "mark-downsizer-1" afii10029.mark
EndChar

StartChar: afii10033
Encoding: 1055 1055 135
AltUni2: 00043f.ffffffff.0 0003c0.ffffffff.0 0003a0.ffffffff.0
Width: 533
GlyphClass: 2
Flags: W
LayerCount: 2
Fore
SplineSet
34 25 m 1,0,-1
 38 717 l 1,1,-1
 499 715 l 1,2,-1
 478 641 l 1,3,-1
 450 4 l 1,4,-1
 380 4 l 1,5,-1
 409 644 l 1,6,-1
 419 644 l 1,7,8
 414 649 414 649 413 649 c 0,9,10
 410 652 410 652 104 659 c 1,11,12
 105 98 105 98 106.5 70 c 128,-1,13
 108 42 108 42 109 41 c 0,14,15
 110 39 110 39 116.5 31.5 c 128,-1,16
 123 24 123 24 161 -1 c 1,17,-1
 5 -1 l 1,18,19
 21 14 21 14 34 25 c 1,0,-1
EndSplineSet
Substitution2: "mark-downsizer-1" afii10033.mark
EndChar

StartChar: Ucyrillic
Encoding: 1059 1059 136
AltUni2: 000443.ffffffff.0
Width: 588
GlyphClass: 2
Flags: W
LayerCount: 2
Fore
SplineSet
5 716 m 1,0,-1
 145 711 l 1,1,-1
 131 699 l 2,2,3
 126 695 126 695 122 690 c 128,-1,4
 118 685 118 685 117 683 c 0,5,6
 117 681 117 681 342 396 c 1,7,8
 431 664 431 664 430 667 c 0,9,10
 428 671 428 671 422 677 c 128,-1,11
 416 683 416 683 409 690 c 0,12,13
 401 698 401 698 390 708 c 1,14,-1
 554 701 l 1,15,-1
 507 658 l 1,16,-1
 407 358 l 2,17,18
 346 184 346 184 324.5 135.5 c 128,-1,19
 303 87 303 87 289 66 c 128,-1,20
 275 45 275 45 260.5 29 c 128,-1,21
 246 13 246 13 220.5 4 c 128,-1,22
 195 -5 195 -5 162.5 0 c 128,-1,23
 130 5 130 5 95 37 c 2,24,-1
 26 103 l 1,25,-1
 110 183 l 1,26,-1
 100 135 l 1,27,28
 118 107 118 107 142 89.5 c 128,-1,29
 166 72 166 72 188.5 75.5 c 128,-1,30
 211 79 211 79 232.5 118 c 128,-1,31
 254 157 254 157 312 308 c 1,32,33
 151 506 151 506 123 547.5 c 128,-1,34
 95 589 95 589 70 624 c 128,-1,35
 45 659 45 659 26.5 685 c 128,-1,36
 8 711 8 711 5 716 c 1,0,-1
EndSplineSet
Substitution2: "mark-downsizer-1" Ucyrillic.mark
EndChar

StartChar: afii10038
Encoding: 1060 1060 137
AltUni2: 000444.ffffffff.0 0003c6.ffffffff.0 0003a6.ffffffff.0
Width: 704
GlyphClass: 2
Flags: W
LayerCount: 2
Fore
SplineSet
521 183 m 0,0,1
 529 191 529 191 540.5 203.5 c 128,-1,2
 552 216 552 216 563.5 232 c 128,-1,3
 575 248 575 248 583 271.5 c 128,-1,4
 591 295 591 295 594.5 323 c 128,-1,5
 598 351 598 351 593 399 c 128,-1,6
 588 447 588 447 555 487.5 c 128,-1,7
 522 528 522 528 475 546.5 c 128,-1,8
 428 565 428 565 364 572 c 1,9,-1
 367 119 l 1,10,11
 413 117 413 117 453.5 138.5 c 128,-1,12
 494 160 494 160 521 183 c 0,0,1
184.5 161 m 128,-1,14
 242 119 242 119 288 119 c 1,15,-1
 294 577 l 1,16,17
 265 580 265 580 228 569.5 c 128,-1,18
 191 559 191 559 168.5 545 c 128,-1,19
 146 531 146 531 132.5 518 c 128,-1,20
 119 505 119 505 106.5 490 c 128,-1,21
 94 475 94 475 84.5 454 c 128,-1,22
 75 433 75 433 74 405 c 128,-1,23
 73 377 73 377 75 342 c 128,-1,24
 77 307 77 307 102 255 c 128,-1,13
 127 203 127 203 184.5 161 c 128,-1,14
364 631 m 1,25,26
 407 627 407 627 453 619 c 128,-1,27
 499 611 499 611 558 578 c 1,28,29
 627 526 627 526 648.5 458 c 128,-1,30
 670 390 670 390 668 334.5 c 128,-1,31
 666 279 666 279 648 236.5 c 128,-1,32
 630 194 630 194 590 152.5 c 128,-1,33
 550 111 550 111 485.5 83.5 c 128,-1,34
 421 56 421 56 368 57 c 1,35,-1
 369 24 l 1,36,-1
 389 0 l 1,37,-1
 265 1 l 1,38,-1
 288 23 l 1,39,-1
 287 58 l 1,40,41
 239 61 239 61 188.5 85 c 128,-1,42
 138 109 138 109 93 156 c 0,43,44
 40 210 40 210 22.5 267 c 128,-1,45
 5 324 5 324 5.5 375.5 c 128,-1,46
 6 427 6 427 21.5 462.5 c 128,-1,47
 37 498 37 498 63 527.5 c 128,-1,48
 89 557 89 557 131.5 583.5 c 128,-1,49
 174 610 174 610 214 619.5 c 128,-1,50
 254 629 254 629 295 632 c 1,51,-1
 297 679 l 2,52,53
 296 690 296 690 270 716 c 1,54,-1
 392 718 l 1,55,56
 368 696 368 696 365 683 c 2,57,-1
 364 631 l 1,25,26
EndSplineSet
Substitution2: "mark-downsizer-1" afii10038.mark
EndChar

StartChar: afii10040
Encoding: 1062 1062 138
AltUni2: 000446.ffffffff.0
Width: 600
GlyphClass: 2
Flags: W
LayerCount: 2
Fore
SplineSet
5 717 m 1,0,-1
 194 717 l 1,1,2
 148 692 148 692 139.5 684.5 c 128,-1,3
 131 677 131 677 130 675 c 0,4,5
 129 674 129 674 127.5 645.5 c 128,-1,6
 126 617 126 617 125 56 c 1,7,8
 435 54 435 54 439 57 c 0,9,10
 441 57 441 57 451 58 c 1,11,-1
 436 697 l 1,12,-1
 520 697 l 1,13,-1
 520 60 l 1,14,15
 539 61 539 61 562 61 c 1,16,-1
 565 -79 l 1,17,18
 535 -22 535 -22 511 -1 c 1,19,-1
 45 -1 l 1,20,-1
 40 691 l 1,21,22
 23 703 23 703 5 717 c 1,0,-1
EndSplineSet
Substitution2: "mark-downsizer-1" afii10040.mark
EndChar

StartChar: afii10041
Encoding: 1063 1063 139
AltUni2: 000447.ffffffff.0
Width: 556
GlyphClass: 2
Flags: W
LayerCount: 2
Fore
SplineSet
446 361 m 5,0,-1
 449 688 l 1,1,-1
 419 719 l 1,2,-1
 521 721 l 1,3,-1
 515 0 l 1,4,-1
 415 1 l 1,5,-1
 445 33 l 1,6,-1
 447 312 l 1,7,8
 379 304 379 304 339 304 c 0,9,10
 294 303 294 303 237 311 c 128,-1,11
 180 319 180 319 130.5 350 c 128,-1,12
 81 381 81 381 63 409.5 c 128,-1,13
 45 438 45 438 33.5 482 c 128,-1,14
 22 526 22 526 19 567 c 128,-1,15
 16 608 16 608 17.5 643.5 c 128,-1,16
 19 679 19 679 16 698 c 1,17,-1
 10 713 l 2,18,19
 7 717 7 717 5 722 c 1,20,-1
 142 715 l 1,21,22
 131 709 131 709 122 700.5 c 128,-1,23
 113 692 113 692 105.5 686.5 c 128,-1,24
 98 681 98 681 97 675 c 0,25,26
 95 639 95 639 95 600 c 128,-1,27
 95 561 95 561 99.5 524.5 c 128,-1,28
 104 488 104 488 116 455 c 0,29,30
 124 430 124 430 147 404 c 0,31,32
 173 376 173 376 202 369 c 0,33,34
 290 346 290 346 446 361 c 5,0,-1
EndSplineSet
Substitution2: "mark-downsizer-1" afii10041.mark
EndChar

StartChar: afii10042
Encoding: 1064 1064 140
AltUni2: 000448.ffffffff.0
Width: 717
GlyphClass: 2
Flags: W
LayerCount: 2
Fore
SplineSet
5 717 m 1,0,-1
 194 717 l 1,1,2
 148 692 148 692 139.5 684.5 c 128,-1,3
 131 677 131 677 130 675 c 0,4,5
 129 674 129 674 127.5 645.5 c 128,-1,6
 126 617 126 617 125 56 c 1,7,8
 238 58 238 58 323 60 c 1,9,-1
 323 712 l 1,10,-1
 395 712 l 1,11,-1
 395 61 l 1,12,13
 577 65 577 65 580 67 c 0,14,15
 582 67 582 67 591 75 c 1,16,-1
 577 707 l 1,17,-1
 660 707 l 1,18,-1
 660 68 l 1,19,-1
 683 1 l 1,20,-1
 45 -1 l 1,21,-1
 40 691 l 1,22,23
 23 703 23 703 5 717 c 1,0,-1
EndSplineSet
Substitution2: "mark-downsizer-1" afii10042.mark
EndChar

StartChar: afii10043
Encoding: 1065 1065 141
AltUni2: 000449.ffffffff.0
Width: 748
GlyphClass: 2
Flags: W
LayerCount: 2
Fore
SplineSet
5 717 m 1,0,-1
 194 717 l 1,1,2
 148 692 148 692 139.5 684.5 c 128,-1,3
 131 677 131 677 130 675 c 0,4,5
 129 674 129 674 127.5 645.5 c 128,-1,6
 126 617 126 617 125 56 c 1,7,-1
 323 61 l 1,8,-1
 323 712 l 1,9,-1
 395 712 l 1,10,-1
 395 63 l 1,11,-1
 592 68 l 1,12,-1
 578 716 l 1,13,-1
 662 716 l 1,14,-1
 662 69 l 1,15,-1
 714 71 l 1,16,-1
 706 -80 l 1,17,18
 676 -15 676 -15 651 -2 c 1,19,-1
 45 -1 l 1,20,-1
 40 691 l 1,21,22
 23 703 23 703 5 717 c 1,0,-1
EndSplineSet
Substitution2: "mark-downsizer-1" afii10043.mark
EndChar

StartChar: afii10044
Encoding: 1066 1066 142
AltUni2: 00044a.ffffffff.0
Width: 624
GlyphClass: 2
Flags: W
LayerCount: 2
Fore
SplineSet
2 729 m 1,0,-1
 177 724 l 1,1,-1
 177 395 l 1,2,3
 254 394 254 394 280 391 c 0,4,5
 326 386 326 386 372 376.5 c 128,-1,6
 418 367 418 367 458 348.5 c 128,-1,7
 498 330 498 330 528 302 c 0,8,9
 561 272 561 272 573 236 c 0,10,11
 590 187 590 187 577 146 c 0,12,13
 564 109 564 109 532 82.5 c 128,-1,14
 500 56 500 56 453 41 c 0,15,16
 399 24 399 24 356 16 c 0,17,18
 235 -3 235 -3 74 6 c 1,19,-1
 72 54 l 1,20,21
 92 52 92 52 112 51 c 1,22,-1
 111 670 l 1,23,-1
 45 672 l 1,24,-1
 2 625 l 1,25,-1
 2 729 l 1,0,-1
180 48 m 1,26,27
 223 47 223 47 290 55 c 0,28,29
 331 60 331 60 369 69 c 0,30,31
 407 79 407 79 439 97 c 0,32,33
 471 115 471 115 487 140 c 0,34,35
 502 163 502 163 498 204 c 0,36,37
 495 236 495 236 477.5 257.5 c 128,-1,38
 460 279 460 279 435 295 c 0,39,40
 410 312 410 312 380.5 321 c 128,-1,41
 351 330 351 330 319 336 c 0,42,43
 264 345 264 345 178 345 c 1,44,-1
 180 48 l 1,26,27
EndSplineSet
Substitution2: "mark-downsizer-1" afii10044.mark
EndChar

StartChar: afii10045
Encoding: 1067 1067 143
AltUni2: 00044b.ffffffff.0
Width: 739
GlyphClass: 2
Flags: W
LayerCount: 2
Fore
SplineSet
522 717 m 1,0,-1
 662 717 l 1,1,2
 653 709 653 709 645 701 c 0,3,4
 640 695 640 695 634 689 c 128,-1,5
 628 683 628 683 627 679 c 0,6,7
 627 678 627 678 629 368.5 c 128,-1,8
 631 59 631 59 632 58 c 0,9,10
 634 55 634 55 693 3 c 1,11,-1
 524 1 l 1,12,13
 553 29 553 29 558 39 c 0,14,15
 560 43 560 43 562.5 355 c 128,-1,16
 565 667 565 667 565 670 c 0,17,18
 562 675 562 675 556 682.5 c 128,-1,19
 550 690 550 690 522 717 c 1,0,-1
52 725 m 25,20,-1
 119 724 l 17,21,-1
 119 395 l 1,22,23
 196 394 196 394 221 391 c 0,24,25
 267 386 267 386 313 376.5 c 128,-1,26
 359 367 359 367 399 348.5 c 128,-1,27
 439 330 439 330 470 302 c 0,28,29
 503 272 503 272 515 236 c 0,30,31
 532 187 532 187 519 146 c 0,32,33
 506 109 506 109 473.5 82.5 c 128,-1,34
 441 56 441 56 395 41 c 0,35,36
 341 24 341 24 298 16 c 0,37,38
 177 -3 177 -3 15 6 c 1,39,-1
 13 54 l 1,40,41
 33 52 33 52 53 51 c 9,42,-1
 52 725 l 25,20,-1
121 48 m 1,43,44
 164 47 164 47 231 55 c 0,45,46
 272 60 272 60 311 69 c 0,47,48
 349 79 349 79 381 97 c 0,49,50
 413 115 413 115 429 140 c 0,51,52
 444 163 444 163 439 204 c 0,53,54
 436 236 436 236 418.5 257.5 c 128,-1,55
 401 279 401 279 376 295 c 0,56,57
 351 312 351 312 322 321 c 128,-1,58
 293 330 293 330 261 336 c 0,59,60
 206 345 206 345 120 345 c 1,61,-1
 121 48 l 1,43,44
EndSplineSet
Substitution2: "mark-downsizer-1" afii10045.mark
EndChar

StartChar: afii10046
Encoding: 1068 1068 144
AltUni2: 00044c.ffffffff.0
Width: 566
GlyphClass: 2
Flags: W
LayerCount: 2
Fore
SplineSet
52 725 m 25,0,-1
 119 724 l 17,1,-1
 119 395 l 1,2,3
 196 394 196 394 221 391 c 0,4,5
 267 386 267 386 313 376.5 c 128,-1,6
 359 367 359 367 399 348.5 c 128,-1,7
 439 330 439 330 470 302 c 0,8,9
 503 272 503 272 515 236 c 0,10,11
 532 187 532 187 519 146 c 0,12,13
 506 109 506 109 473.5 82.5 c 128,-1,14
 441 56 441 56 395 41 c 0,15,16
 341 24 341 24 298 16 c 0,17,18
 177 -3 177 -3 15 6 c 1,19,-1
 13 54 l 1,20,21
 33 52 33 52 53 51 c 9,22,-1
 52 725 l 25,0,-1
121 48 m 1,23,24
 164 47 164 47 231 55 c 0,25,26
 272 60 272 60 311 69 c 0,27,28
 349 79 349 79 381 97 c 0,29,30
 413 115 413 115 429 140 c 0,31,32
 444 163 444 163 439 204 c 0,33,34
 436 236 436 236 418.5 257.5 c 128,-1,35
 401 279 401 279 376 295 c 0,36,37
 351 312 351 312 322 321 c 128,-1,38
 293 330 293 330 261 336 c 0,39,40
 206 345 206 345 120 345 c 1,41,-1
 121 48 l 1,23,24
EndSplineSet
Substitution2: "mark-downsizer-1" afii10046.mark
EndChar

StartChar: afii10047
Encoding: 1069 1069 145
AltUni2: 00044d.ffffffff.0
Width: 523
GlyphClass: 2
Flags: W
LayerCount: 2
Fore
SplineSet
5 40 m 1,0,-1
 26 102 l 1,1,2
 143 62 143 62 208 63 c 1,3,4
 261 68 261 68 294.5 81.5 c 128,-1,5
 328 95 328 95 352.5 129 c 128,-1,6
 377 163 377 163 390 230 c 0,7,8
 399 276 399 276 400 327 c 1,9,-1
 121 327 l 1,10,-1
 121 383 l 1,11,-1
 398 383 l 1,12,13
 393 456 393 456 377 506 c 0,14,15
 360 559 360 559 336 591.5 c 128,-1,16
 312 624 312 624 282 639.5 c 128,-1,17
 252 655 252 655 221 659 c 0,18,19
 163 666 163 666 93 642 c 1,20,21
 93 642 93 642 53 567 c 1,22,-1
 24 709 l 1,23,24
 154 731 154 731 260 702 c 0,25,26
 304 691 304 691 345 666.5 c 128,-1,27
 386 642 386 642 418.5 601.5 c 128,-1,28
 451 561 451 561 469.5 500 c 128,-1,29
 488 439 488 439 486 354 c 0,30,31
 483 267 483 267 459 195 c 128,-1,32
 435 123 435 123 366.5 68.5 c 128,-1,33
 298 14 298 14 197 4 c 128,-1,34
 96 -6 96 -6 5 40 c 1,0,-1
EndSplineSet
Substitution2: "mark-downsizer-1" afii10047.mark
EndChar

StartChar: afii10048
Encoding: 1070 1070 146
AltUni2: 00044e.ffffffff.0
Width: 882
GlyphClass: 2
Flags: W
LayerCount: 2
Fore
SplineSet
112 719 m 1,0,-1
 110 401 l 1,1,-1
 240 400 l 1,2,3
 246 482 246 482 270 538 c 0,4,5
 297 599 297 599 333 636 c 128,-1,6
 369 673 369 673 417.5 695 c 128,-1,7
 466 717 466 717 534 718 c 0,8,9
 617 717 617 717 684 686 c 0,10,11
 714 674 714 674 741.5 652.5 c 128,-1,12
 769 631 769 631 792 597.5 c 128,-1,13
 815 564 815 564 829.5 517.5 c 128,-1,14
 844 471 844 471 847 411 c 0,15,16
 848 310 848 310 822.5 234 c 128,-1,17
 797 158 797 158 754 106.5 c 128,-1,18
 711 55 711 55 656 28.5 c 128,-1,19
 601 2 601 2 543.5 1 c 128,-1,20
 486 0 486 0 429.5 21.5 c 128,-1,21
 373 43 373 43 328.5 89.5 c 128,-1,22
 284 136 284 136 258 209 c 0,23,24
 236 271 236 271 237 352 c 1,25,-1
 109 344 l 1,26,-1
 112 3 l 1,27,-1
 31 0 l 1,28,-1
 4 715 l 1,29,-1
 112 719 l 1,0,-1
764 346 m 0,30,31
 769 419 769 419 756 471 c 128,-1,32
 743 523 743 523 720 560 c 128,-1,33
 697 597 697 597 669.5 620 c 128,-1,34
 642 643 642 643 610.5 656 c 128,-1,35
 579 669 579 669 540 670 c 0,36,37
 535 670 535 670 519 669.5 c 128,-1,38
 503 669 503 669 482 664 c 128,-1,39
 461 659 461 659 439 647.5 c 128,-1,40
 417 636 417 636 393.5 614 c 128,-1,41
 370 592 370 592 352.5 549 c 128,-1,42
 335 506 335 506 328 443 c 0,43,44
 317 349 317 349 334 273 c 128,-1,45
 351 197 351 197 385 143 c 128,-1,46
 419 89 419 89 464 61 c 128,-1,47
 509 33 509 33 553 35 c 0,48,49
 576 35 576 35 608.5 43.5 c 128,-1,50
 641 52 641 52 673 83 c 128,-1,51
 705 114 705 114 730.5 175.5 c 128,-1,52
 756 237 756 237 764 346 c 0,30,31
EndSplineSet
Substitution2: "mark-downsizer-1" afii10048.mark
EndChar

StartChar: afii10049
Encoding: 1071 1071 147
AltUni2: 00044f.ffffffff.0
Width: 513
GlyphClass: 2
Flags: W
LayerCount: 2
Fore
SplineSet
476 651 m 1,0,-1
 422 656 l 1,1,2
 434 29 434 29 434 28 c 0,3,4
 435 26 435 26 440 21 c 128,-1,5
 445 16 445 16 452 10 c 0,6,7
 458 5 458 5 467 -2 c 1,8,-1
 300 1 l 1,9,10
 314 15 314 15 327 28 c 0,11,12
 337 38 337 38 345.5 47 c 128,-1,13
 354 56 354 56 356 58 c 0,14,15
 356 59 356 59 359 364 c 1,16,-1
 48 2 l 1,17,-1
 5 55 l 1,18,-1
 277 376 l 1,19,20
 247 378 247 378 228 380 c 0,21,22
 190 386 190 386 151 400 c 128,-1,23
 112 414 112 414 81.5 435 c 128,-1,24
 51 456 51 456 31.5 486.5 c 128,-1,25
 12 517 12 517 11 563 c 0,26,27
 10 599 10 599 30 624 c 128,-1,28
 50 649 50 649 83 666 c 128,-1,29
 116 683 116 683 157.5 694.5 c 128,-1,30
 199 706 199 706 244 711 c 0,31,32
 347 721 347 721 478 711 c 1,33,-1
 476 651 l 1,0,-1
360 434 m 1,34,35
 361 534 361 534 362 660 c 1,36,37
 334 663 334 663 290.5 664.5 c 128,-1,38
 247 666 247 666 204.5 656.5 c 128,-1,39
 162 647 162 647 128 623.5 c 128,-1,40
 94 600 94 600 87 553 c 0,41,42
 85 527 85 527 94.5 510 c 128,-1,43
 104 493 104 493 123 479.5 c 128,-1,44
 142 466 142 466 167.5 457.5 c 128,-1,45
 193 449 193 449 219 443 c 0,46,47
 280 430 280 430 360 434 c 1,34,35
EndSplineSet
Substitution2: "mark-downsizer-1" afii10049.mark
EndChar

StartChar: endash
Encoding: 8211 8211 148
Width: 246
GlyphClass: 2
Flags: W
LayerCount: 2
Fore
SplineSet
7 388 m 1,0,-1
 191 418 l 1,1,-1
 197 387 l 1,2,-1
 29 338 l 1,3,-1
 7 388 l 1,0,-1
EndSplineSet
EndChar

StartChar: emdash
Encoding: 8212 8212 149
Width: 367
GlyphClass: 2
Flags: W
LayerCount: 2
Fore
SplineSet
0 347 m 1,0,-1
 314 364 l 1,1,-1
 312 308 l 1,2,-1
 3 315 l 1,3,-1
 0 347 l 1,0,-1
EndSplineSet
EndChar

StartChar: quoteleft
Encoding: 8216 8216 150
Width: 144
GlyphClass: 2
Flags: W
LayerCount: 2
Fore
SplineSet
18 659 m 0,0,1
 7 678 7 678 8 698 c 0,2,3
 10 714 10 714 22 734 c 128,-1,4
 34 754 34 754 72 771 c 1,5,-1
 86 754 l 1,6,7
 60 747 60 747 51 738 c 128,-1,8
 42 729 42 729 41 721 c 1,9,10
 67 725 67 725 82 699 c 0,11,12
 91 684 91 684 88.5 667 c 128,-1,13
 86 650 86 650 72 642 c 0,14,15
 58 636 58 636 42.5 640.5 c 128,-1,16
 27 645 27 645 18 659 c 0,0,1
EndSplineSet
EndChar

StartChar: quoteright
Encoding: 8217 8217 151
Width: 142
GlyphClass: 2
Flags: W
LayerCount: 2
Fore
SplineSet
68 758 m 0,0,1
 85 743 85 743 90 724 c 0,2,3
 95 708 95 708 89 686 c 128,-1,4
 83 664 83 664 55 634 c 1,5,-1
 34 647 l 1,6,7
 57 662 57 662 62.5 673 c 128,-1,8
 68 684 68 684 67 692 c 1,9,10
 57 687 57 687 44.5 688.5 c 128,-1,11
 32 690 32 690 22 699 c 0,12,13
 8 711 8 711 5 727.5 c 128,-1,14
 2 744 2 744 12 757 c 0,15,16
 22 768 22 768 38 768 c 128,-1,17
 54 768 54 768 68 758 c 0,0,1
EndSplineSet
EndChar

StartChar: quotedblleft
Encoding: 8220 8220 152
Width: 204
GlyphClass: 2
Flags: W
LayerCount: 2
Fore
SplineSet
105 702 m 1,0,1
 127 700 127 700 133 676 c 0,2,3
 136 662 136 662 129.5 648.5 c 128,-1,4
 123 635 123 635 112 632 c 0,5,6
 99 630 99 630 87.5 637 c 128,-1,7
 76 644 76 644 73 657 c 2,8,-1
 73 655 l 1,9,10
 69 673 69 673 74 690 c 0,11,12
 79 703 79 703 94.5 717 c 128,-1,13
 110 731 110 731 142 737 c 1,14,-1
 152 718 l 1,15,16
 128 718 128 718 118 713 c 128,-1,17
 108 708 108 708 105 702 c 1,0,1
29 726 m 1,18,19
 51 729 51 729 62 708 c 0,20,21
 69 695 69 695 67.5 680.5 c 128,-1,22
 66 666 66 666 54 658 c 0,23,24
 43 653 43 653 30.5 656.5 c 128,-1,25
 18 660 18 660 9 673 c 0,26,27
 1 689 1 689 2 704.5 c 128,-1,28
 3 720 3 720 14 736 c 128,-1,29
 25 752 25 752 55 769 c 1,30,-1
 68 752 l 1,31,32
 45 746 45 746 37.5 739 c 128,-1,33
 30 732 30 732 29 726 c 1,18,19
EndSplineSet
EndChar

StartChar: quotedblright
Encoding: 8221 8221 153
Width: 185
GlyphClass: 2
Flags: W
LayerCount: 2
Fore
SplineSet
52 684 m 1,0,1
 34 674 34 674 16 688 c 0,2,3
 5 698 5 698 2.5 711.5 c 128,-1,4
 0 725 0 725 8 735 c 0,5,6
 16 744 16 744 28 745 c 128,-1,7
 40 746 40 746 51 737 c 0,8,9
 64 727 64 727 70 712 c 0,10,11
 74 699 74 699 69.5 679.5 c 128,-1,12
 65 660 65 660 44 636 c 1,13,-1
 27 647 l 1,14,15
 44 659 44 659 49 668.5 c 128,-1,16
 54 678 54 678 52 684 c 1,0,1
125 711 m 1,17,18
 111 697 111 697 88 705 c 0,19,20
 75 711 75 711 68.5 723 c 128,-1,21
 62 735 62 735 68 748 c 0,22,23
 73 759 73 759 84 763 c 128,-1,24
 95 767 95 767 108 762 c 0,25,26
 124 755 124 755 132 741 c 0,27,28
 139 730 139 730 141 711 c 128,-1,29
 143 692 143 692 130 663 c 1,30,-1
 112 668 l 1,31,32
 125 685 125 685 126 695 c 128,-1,33
 127 705 127 705 125 711 c 1,17,18
EndSplineSet
EndChar

StartChar: fraction
Encoding: 8260 8260 154
Width: 293
GlyphClass: 2
Flags: W
LayerCount: 2
Fore
SplineSet
190 573 m 1,0,-1
 252 563 l 1,1,-1
 34 63 l 1,2,-1
 0 75 l 1,3,-1
 190 573 l 1,0,-1
EndSplineSet
EndChar

StartChar: Euro
Encoding: 8364 8364 155
Width: 416
GlyphClass: 2
Flags: W
LayerCount: 2
Fore
SplineSet
355 125 m 1,0,1
 279 114 279 114 219 130 c 0,2,3
 192 137 192 137 167 151 c 128,-1,4
 142 165 142 165 122 188.5 c 128,-1,5
 102 212 102 212 88.5 247 c 128,-1,6
 75 282 75 282 72 329 c 1,7,-1
 34 331 l 1,8,-1
 32 360 l 1,9,-1
 72 365 l 1,10,-1
 72 371 l 2,11,12
 72 377 72 377 72.5 381.5 c 128,-1,13
 73 386 73 386 73 391 c 1,14,-1
 4 386 l 1,15,-1
 0 421 l 1,16,-1
 77 422 l 1,17,18
 86 485 86 485 108.5 523.5 c 128,-1,19
 131 562 131 562 158.5 584 c 128,-1,20
 186 606 186 606 218.5 614 c 128,-1,21
 251 622 251 622 277.5 620 c 128,-1,22
 304 618 304 618 324 610.5 c 128,-1,23
 344 603 344 603 350 596 c 1,24,-1
 351 536 l 1,25,26
 329 555 329 555 318 566 c 1,27,28
 289 577 289 577 271 578.5 c 128,-1,29
 253 580 253 580 233.5 576 c 128,-1,30
 214 572 214 572 196.5 559 c 128,-1,31
 179 546 179 546 161 512.5 c 128,-1,32
 143 479 143 479 140 422 c 1,33,-1
 190 422 l 1,34,-1
 189 396 l 1,35,-1
 138 393 l 1,36,-1
 138 377 l 1,37,-1
 138 369 l 1,38,-1
 221 376 l 1,39,-1
 220 326 l 1,40,-1
 141 328 l 1,41,42
 146 272 146 272 161.5 238.5 c 128,-1,43
 177 205 177 205 197.5 188.5 c 128,-1,44
 218 172 218 172 239.5 167.5 c 128,-1,45
 261 163 261 163 279 165.5 c 128,-1,46
 297 168 297 168 309.5 171.5 c 128,-1,47
 322 175 322 175 322 177 c 2,48,-1
 354 229 l 1,49,-1
 355 125 l 1,0,1
EndSplineSet
EndChar

StartChar: trademark
Encoding: 8482 8482 156
Width: 358
GlyphClass: 2
Flags: W
LayerCount: 2
Fore
SplineSet
150 567 m 1,0,-1
 150 720 l 1,1,-1
 160 720 l 1,2,-1
 221 599 l 1,3,-1
 278 719 l 1,4,-1
 296 719 l 1,5,-1
 306 568 l 1,6,-1
 282 568 l 1,7,-1
 276 689 l 1,8,-1
 217 570 l 1,9,-1
 162 684 l 1,10,-1
 167 566 l 1,11,-1
 150 567 l 1,0,-1
2 720 m 1,12,-1
 133 719 l 1,13,-1
 132 707 l 1,14,-1
 71 707 l 1,15,-1
 82 568 l 1,16,-1
 60 567 l 1,17,-1
 56 709 l 1,18,-1
 3 709 l 1,19,-1
 2 720 l 1,12,-1
EndSplineSet
EndChar

StartChar: minus
Encoding: 8722 8722 157
Width: 326
GlyphClass: 2
Flags: W
LayerCount: 2
Fore
SplineSet
0 415 m 1,0,-1
 263 431 l 1,1,-1
 261 376 l 1,2,-1
 3 383 l 1,3,-1
 0 415 l 1,0,-1
EndSplineSet
EndChar

StartChar: Scedilla
Encoding: 350 350 158
AltUni2: 00015f.ffffffff.0
Width: 389
Flags: W
LayerCount: 2
Fore
SplineSet
153 7 m 2,0,1
 153 6 153 6 153 6 c 2,2,-1
 153 7 l 2,0,1
EndSplineSet
Refer: 77 184 S 1 0 0 1 143 -61 2
Refer: 51 83 N 1 0 0 1 0 0 2
EndChar

StartChar: yen
Encoding: 165 165 161
Width: 464
Flags: W
LayerCount: 2
Fore
SplineSet
300 300 m 25,0,-1
 300 270 l 25,1,-1
 114 270 l 25,2,-1
 112 292 l 25,3,-1
 300 300 l 25,0,-1
305 341 m 25,4,-1
 306 324 l 25,5,-1
 117 325 l 25,6,-1
 120 356 l 25,7,-1
 305 341 l 25,4,-1
EndSplineSet
Refer: 57 89 N 0.75 0 0 0.75 0 83 2
EndChar

StartChar: guillemotleft
Encoding: 171 171 162
Width: 287
Flags: W
LayerCount: 2
Fore
SplineSet
110 479 m 1,0,-1
 132 447 l 1,1,-1
 42 354 l 1,2,-1
 128 271 l 1,3,-1
 99 230 l 1,4,-1
 1 344 l 1,5,-1
 110 479 l 1,0,-1
214 479 m 1,6,-1
 237 447 l 1,7,-1
 146 354 l 1,8,-1
 232 271 l 1,9,-1
 204 230 l 1,10,-1
 105 344 l 1,11,-1
 214 479 l 1,6,-1
EndSplineSet
EndChar

StartChar: guillemotright
Encoding: 187 187 163
Width: 287
Flags: W
LayerCount: 2
Fore
SplineSet
128 230 m 1,0,-1
 105 262 l 1,1,-1
 196 355 l 1,2,-1
 110 438 l 1,3,-1
 138 479 l 1,4,-1
 237 366 l 1,5,-1
 128 230 l 1,0,-1
24 230 m 1,6,-1
 1 262 l 1,7,-1
 91 355 l 1,8,-1
 5 438 l 1,9,-1
 34 479 l 1,10,-1
 132 366 l 1,11,-1
 24 230 l 1,6,-1
EndSplineSet
EndChar

StartChar: uni00AD
Encoding: 173 173 168
Width: 286
Flags: W
LayerCount: 2
Fore
SplineSet
0 356 m 1,0,-1
 231 377 l 1,1,-1
 227 309 l 1,2,-1
 3 317 l 1,3,-1
 0 356 l 1,0,-1
EndSplineSet
EndChar

StartChar: degree
Encoding: 176 176 169
Width: 124
Flags: W
LayerCount: 2
Fore
SplineSet
61.5 692 m 128,-1,1
 68 692 68 692 75.5 694 c 128,-1,2
 83 696 83 696 90 701 c 128,-1,3
 97 706 97 706 100.5 713.5 c 128,-1,4
 104 721 104 721 104 732 c 0,5,6
 103 743 103 743 98.5 749 c 128,-1,7
 94 755 94 755 88 759 c 128,-1,8
 82 763 82 763 75.5 764.5 c 128,-1,9
 69 766 69 766 66 766 c 0,10,11
 48 767 48 767 34.5 756 c 128,-1,12
 21 745 21 745 21 724 c 0,13,14
 21 716 21 716 25 710 c 128,-1,15
 29 704 29 704 35 700 c 128,-1,16
 41 696 41 696 48 694 c 128,-1,0
 55 692 55 692 61.5 692 c 128,-1,1
58 677 m 1,17,18
 34 678 34 678 22.5 684.5 c 128,-1,19
 11 691 11 691 5 702 c 128,-1,20
 -1 713 -1 713 0 729 c 0,21,22
 1 746 1 746 8 757 c 128,-1,23
 15 768 15 768 25 773.5 c 128,-1,24
 35 779 35 779 45 781 c 128,-1,25
 55 783 55 783 63.5 783 c 128,-1,26
 72 783 72 783 81.5 781 c 128,-1,27
 91 779 91 779 101 773.5 c 128,-1,28
 111 768 111 768 117 758 c 0,29,30
 126 745 126 745 125 730 c 0,31,32
 124 715 124 715 118.5 704.5 c 128,-1,33
 113 694 113 694 99 685 c 0,34,35
 87 677 87 677 58 677 c 1,17,18
EndSplineSet
EndChar

StartChar: ordmasculine
Encoding: 186 186 170
Width: 124
Flags: W
LayerCount: 2
Fore
SplineSet
-2 655 m 1,0,-1
 119 665 l 1,1,-1
 116 633 l 1,2,-1
 0 633 l 1,3,-1
 -2 655 l 1,0,-1
EndSplineSet
Refer: 169 176 S 1 0 0 1 0 0 2
EndChar

StartChar: macron
Encoding: 175 175 174
Width: 204
Flags: W
LayerCount: 2
Fore
SplineSet
0 687 m 1,0,-1
 201 695 l 1,1,-1
 205 656 l 1,2,-1
 3 658 l 1,3,-1
 0 687 l 1,0,-1
EndSplineSet
EndChar

StartChar: Deltagreek
Encoding: 916 916 178
AltUni2: 0003b4.ffffffff.0
Width: 507
Flags: W
AnchorPoint: "top" 212 699 basechar 0
LayerCount: 2
Fore
SplineSet
391 49 m 1,0,-1
 205 543 l 1,1,-1
 71 41 l 1,2,-1
 391 49 l 1,0,-1
0 0 m 1,3,-1
 211 722 l 1,4,-1
 492 10 l 1,5,-1
 0 0 l 1,3,-1
EndSplineSet
Substitution2: "mark-downsizer-1" Deltagreek.mark
EndChar

StartChar: Theta
Encoding: 920 920 179
AltUni2: 0003b8.ffffffff.0
Width: 654
Flags: W
AnchorPoint: "top" 298 706 basechar 0
LayerCount: 2
Fore
SplineSet
198 433 m 1,0,-1
 230 394 l 1,1,-1
 371 395 l 1,2,-1
 414 437 l 1,3,-1
 408 292 l 1,4,-1
 369 331 l 1,5,-1
 234 338 l 1,6,-1
 202 307 l 1,7,-1
 198 433 l 1,0,-1
304 718 m 0,8,9
 387 717 387 717 455 686 c 0,10,11
 485 674 485 674 512.5 652.5 c 128,-1,12
 540 631 540 631 563 597.5 c 128,-1,13
 586 564 586 564 600 517.5 c 128,-1,14
 614 471 614 471 617 411 c 0,15,16
 618 310 618 310 592.5 234 c 128,-1,17
 567 158 567 158 524 106.5 c 128,-1,18
 481 55 481 55 426.5 28.5 c 128,-1,19
 372 2 372 2 314.5 1 c 128,-1,20
 257 0 257 0 200 21.5 c 128,-1,21
 143 43 143 43 98.5 89.5 c 128,-1,22
 54 136 54 136 28.5 209 c 128,-1,23
 3 282 3 282 9 382 c 0,24,25
 13 476 13 476 40.5 537.5 c 128,-1,26
 68 599 68 599 103.5 636 c 128,-1,27
 139 673 139 673 187.5 695 c 128,-1,28
 236 717 236 717 304 718 c 0,8,9
531 352 m 0,29,30
 536 425 536 425 523.5 477 c 128,-1,31
 511 529 511 529 488 566 c 128,-1,32
 465 603 465 603 437.5 626 c 128,-1,33
 410 649 410 649 378 662 c 128,-1,34
 346 675 346 675 307 676 c 0,35,36
 302 676 302 676 286 675.5 c 128,-1,37
 270 675 270 675 249 670.5 c 128,-1,38
 228 666 228 666 206 654 c 128,-1,39
 184 642 184 642 160.5 620 c 128,-1,40
 137 598 137 598 119.5 555 c 128,-1,41
 102 512 102 512 95 450 c 0,42,43
 84 356 84 356 101.5 279.5 c 128,-1,44
 119 203 119 203 152.5 149 c 128,-1,45
 186 95 186 95 231 67 c 128,-1,46
 276 39 276 39 321 41 c 0,47,48
 344 41 344 41 376.5 49.5 c 128,-1,49
 409 58 409 58 440.5 89 c 128,-1,50
 472 120 472 120 497.5 181.5 c 128,-1,51
 523 243 523 243 531 352 c 0,29,30
EndSplineSet
Substitution2: "mark-downsizer-1" Theta.mark
EndChar

StartChar: Lambda
Encoding: 923 923 180
AltUni2: 0003bb.ffffffff.0
Width: 564
Flags: W
LayerCount: 2
Fore
SplineSet
429 37 m 1,0,1
 429 37 429 37 241 543 c 1,2,-1
 87 44 l 1,3,-1
 118 0 l 1,4,-1
 5 9 l 1,5,-1
 242 717 l 1,6,-1
 509 49 l 1,7,-1
 552 17 l 1,8,-1
 399 0 l 1,9,-1
 429 37 l 1,0,1
EndSplineSet
Substitution2: "mark-downsizer-1" Lambda.mark
EndChar

StartChar: Xi
Encoding: 926 926 181
AltUni2: 0003be.ffffffff.0
Width: 569
Flags: W
LayerCount: 2
Fore
SplineSet
168 440 m 5,0,-1
 201 401 l 5,1,-1
 317 405 l 5,2,-1
 360 446 l 5,3,-1
 354 302 l 5,4,-1
 315 340 l 5,5,-1
 205 345 l 5,6,-1
 172 314 l 5,7,-1
 168 440 l 5,0,-1
9 702 m 1,8,-1
 512 686 l 1,9,-1
 514 590 l 1,10,-1
 465 637 l 1,11,-1
 49 643 l 1,12,-1
 8 611 l 1,13,-1
 9 702 l 1,8,-1
20 116 m 1,14,-1
 59 62 l 1,15,-1
 465 71 l 1,16,-1
 514 119 l 1,17,-1
 517 7 l 1,18,-1
 14 10 l 1,19,-1
 20 116 l 1,14,-1
EndSplineSet
Substitution2: "mark-downsizer-1" Xi.mark
EndChar

StartChar: Sigma
Encoding: 931 931 182
AltUni2: 0003c3.ffffffff.0 0003c2.ffffffff.0
Width: 514
Flags: W
LayerCount: 2
Fore
SplineSet
112 59 m 1,0,1
 356 63 356 63 361.5 64 c 128,-1,2
 367 65 367 65 449 119 c 1,3,-1
 449 2 l 1,4,-1
 30 2 l 1,5,-1
 30 58 l 1,6,-1
 239 388 l 1,7,-1
 5 658 l 1,8,-1
 5 717 l 1,9,-1
 479 710 l 1,10,-1
 478 589 l 1,11,12
 456 606 456 606 438 621.5 c 128,-1,13
 420 637 420 637 399 653 c 1,14,-1
 101 657 l 1,15,-1
 317 389 l 1,16,-1
 112 59 l 1,0,1
EndSplineSet
Substitution2: "mark-downsizer-1" Sigma.mark
EndChar

StartChar: Psi
Encoding: 936 936 183
AltUni2: 0003c8.ffffffff.0
Width: 571
Flags: W
LayerCount: 2
Fore
SplineSet
174 714 m 1,0,-1
 313 714 l 1,1,2
 304 706 304 706 298 699 c 128,-1,3
 292 692 292 692 285.5 685.5 c 128,-1,4
 279 679 279 679 279 676 c 0,5,6
 279 491 279 491 280 343 c 1,7,8
 285 343 285 343 290 342 c 0,9,10
 333 340 333 340 362 359 c 0,11,12
 422 398 422 398 426 477 c 0,13,14
 433 621 433 621 420 638 c 0,15,16
 412 648 412 648 409 654 c 2,17,-1
 400 662 l 2,18,19
 400 662 400 662 385 676 c 2,20,-1
 365 695 l 1,21,-1
 436 695 l 1,22,-1
 526 694 l 1,23,24
 501 633 501 633 504.5 603 c 128,-1,25
 508 573 508 573 503.5 497.5 c 128,-1,26
 499 422 499 422 494 408 c 0,27,28
 461 285 461 285 286 296 c 0,29,30
 283 296 283 296 280 297 c 1,31,32
 280 268 280 268 281 241 c 0,33,34
 283 57 283 57 284.5 54.5 c 128,-1,35
 286 52 286 52 345 0 c 1,36,-1
 176 -2 l 1,37,38
 205 26 205 26 210 35 c 128,-1,39
 215 44 215 44 217 305 c 2,40,-1
 217 307 l 1,41,42
 185 315 185 315 157 329 c 0,43,44
 103 356 103 356 76 385 c 0,45,46
 20 443 20 443 11 545 c 0,47,48
 3 626 3 626 10 679 c 1,49,-1
 3 702 l 2,50,51
 -1 708 -1 708 -3 718 c 1,52,-1
 131 714 l 1,53,54
 119 700 119 700 108 683 c 128,-1,55
 97 666 97 666 94 661.5 c 128,-1,56
 91 657 91 657 87 635.5 c 128,-1,57
 83 614 83 614 86 568 c 128,-1,58
 89 522 89 522 93 502 c 0,59,60
 105 443 105 443 142 401 c 0,61,62
 166 376 166 376 206 360 c 0,63,64
 211 358 211 358 217 357 c 1,65,-1
 217 667 l 1,66,67
 209 680 209 680 174 714 c 1,0,-1
EndSplineSet
Substitution2: "mark-downsizer-1" Psi.mark
EndChar

StartChar: Omegagreek
Encoding: 937 937 184
AltUni2: 0003c9.ffffffff.0 0003ce.ffffffff.0 00038f.ffffffff.0
Width: 654
Flags: W
LayerCount: 2
Fore
SplineSet
484 62 m 1,0,1
 484 62 484 62 521 63 c 2,2,3
 524 64 524 64 606 119 c 1,4,-1
 611 10 l 1,5,-1
 411 7 l 1,6,-1
 411 61 l 2,7,8
 411 62 411 62 440 89 c 0,9,10
 472 120 472 120 497.5 182 c 128,-1,11
 523 244 523 244 531 352 c 0,12,13
 536 425 536 425 523.5 477 c 128,-1,14
 511 529 511 529 488 566 c 128,-1,15
 465 603 465 603 437.5 626 c 128,-1,16
 410 649 410 649 378 662 c 128,-1,17
 346 675 346 675 307 676 c 0,18,19
 302 676 302 676 286 675.5 c 128,-1,20
 270 675 270 675 249 670.5 c 128,-1,21
 228 666 228 666 206 654 c 128,-1,22
 184 642 184 642 160.5 620 c 128,-1,23
 137 598 137 598 119.5 555 c 128,-1,24
 102 512 102 512 95 450 c 0,25,26
 84 356 84 356 101.5 279.5 c 128,-1,27
 119 203 119 203 153 149 c 0,28,29
 187 96 187 96 237 59 c 1,30,-1
 239 4 l 1,31,-1
 3 1 l 1,32,-1
 3 118 l 1,33,-1
 93 54 l 1,34,-1
 133 55 l 1,35,36
 114 71 114 71 99 90 c 0,37,38
 47 155 47 155 29 209 c 0,39,40
 5 278 5 278 9 382 c 0,41,42
 13 476 13 476 40.5 537.5 c 128,-1,43
 68 599 68 599 103.5 636 c 128,-1,44
 139 673 139 673 188 695 c 0,45,46
 241 719 241 719 304 718 c 0,47,48
 380 717 380 717 455 686 c 0,49,50
 485 674 485 674 512.5 652.5 c 128,-1,51
 540 631 540 631 563 597.5 c 128,-1,52
 586 564 586 564 600 518 c 0,53,54
 616 466 616 466 617 411 c 0,55,56
 619 314 619 314 593 233 c 0,57,58
 567 157 567 157 524 106 c 0,59,60
 496 73 496 73 484 62 c 1,0,1
EndSplineSet
Substitution2: "mark-downsizer-1" Omegagreek.mark
EndChar

StartChar: uni1E9E
Encoding: 7838 7838 186
AltUni2: 0000df.ffffffff.0
Width: 506
Flags: W
AnchorPoint: "top" 241 707 basechar 0
LayerCount: 2
Fore
SplineSet
172 77 m 25,0,-1
 204 37 l 1,1,2
 233 32 233 32 274 34 c 0,3,4
 329 37 329 37 359 86 c 0,5,6
 386 133 386 133 387 203 c 0,7,8
 387 241 387 241 378 269.5 c 128,-1,9
 369 298 369 298 353 318 c 128,-1,10
 337 338 337 338 316 351 c 128,-1,11
 295 364 295 364 273 371 c 0,12,13
 219 389 219 389 158 386 c 1,14,-1
 158 421 l 1,15,-1
 361 673 l 1,16,-1
 188 670 l 18,17,18
 143 669 143 669 110 645 c 0,19,20
 74 620 74 620 71 566 c 1,21,-1
 98 42 l 1,22,-1
 144 0 l 1,23,-1
 18 3 l 1,24,-1
 2 535 l 2,25,26
 1 567 1 567 10 605 c 0,27,28
 18 639 18 639 38 665 c 0,29,30
 66 700 66 700 98 704 c 0,31,32
 172 712 172 712 184 712 c 10,33,-1
 475 714 l 25,34,-1
 237 418 l 1,35,36
 241 417 241 417 254.5 415 c 128,-1,37
 268 413 268 413 293 407.5 c 128,-1,38
 318 402 318 402 348.5 390.5 c 128,-1,39
 379 379 379 379 405.5 356 c 128,-1,40
 432 333 432 333 450 297 c 128,-1,41
 468 261 468 261 471 207 c 0,42,43
 474 144 474 144 445 98.5 c 128,-1,44
 416 53 416 53 372 31 c 0,45,46
 319 3 319 3 273 3 c 0,47,48
 273 3 273 3 174 1 c 1,49,-1
 172 77 l 25,0,-1
EndSplineSet
Substitution2: "mark-downsizer-1" uni1E9E.mark
EndChar

StartChar: ogonek
Encoding: 731 731 187
Width: 91
Flags: W
LayerCount: 2
Fore
SplineSet
37 4 m 17,0,1
 25 -12 25 -12 25 -26 c 0,2,3
 24 -45 24 -45 30 -60 c 128,-1,4
 36 -75 36 -75 46.5 -82.5 c 128,-1,5
 57 -90 57 -90 68 -92 c 0,6,7
 83 -95 83 -95 91 -92 c 1,8,-1
 91 -137 l 2,9,10
 91 -138 91 -138 82.5 -138.5 c 128,-1,11
 74 -139 74 -139 57.5 -134.5 c 128,-1,12
 41 -130 41 -130 23 -114 c 0,13,14
 8 -98 8 -98 3.5 -76.5 c 128,-1,15
 -1 -55 -1 -55 1 -32.5 c 128,-1,16
 3 -10 3 -10 6 2 c 1,17,-1
 30 32 l 9,18,-1
 37 4 l 17,0,1
EndSplineSet
EndChar

StartChar: dotaccent
Encoding: 729 729 188
Width: 58
Flags: W
LayerCount: 2
Fore
SplineSet
54 717 m 0,0,1
 46 705 46 705 33.5 704.5 c 128,-1,2
 21 704 21 704 11 711 c 0,3,4
 2 719 2 719 0 732 c 128,-1,5
 -2 745 -2 745 6 756 c 0,6,7
 13 765 13 765 24.5 767.5 c 128,-1,8
 36 770 36 770 46 762 c 0,9,10
 56 753 56 753 57.5 740 c 128,-1,11
 59 727 59 727 54 717 c 0,0,1
EndSplineSet
EndChar

StartChar: mu
Encoding: 181 181 198
Width: 495
Flags: W
LayerCount: 2
Fore
SplineSet
400 24 m 1,0,-1
 435 0 l 1,1,-1
 336 0 l 1,2,-1
 337 33 l 1,3,4
 325 22 325 22 311 15 c 0,5,6
 275 -5 275 -5 226 4 c 0,7,8
 166 15 166 15 127 46 c 0,9,10
 89 78 89 78 65 123 c 1,11,-1
 76 -115 l 1,12,-1
 123 -147 l 1,13,-1
 7 -145 l 1,14,-1
 15 -120 l 1,15,-1
 14 368 l 2,16,17
 13 391 13 391 13 413 c 0,18,19
 13 455 13 455 11 478 c 1,20,-1
 5 495 l 2,21,22
 2 500 2 500 1 505 c 1,23,-1
 107 503 l 1,24,25
 99 493 99 493 92 484 c 0,26,27
 85 476 85 476 80 468 c 0,28,29
 75 460 75 460 74 454 c 0,30,31
 74 409 74 409 75 363 c 0,32,33
 76 317 76 317 81 274 c 0,34,35
 86 231 86 231 95.5 190.5 c 128,-1,36
 105 150 105 150 122 119 c 0,37,38
 138 88 138 88 166 68 c 0,39,40
 196 46 196 46 230 43 c 0,41,42
 265 39 265 39 289 67 c 0,43,44
 313 95 313 95 326 139 c 0,45,46
 339 184 339 184 341 237 c 0,47,48
 344 328 344 328 342 338 c 0,49,50
 342 340 342 340 335 421 c 0,51,52
 334 428 334 428 321 464 c 0,53,54
 320 466 320 466 315 470 c 0,55,56
 310 475 310 475 302 480 c 2,57,-1
 286 493 l 1,58,-1
 343 493 l 1,59,-1
 408 494 l 1,60,61
 399 474 399 474 398 464 c 1,62,63
 397 459 397 459 400 24 c 1,0,-1
EndSplineSet
EndChar

StartChar: paragraph
Encoding: 182 182 199
Width: 522
Flags: W
LayerCount: 2
Fore
SplineSet
335 657 m 1049,0,-1
483 705 m 1,1,2
 294 724 294 724 187 712 c 4,3,4
 153 708 153 708 120 698 c 4,5,6
 88 688 88 688 62 672 c 4,7,8
 37 656 37 656 20 632 c 4,9,10
 4 605 4 605 5 572 c 4,11,12
 6 526 6 526 19 496 c 4,13,14
 34 465 34 465 57 445 c 4,15,16
 75 431 75 431 110 417 c 4,17,18
 135 408 135 408 170 403 c 4,19,20
 199 399 199 399 227 395 c 1,21,22
 215 66 215 66 215 66 c 0,23,24
 213 64 213 64 204.5 54.5 c 128,-1,25
 196 45 196 45 185 36 c 0,26,27
 173 24 173 24 159 10 c 1,28,-1
 269 7 l 1,29,-1
 291 659 l 1,30,-1
 335 657 l 1,31,-1
 321 6 l 1,32,-1
 415 3 l 1,33,34
 407 10 407 10 400 15 c 0,35,36
 394 21 394 21 389.5 26 c 128,-1,37
 385 31 385 31 384 33 c 0,38,39
 384 35 384 35 389 653 c 1,40,-1
 440 649 l 1,41,-1
 479 584 l 1,42,-1
 483 705 l 1,1,2
EndSplineSet
EndChar

StartChar: ordfeminine
Encoding: 170 170 201
Width: 124
Flags: W
LayerCount: 2
Fore
SplineSet
125 782 m 1,0,-1
 125 686 l 1,1,-1
 134 677 l 1,2,-1
 102 677 l 1,3,-1
 105 782 l 25,4,-1
 125 782 l 1,0,-1
-2 655 m 1,5,-1
 119 665 l 1,6,-1
 116 633 l 1,7,-1
 0 633 l 1,8,-1
 -2 655 l 1,5,-1
EndSplineSet
Refer: 169 176 N 1 0 0 1 0 0 2
EndChar

StartChar: brokenbar
Encoding: 166 166 202
Width: 152
Flags: W
LayerCount: 2
Fore
SplineSet
40 432 m 1,0,-1
 40 674 l 1,1,-1
 100 669 l 1,2,-1
 90 427 l 9,3,-1
 40 432 l 1,0,-1
87 342 m 17,4,-1
 74 70 l 1,5,-1
 40 70 l 1,6,-1
 40 343 l 9,7,-1
 87 342 l 17,4,-1
EndSplineSet
EndChar

StartChar: section
Encoding: 167 167 203
Width: 441
Flags: W
LayerCount: 2
Fore
SplineSet
197 -79 m 0,0,1
 223 -82 223 -82 246 -69 c 0,2,3
 276 -53 276 -53 294 -1 c 0,4,5
 308 40 308 40 258 53 c 0,6,7
 205 66 205 66 167 80 c 0,8,9
 101 106 101 106 73 140 c 0,10,11
 48 170 48 170 26 212 c 0,12,13
 -21 303 -21 303 55 465 c 1,14,-1
 116 414 l 1,15,16
 82 336 82 336 79 309 c 0,17,18
 72 248 72 248 109.5 192.5 c 128,-1,19
 147 137 147 137 210.5 123 c 128,-1,20
 274 109 274 109 283 108 c 0,21,22
 306 106 306 106 329 104 c 0,23,24
 379 100 379 100 373 17 c 0,25,26
 370 -22 370 -22 349 -58 c 0,27,28
 311 -127 311 -127 204 -135 c 0,29,30
 169 -138 169 -138 127 -129 c 0,31,32
 78 -119 78 -119 35 -97 c 1,33,-1
 67 0 l 1,34,35
 67 0 67 0 88 -60 c 1,36,37
 121 -71 121 -71 197 -79 c 0,0,1
90 538 m 0,38,39
 104 458 104 458 229 435 c 0,40,41
 353 413 353 413 386 319 c 0,42,43
 412 246 412 246 396.5 183.5 c 128,-1,44
 381 121 381 121 343 62 c 1,45,-1
 288 86 l 1,46,47
 297 95 297 95 320 155 c 0,48,49
 343 215 343 215 331 301 c 0,50,51
 321 376 321 376 166 394 c 0,52,53
 78 404 78 404 30 498 c 0,54,55
 18 522 18 522 8.5 569 c 128,-1,56
 -1 616 -1 616 17.5 660.5 c 128,-1,57
 36 705 36 705 66.5 721 c 128,-1,58
 97 737 97 737 139 744 c 0,59,60
 180 750 180 750 226 748 c 0,61,62
 272 745 272 745 309 741 c 0,63,64
 347 735 347 735 371 730 c 0,65,66
 395 723 395 723 395 722 c 2,67,-1
 389 590 l 1,68,69
 389 590 389 590 342 670 c 1,70,71
 330 676 330 676 270 687 c 0,72,73
 146 710 146 710 104 632 c 0,74,75
 81 589 81 589 90 538 c 0,38,39
EndSplineSet
EndChar

StartChar: plusminus
Encoding: 177 177 204
Width: 303
Flags: W
LayerCount: 2
Fore
SplineSet
23 201 m 1,0,-1
 261 205 l 5,1,-1
 256 155 l 1,2,-1
 27 163 l 1,3,-1
 23 201 l 1,0,-1
260 316 m 1,4,-1
 159 318 l 1,5,-1
 156 224 l 1,6,-1
 124 224 l 1,7,-1
 120 318 l 1,8,-1
 0 318 l 1,9,-1
 6 356 l 1,10,-1
 120 356 l 1,11,-1
 118 473 l 1,12,-1
 161 473 l 1,13,-1
 159 356 l 1,14,-1
 262 357 l 1,15,-1
 260 316 l 1,4,-1
EndSplineSet
EndChar

StartChar: currency
Encoding: 164 164 205
Width: 366
Flags: W
LayerCount: 2
Fore
SplineSet
179 481 m 0,0,1
 221 481 221 481 255 469 c 0,2,3
 265 466 265 466 275 461 c 1,4,-1
 318 503 l 1,5,-1
 341 478 l 1,6,-1
 305 439 l 2,7,8
 307 437 307 437 309 434 c 0,9,10
 321 421 321 421 328 402.5 c 128,-1,11
 335 384 335 384 337 361 c 0,12,13
 338 321 338 321 324 291 c 0,14,15
 314 267 314 267 298 249 c 1,16,-1
 346 205 l 1,17,-1
 321 177 l 1,18,-1
 272 227 l 1,19,20
 257 217 257 217 241 210 c 0,21,22
 213 200 213 200 184 199.5 c 128,-1,23
 155 199 155 199 127 208 c 0,24,25
 110 213 110 213 94 222 c 1,26,-1
 48 172 l 1,27,-1
 20 198 l 1,28,-1
 67 242 l 1,29,30
 51 258 51 258 40 281 c 0,31,32
 27 310 27 310 30 349 c 0,33,34
 32 386 32 386 46 410 c 0,35,36
 52 421 52 421 59 430 c 1,37,-1
 15 475 l 1,38,-1
 40 498 l 1,39,-1
 86 455 l 1,40,41
 101 465 101 465 120 472 c 0,42,43
 145 481 145 481 179 481 c 0,0,1
283 338 m 0,44,45
 285 364 285 364 279 382 c 128,-1,46
 273 400 273 400 262.5 413.5 c 128,-1,47
 252 427 252 427 239.5 435 c 128,-1,48
 227 443 227 443 212.5 447.5 c 128,-1,49
 198 452 198 452 181 452 c 0,50,51
 179 452 179 452 171.5 452 c 128,-1,52
 164 452 164 452 154.5 450.5 c 128,-1,53
 145 449 145 449 135 444.5 c 128,-1,54
 125 440 125 440 114.5 432.5 c 128,-1,55
 104 425 104 425 96 409.5 c 128,-1,56
 88 394 88 394 85 372 c 0,57,58
 80 339 80 339 87.5 312 c 128,-1,59
 95 285 95 285 110.5 266 c 128,-1,60
 126 247 126 247 146.5 237 c 128,-1,61
 167 227 167 227 187 228 c 0,62,63
 197 228 197 228 212 231 c 128,-1,64
 227 234 227 234 241.5 245 c 128,-1,65
 256 256 256 256 267.5 278 c 128,-1,66
 279 300 279 300 283 338 c 0,44,45
EndSplineSet
EndChar

StartChar: onequarter
Encoding: 188 188 206
Width: 512
Flags: W
LayerCount: 2
Fore
SplineSet
437 840 m 5,0,-1
 492 811 l 5,1,-1
 39 67 l 5,2,-1
 3 99 l 5,3,-1
 437 840 l 5,0,-1
EndSplineSet
Refer: 192 8308 N 1 0 0 1 263 -528 2
Refer: 190 185 N 1 0 0 1 3 22 2
EndChar

StartChar: onehalf
Encoding: 189 189 207
Width: 513
Flags: W
LayerCount: 2
Fore
SplineSet
437 840 m 5,0,-1
 492 811 l 5,1,-1
 39 67 l 5,2,-1
 3 99 l 5,3,-1
 437 840 l 5,0,-1
EndSplineSet
Refer: 171 178 N 1 0 0 1 253 -528 2
Refer: 190 185 N 1 0 0 1 0 0 2
EndChar

StartChar: threequarters
Encoding: 190 190 208
Width: 512
Flags: W
LayerCount: 2
Fore
SplineSet
437 840 m 5,0,-1
 492 811 l 5,1,-1
 39 67 l 5,2,-1
 3 99 l 5,3,-1
 437 840 l 5,0,-1
EndSplineSet
Refer: 192 8308 N 1 0 0 1 263 -528 2
Refer: 189 179 N 1 0 0 1 0 0 2
EndChar

StartChar: uni0404
Encoding: 1028 1028 220
AltUni2: 000454.ffffffff.0
Width: 523
Flags: W
LayerCount: 2
Fore
SplineSet
486 40 m 1,0,1
 395 -6 395 -6 294.5 4 c 128,-1,2
 194 14 194 14 125 68.5 c 128,-1,3
 56 123 56 123 32 195 c 128,-1,4
 8 267 8 267 5 354 c 0,5,6
 3 439 3 439 22 500 c 128,-1,7
 41 561 41 561 73 601.5 c 128,-1,8
 105 642 105 642 146 666.5 c 128,-1,9
 187 691 187 691 231 702 c 0,10,11
 337 730 337 730 468 709 c 1,12,-1
 438 567 l 1,13,-1
 398 642 l 1,14,15
 328 667 328 667 270 659 c 0,16,17
 239 655 239 655 209 639.5 c 128,-1,18
 179 624 179 624 155 591.5 c 128,-1,19
 131 559 131 559 114 506 c 0,20,21
 98 456 98 456 94 383 c 1,22,-1
 371 383 l 1,23,-1
 371 327 l 1,24,-1
 92 327 l 1,25,26
 92 277 92 277 101 230 c 0,27,28
 114 162 114 162 139 128.5 c 128,-1,29
 164 95 164 95 197 82 c 128,-1,30
 230 69 230 69 284 63 c 1,31,32
 350 62 350 62 466 102 c 1,33,-1
 486 40 l 1,0,1
EndSplineSet
Substitution2: "mark-downsizer-1" uni0404.mark
EndChar

StartChar: uni0490
Encoding: 1168 1168 224
AltUni2: 000491.ffffffff.0
Width: 498
Flags: W
LayerCount: 2
Fore
SplineSet
461 791 m 21,0,1
 413 717 413 717 402 711.5 c 128,-1,2
 391 706 391 706 0 717 c 1,3,-1
 1 665 l 1,4,-1
 38 664 l 1,5,-1
 34 25 l 1,6,7
 21 14 21 14 5 -1 c 1,8,-1
 171 -1 l 1,9,10
 133 24 133 24 126.5 31.5 c 128,-1,11
 120 39 120 39 119 41 c 0,12,13
 118 42 118 42 117 70 c 128,-1,14
 116 98 116 98 100 665 c 1,15,16
 171 665 171 665 463 654 c 1,17,-1
 461 791 l 21,0,1
EndSplineSet
Substitution2: "mark-downsizer-1" uni0490.mark
EndChar

StartChar: Tbar
Encoding: 358 358 328
AltUni2: 000167.ffffffff.0
Width: 563
Flags: W
LayerCount: 2
Fore
SplineSet
125 369 m 25,0,-1
 383 389 l 29,1,-1
 356 340 l 25,2,-1
 158 332 l 25,3,-1
 125 369 l 25,0,-1
EndSplineSet
Refer: 52 84 N 1 0 0 1 0 0 2
EndChar

StartChar: Hbar
Encoding: 294 294 329
AltUni2: 000127.ffffffff.0
Width: 628
Flags: W
LayerCount: 2
Fore
SplineSet
0 531 m 5,0,-1
 603 541 l 1,1,-1
 583 505 l 1,2,-1
 36 493 l 1,3,-1
 0 531 l 5,0,-1
EndSplineSet
Refer: 40 72 N 1 0 0 1 80 0 2
EndChar

StartChar: Eng
Encoding: 330 330 338
AltUni2: 00014b.ffffffff.0
Width: 542
Flags: W
AnchorPoint: "bottom" 243 -62 basechar 0
AnchorPoint: "bottomattside" 487 26 basechar 0
AnchorPoint: "top" 222 703 basechar 0
LayerCount: 2
Fore
SplineSet
488 -7 m 1,0,1
 486 -161 486 -161 348 -161 c 0,2,3
 261 -161 261 -161 228 -60 c 0,4,-1
 289 -58 l 0,5,6
 293 -115 293 -115 348 -116 c 0,7,8
 437 -116 437 -116 435 3 c 2,9,-1
 434 75 l 1,10,-1
 65 566 l 1,11,12
 84 45 84 45 85 44 c 0,13,14
 89 40 89 40 96 31 c 0,15,16
 100 25 100 25 114 16 c 0,17,18
 125 8 125 8 138 1 c 1,19,-1
 0 1 l 1,20,-1
 29 34 l 1,21,-1
 6 676 l 1,22,-1
 82 679 l 1,23,-1
 433 204 l 1,24,25
 427 675 427 675 426 676 c 0,26,27
 423 679 423 679 416 686 c 0,28,29
 404 698 404 698 400 700 c 2,30,-1
 379 715 l 1,31,-1
 482 716 l 1,32,-1
 488 -7 l 1,0,1
EndSplineSet
EndChar
